<svg width="32" height="33" viewBox="0 0 32 33" fill="none" xmlns="http://www.w3.org/2000/svg">
<g clip-path="url(#clip0_14_147)">
<path d="M6.0062 1.70957C4.9937 2.10332 4.13745 2.62832 3.2812 3.48457C2.42495 4.33457 1.89995 5.19707 1.5062 6.20332C1.12495 7.17832 0.868701 8.29707 0.793701 9.93457C0.718701 11.5721 0.699951 12.0971 0.699951 16.2721C0.699951 20.4471 0.718701 20.9721 0.793701 22.6096C0.868701 24.2471 1.1312 25.3658 1.5062 26.3408C1.89995 27.3533 2.42495 28.2096 3.2812 29.0658C4.13745 29.9221 4.9937 30.4471 6.0062 30.8408C6.9812 31.2221 8.09995 31.4783 9.73745 31.5533C11.375 31.6283 11.9 31.6471 16.075 31.6471C20.25 31.6471 20.775 31.6283 22.4125 31.5533C24.05 31.4783 25.1687 31.2158 26.1437 30.8408C27.1562 30.4471 28.0124 29.9221 28.8687 29.0658C29.725 28.2096 30.25 27.3533 30.6437 26.3408C31.025 25.3658 31.2812 24.2471 31.3562 22.6096C31.4312 20.9721 31.45 20.4471 31.45 16.2721C31.45 12.0971 31.4312 11.5721 31.3562 9.93457C31.2812 8.29707 31.0187 7.17832 30.6437 6.20332C30.25 5.19707 29.725 4.33457 28.875 3.48457C28.0187 2.62832 27.1625 2.10332 26.15 1.70957C25.1749 1.32832 24.0562 1.07207 22.4187 0.99707C20.7812 0.92207 20.2562 0.90332 16.0812 0.90332C11.9062 0.90332 11.3812 0.92207 9.7437 0.99707C8.09995 1.06582 6.9812 1.32832 6.0062 1.70957ZM22.2875 3.75957C23.7875 3.82832 24.5999 4.07832 25.1437 4.29082C25.8624 4.57207 26.375 4.90332 26.9125 5.44082C27.45 5.97832 27.7812 6.49082 28.0625 7.20957C28.275 7.75332 28.525 8.56582 28.5937 10.0658C28.6687 11.6846 28.6812 12.1721 28.6812 16.2783C28.6812 20.3846 28.6625 20.8721 28.5937 22.4908C28.525 23.9908 28.275 24.8033 28.0625 25.3471C27.7812 26.0658 27.45 26.5783 26.9125 27.1158C26.375 27.6533 25.8624 27.9846 25.1437 28.2658C24.5999 28.4783 23.7875 28.7283 22.2875 28.7971C20.6687 28.8721 20.1812 28.8846 16.075 28.8846C11.9687 28.8846 11.4812 28.8658 9.86245 28.7971C8.36245 28.7283 7.54995 28.4783 7.0062 28.2658C6.28745 27.9846 5.77495 27.6533 5.23745 27.1158C4.69995 26.5783 4.3687 26.0658 4.08745 25.3471C3.87495 24.8033 3.62495 23.9908 3.5562 22.4908C3.4812 20.8721 3.4687 20.3846 3.4687 16.2783C3.4687 12.1721 3.48745 11.6846 3.5562 10.0658C3.62495 8.56582 3.87495 7.75332 4.08745 7.20957C4.3687 6.49082 4.69995 5.97832 5.23745 5.44082C5.77495 4.90332 6.28745 4.57207 7.0062 4.29082C7.54995 4.07832 8.36245 3.82832 9.86245 3.75957C11.4812 3.68457 11.9687 3.67207 16.075 3.67207C20.1812 3.67207 20.6687 3.68457 22.2875 3.75957Z" fill="url(#paint0_radial_14_147)"/>
<path d="M8.18115 16.2785C8.18115 20.641 11.7187 24.1723 16.0749 24.1723C20.4312 24.1723 23.9687 20.6348 23.9687 16.2785C23.9687 11.9223 20.4374 8.38477 16.0749 8.38477C11.7124 8.38477 8.18115 11.916 8.18115 16.2785ZM21.1999 16.2785C21.1999 19.1098 18.9062 21.4035 16.0749 21.4035C13.2437 21.4035 10.9499 19.1098 10.9499 16.2785C10.9499 13.4473 13.2437 11.1535 16.0749 11.1535C18.9062 11.1535 21.1999 13.4473 21.1999 16.2785Z" fill="url(#paint1_radial_14_147)"/>
<path d="M24.2874 9.91602C25.3056 9.91602 26.1311 9.09054 26.1311 8.07227C26.1311 7.05399 25.3056 6.22852 24.2874 6.22852C23.2691 6.22852 22.4436 7.05399 22.4436 8.07227C22.4436 9.09054 23.2691 9.91602 24.2874 9.91602Z" fill="#654C9F"/>
</g>
<defs>
<radialGradient id="paint0_radial_14_147" cx="0" cy="0" r="1" gradientUnits="userSpaceOnUse" gradientTransform="translate(1.25945 28.8323) rotate(-3.00009) scale(44.4571 37.7881)">
<stop stop-color="#FED576"/>
<stop offset="0.2634" stop-color="#F47133"/>
<stop offset="0.6091" stop-color="#BC3081"/>
<stop offset="1" stop-color="#4C63D2"/>
</radialGradient>
<radialGradient id="paint1_radial_14_147" cx="0" cy="0" r="1" gradientUnits="userSpaceOnUse" gradientTransform="translate(8.46748 22.7246) rotate(-3.00009) scale(22.8293 19.4047)">
<stop stop-color="#FED576"/>
<stop offset="0.2634" stop-color="#F47133"/>
<stop offset="0.6091" stop-color="#BC3081"/>
<stop offset="1" stop-color="#4C63D2"/>
</radialGradient>
<clipPath id="clip0_14_147">
<rect width="32" height="32" fill="white" transform="translate(0 0.259766)"/>
</clipPath>
</defs>
</svg>
