<svg width="32" height="33" viewBox="0 0 32 33" fill="none" xmlns="http://www.w3.org/2000/svg">
<g clip-path="url(#clip0_14_148)">
<path d="M16 32.2598C24.8366 32.2598 32 25.0963 32 16.2598C32 7.42321 24.8366 0.259766 16 0.259766C7.16344 0.259766 0 7.42321 0 16.2598C0 25.0963 7.16344 32.2598 16 32.2598Z" fill="url(#paint0_linear_14_148)"/>
<path fill-rule="evenodd" clip-rule="evenodd" d="M7.24261 16.0907C11.9069 14.0585 15.0172 12.7188 16.5734 12.0715C21.0168 10.2234 21.9401 9.90232 22.5419 9.89171C22.6743 9.88938 22.9702 9.92219 23.1619 10.0777C23.3238 10.2091 23.3683 10.3865 23.3896 10.511C23.4109 10.6356 23.4375 10.9192 23.4164 11.1409C23.1756 13.6709 22.1337 19.8105 21.6036 22.6441C21.3794 23.8431 20.9377 24.2451 20.5102 24.2844C19.581 24.3699 18.8755 23.6704 17.9756 23.0805C16.5674 22.1574 15.7718 21.5828 14.4049 20.682C12.8252 19.641 13.8493 19.0688 14.7495 18.1338C14.9851 17.8891 19.079 14.1654 19.1582 13.8276C19.1681 13.7854 19.1773 13.6279 19.0838 13.5447C18.9902 13.4616 18.8521 13.49 18.7525 13.5126C18.6113 13.5447 16.3616 15.0316 12.0036 17.9734C11.3651 18.4119 10.7867 18.6255 10.2685 18.6143C9.69718 18.602 8.59826 18.2913 7.78133 18.0257C6.77933 17.7 5.98296 17.5278 6.05231 16.9747C6.08842 16.6866 6.48519 16.3919 7.24261 16.0907Z" fill="white"/>
</g>
<defs>
<linearGradient id="paint0_linear_14_148" x1="16" y1="0.259766" x2="16" y2="32.0224" gradientUnits="userSpaceOnUse">
<stop stop-color="#2AABEE"/>
<stop offset="1" stop-color="#229ED9"/>
</linearGradient>
<clipPath id="clip0_14_148">
<rect width="32" height="32" fill="white" transform="translate(0 0.259766)"/>
</clipPath>
</defs>
</svg>