<svg width="32" height="33" viewBox="0 0 32 33" fill="none" xmlns="http://www.w3.org/2000/svg">
<path d="M10.0634 29.2605C22.1389 29.2605 28.7437 19.256 28.7437 10.5801C28.7437 10.296 28.7437 10.0131 28.7245 9.73149C30.0094 8.8021 31.1185 7.65134 32 6.33309C30.8019 6.8643 29.5307 7.2125 28.2291 7.36605C29.5998 6.54564 30.6255 5.2551 31.1155 3.73469C29.8268 4.4995 28.4168 5.03846 26.9466 5.32829C25.9567 4.27573 24.6475 3.57875 23.2216 3.34521C21.7957 3.11166 20.3326 3.35458 19.0586 4.03636C17.7847 4.71815 16.771 5.80079 16.1743 7.11676C15.5777 8.43272 15.4314 9.90865 15.7581 11.3161C13.1479 11.1852 10.5943 10.5068 8.26327 9.3251C5.9322 8.14336 3.87569 6.48464 2.2272 4.45661C1.38764 5.90194 1.1305 7.61292 1.50813 9.24118C1.88577 10.8694 2.86979 12.2926 4.25984 13.2208C3.21498 13.1902 2.19286 12.9083 1.28 12.399V12.4822C1.28041 13.998 1.80513 15.467 2.76516 16.64C3.72519 17.8131 5.06141 18.6179 6.5472 18.9181C5.58064 19.1817 4.5665 19.2202 3.58272 19.0307C4.00242 20.3351 4.81924 21.4758 5.91899 22.2933C7.01873 23.1107 8.34644 23.5641 9.71648 23.5901C8.35525 24.66 6.79642 25.4511 5.12917 25.9181C3.46191 26.385 1.71895 26.5186 0 26.3113C3.00244 28.238 6.4959 29.26 10.0634 29.2553" fill="#1DA1F2"/>
</svg>
