<svg width="544" height="180" viewBox="0 0 136 45" fill="none" xmlns="http://www.w3.org/2000/svg">
<g clip-path="url(#clip0_14_992)">
<path d="M14.25 0L23.53 13.98H23.92L33.3 0H47.04L31.71 22.13L47.54 44.26H33.44L23.91 30.12H23.52L13.99 44.26H0L15.76 22.13L0.4 0H14.25Z" fill="#F7F2EC"/>
<path d="M134.06 26.53C133.29 25.14 132.15 23.91 130.64 22.84C129.13 21.78 127.28 20.86 125.07 20.09C122.86 19.31 120.32 18.7 117.43 18.23L112.43 17.39C111.11 17.18 109.91 16.93 108.85 16.65C107.79 16.37 106.88 16.05 106.13 15.68C105.39 15.3 104.82 14.87 104.43 14.38C104.04 13.89 103.86 13.32 103.9 12.67C103.91 12.13 104.07 11.63 104.36 11.17C104.49 10.97 104.65 10.77 104.84 10.58C105.44 9.97 106.36 9.49 107.57 9.14C108.78 8.78 110.3 8.61 112.11 8.61C114.86 8.61 116.98 9.04 118.47 9.9C119.09 10.26 119.61 10.69 119.99 11.17H134.17C133.77 9.43 132.93 7.86 131.65 6.44C129.81 4.4 127.23 2.82 123.9 1.69C120.58 0.56 116.66 0 112.15 0C107.64 0 103.8 0.56 100.35 1.68C96.9 2.81 94.2 4.37 92.24 6.38C90.86 7.81 89.97 9.41 89.58 11.17C89.42 11.88 89.34 12.62 89.35 13.39C89.33 16.66 90.77 19.25 93.66 21.17C96.57 23.09 100.54 24.47 105.58 25.33L111.67 26.38C113.78 26.75 115.54 27.14 116.91 27.57C118.28 28 119.3 28.51 119.97 29.09C120.63 29.67 120.97 30.37 120.99 31.18C120.97 32.05 120.6 32.83 119.88 33.5C119.16 34.17 118.13 34.7 116.79 35.08C115.46 35.46 113.84 35.65 111.95 35.65C109.88 35.65 108.07 35.41 106.51 34.93C105.08 34.49 103.93 33.87 103.07 33.07H88.37C88.87 34.83 89.72 36.38 90.94 37.71C92.95 39.91 95.76 41.56 99.38 42.64C103 43.72 107.25 44.26 112.11 44.26C116.97 44.26 121.12 43.74 124.56 42.7C128 41.66 130.64 40.17 132.47 38.22C134.31 36.27 135.24 33.93 135.26 31.2C135.24 29.48 134.84 27.92 134.06 26.53Z" fill="#F7F2EC"/>
<path d="M53.78 44.25C56.29 44.2 57.6 43.89 59.71 43.32C57.95 42.85 56.76 42.22 55.34 41.3C51.95 39.12 50.58 36.87 48.78 33.61C48.69 33.44 48.59 33.27 48.5 33.09C42.83 33.1 41.69 33.1 41.49 33.1L49.55 44.26C49.83 44.26 53.5 44.26 53.78 44.25Z" fill="#0052FF"/>
<path d="M41.5 11.19L49.55 0H58.58C61.23 0.04 63.65 0.35 65.86 0.94C67.63 1.41 69.25 2.06 70.74 2.88C74.21 4.79 76.85 7.39 78.65 10.65C78.74 10.82 78.84 10.99 78.93 11.17C80.54 14.29 81.35 17.78 81.35 21.62C81.35 25.46 80.93 28.15 79.31 31.26C76.1 31.26 69.36 31.62 67.08 30.78C66.63 30.62 66.24 30.36 65.86 30.11C67.03 29.35 67.96 28.38 68.66 27.21C69.57 25.65 70.04 23.79 70.04 21.62C70.04 19.45 69.57 17.57 68.66 16.02C67.96 14.84 67.01 13.87 65.82 13.11C65.44 12.86 65.03 12.64 64.6 12.44C62.94 11.67 60.93 11.25 58.57 11.2C58.5 11.2 55.97 11.19 52.75 11.19H41.5Z" fill="#0052FF"/>
<path d="M75.95 0.01C73.44 0.06 72.12 0.37 70.01 0.94C71.77 1.41 72.96 2.04 74.38 2.95C77.78 5.14 79.15 7.39 80.95 10.65C81.04 10.82 81.14 10.99 81.23 11.17H87.1C87.55 8.88 88.69 6.81 90.5 4.99C92.6 2.87 95.46 1.19 98.98 0C96.87 0 76.21 0 75.95 0.01Z" fill="#0052FF"/>
<path d="M98.18 44.26H71.14C68.49 44.22 66.07 43.91 63.86 43.32C62.09 42.85 60.47 42.2 58.98 41.38C55.51 39.47 52.87 36.87 51.07 33.61C50.98 33.44 50.88 33.27 50.79 33.09C49.18 29.97 48.37 26.48 48.37 22.64C48.37 18.8 48.79 16.11 50.41 13C53.62 13 60.36 12.64 62.64 13.48C63.09 13.64 63.48 13.9 63.86 14.15C62.69 14.91 61.76 15.88 61.06 17.05C60.15 18.61 59.68 20.47 59.68 22.64C59.68 24.81 60.15 26.69 61.06 28.24C61.76 29.42 62.71 30.39 63.9 31.15C64.28 31.4 64.69 31.62 65.12 31.82C66.78 32.59 68.79 33.01 71.15 33.06C71.22 33.06 73.75 33.07 76.97 33.07H86.28C86.86 35.35 87.95 37.35 89.54 39.05C91.67 41.34 94.57 43.09 98.18 44.26Z" fill="#0052FF"/>
</g>
<defs>
<clipPath id="clip0_14_992">
<rect width="135.26" height="44.26" fill="white"/>
</clipPath>
</defs>
</svg>
