<svg width="384" height="147" viewBox="0 0 384 147" fill="none" xmlns="http://www.w3.org/2000/svg">
<path d="M224.869 86.2433L210.816 110.427H200.677L190.538 92.6449L194.273 86.2433C199.076 78.0635 199.076 67.7499 194.273 59.5701L182.889 39.832C178.086 31.6522 169.192 26.4954 159.764 26.4954H136.817C133.615 26.4954 130.414 27.0288 127.39 28.2735L138.596 11.5584C140.731 8.53541 140.909 4.44552 139.13 1.06692C138.952 0.711276 138.774 0.355642 138.418 0H175.062C184.49 0 193.384 5.15682 198.187 13.3366L224.869 59.5701C229.672 67.7499 229.672 78.0635 224.869 86.2433Z" fill="url(#paint0_linear_247_390)"/>
<path d="M138.952 144.76C140.909 141.382 140.553 137.292 138.418 134.091L127.212 117.376C130.236 118.62 133.438 119.332 136.817 119.332H154.784L159.942 128.223L164.923 136.936L170.081 145.827H138.241C138.241 145.827 138.774 145.116 138.952 144.76Z" fill="url(#paint1_linear_247_390)"/>
<path d="M263.47 4.28138C253.331 10.5051 247.995 19.574 245.504 29.3542C241.946 27.3981 238.033 26.509 233.942 26.509H215.976L210.817 17.618L205.836 8.90473L200.678 0.0136719H249.24C254.398 0.0136719 259.201 1.43624 263.47 4.28138Z" fill="url(#paint2_linear_247_390)"/>
<path d="M292.287 97.8154L291.22 99.7714H269.34C263.648 99.7714 259.023 104.395 259.023 110.085V139.959C259.023 141.204 259.201 142.449 259.735 143.515C256.533 145.116 252.975 145.827 249.24 145.827H195.875C186.269 145.827 177.553 140.67 172.75 132.491L146.068 86.257C141.265 78.0772 141.265 67.7636 146.068 59.5838L159.943 35.4001H169.904L180.221 53.1823L176.664 59.5838C171.861 67.7636 171.861 78.0772 176.664 86.257L188.048 105.995C192.851 114.175 201.567 119.332 211.173 119.332H233.942C243.37 119.332 252.264 114.175 257.067 105.995L265.783 90.7025C272.898 94.7924 281.792 97.1041 292.287 97.8154Z" fill="url(#paint3_linear_247_390)"/>
<path d="M42.3619 69.5418L1.27099 9.26035C-1.39725 5.34828 1.27099 0.0136719 6.2517 0.0136719H39.16C41.1167 0.0136719 42.8955 1.08059 44.1407 2.68098L62.9962 30.7767C65.3087 34.3332 70.4673 34.3332 72.7798 30.7767L91.9911 2.68098C93.0584 1.08059 94.8372 0.191463 96.7939 0.191463H129.88C134.683 0.191463 137.351 5.52611 134.861 9.43818L94.3036 70.2531C92.8805 72.2091 93.0584 74.8764 94.3036 76.8325L134.861 136.936C137.529 140.848 134.861 146.183 129.88 146.183H97.6833C95.7266 146.183 93.9478 145.294 92.8805 143.693L72.424 115.42C69.9337 112.041 64.953 112.219 62.6405 115.598L44.3186 143.515C43.2513 145.116 41.2946 146.183 39.3379 146.183H6.07381C1.27098 146.183 -1.57513 140.848 1.09311 136.936L42.184 76.6546C43.607 74.6986 43.607 72.0313 42.184 70.0752L42.3619 69.5418Z" fill="#F7F2EC"/>
<path d="M299.936 93.7254C265.249 93.7254 247.816 77.8994 247.816 46.425C247.816 14.9506 265.249 0.0136719 299.936 0.0136719H361.839C365.041 0.0136719 367.709 2.68099 367.709 5.88177V35.7557C367.709 38.9565 365.041 41.6238 361.839 41.6238H299.936C292.998 41.6238 289.441 43.2242 289.441 46.425C289.441 50.1592 292.998 52.1153 299.936 52.1153H331.243C365.93 52.1153 383.363 67.5857 383.363 98.5266C383.363 129.468 365.93 145.827 331.243 145.827H269.34C266.138 145.827 263.47 143.16 263.47 139.959V110.085C263.47 106.884 266.138 104.217 269.34 104.217H331.243C338.18 104.217 341.738 102.261 341.738 98.5266C341.738 95.3258 338.18 93.7254 331.243 93.7254H299.936Z" fill="#F7F2EC"/>
<defs>
<linearGradient id="paint0_linear_247_390" x1="127.39" y1="55.3024" x2="228.427" y2="55.3024" gradientUnits="userSpaceOnUse">
<stop stop-color="#0052FF"/>
<stop offset="1" stop-color="#0052FF"/>
</linearGradient>
<linearGradient id="paint1_linear_247_390" x1="127.212" y1="131.601" x2="170.081" y2="131.601" gradientUnits="userSpaceOnUse">
<stop stop-color="#0052FF"/>
<stop offset="1" stop-color="#0052FF"/>
</linearGradient>
<linearGradient id="paint2_linear_247_390" x1="200.678" y1="14.7728" x2="263.47" y2="14.7728" gradientUnits="userSpaceOnUse">
<stop stop-color="#0052FF"/>
<stop offset="1" stop-color="#0052FF"/>
</linearGradient>
<linearGradient id="paint3_linear_247_390" x1="142.332" y1="90.7025" x2="292.287" y2="90.7025" gradientUnits="userSpaceOnUse">
<stop stop-color="#0052FF"/>
<stop offset="0.45" stop-color="#0052FF"/>
<stop offset="1" stop-color="#0052FF"/>
</linearGradient>
</defs>
</svg>
