<svg width="354" height="310" viewBox="0 0 354 310" fill="none" xmlns="http://www.w3.org/2000/svg">
  <line x1="54.7971" y1="104.829" x2="92.4367" y2="128.077" stroke="#41AFFF" stroke-width="0.5"/>
  <line x1="181.001" y1="242.104" x2="198.714" y2="253.174" stroke="#41AFFF" stroke-width="0.5"/>
  <line x1="260.709" y1="196.715" x2="299.455" y2="221.07" stroke="#41AFFF" stroke-width="0.5"/>
  <path d="M113.294 278.184C110.601 278.249 107.936 277.632 105.545 276.39L3.63049 217.551C1.57138 216.344 0.464355 214.706 0.464355 212.868C0.464355 210.709 2.08064 208.528 4.89254 206.901L199.234 94.7131C204.515 91.6687 212.519 91.3366 217.135 93.9825L319.05 152.822C321.087 154.006 322.216 155.645 322.216 157.449C322.216 159.608 320.6 161.789 317.788 163.416L123.402 275.638C120.302 277.328 116.825 278.204 113.294 278.184ZM105.722 275.97C110.15 278.538 118.021 278.184 123.18 275.228L317.555 163.051C320.245 161.501 321.784 159.475 321.784 157.516C321.784 155.877 320.677 154.372 318.828 153.276L216.914 94.4142C212.486 91.8459 204.615 92.2001 199.456 95.1449L5.06963 207.333C2.39058 208.883 0.851794 210.909 0.851794 212.868C0.851794 214.507 1.90354 216.012 3.80765 217.108L105.722 275.97Z" fill="#41AFFF"/>
  <path d="M321.995 130.271L307.359 132.784L217.024 80.6315C212.486 78.0189 204.57 78.3399 199.312 81.3621L26.5131 181.14L0.641357 185.568V194.746C0.641357 196.417 1.61556 198.067 3.68573 199.174L105.634 258.08C110.161 260.704 118.077 260.371 123.346 257.349L317.666 145.128C320.489 143.501 321.939 141.419 321.983 139.449L321.995 130.271Z" fill="url(#paint0_linear_182_149)"/>
  <path d="M105.634 248.847L3.71891 189.996C-0.819974 187.384 -0.244294 182.812 4.98096 179.79L199.345 67.5684C204.57 64.5461 212.486 64.2472 217.058 66.8377L318.972 125.677C323.5 128.301 322.935 132.862 317.699 135.884L123.346 248.116C118.055 251.128 110.139 251.46 105.634 248.847Z" fill="#C7C6F8"/>
  <path d="M317.666 135.884L123.346 248.116C118.11 251.128 110.195 251.438 105.633 248.847L3.71887 189.997C2.95415 189.627 2.28478 189.086 1.76262 188.416C1.24046 187.746 0.879482 186.965 0.707668 186.133C0.430906 188.015 1.40514 189.864 3.71887 191.192L105.633 250.032C110.161 252.655 118.077 252.323 123.346 249.301L317.666 137.08C320.799 135.264 322.249 132.906 321.939 130.736C321.673 132.552 320.234 134.401 317.666 135.884Z" fill="white"/>
  <path d="M105.81 246.567L7.52681 189.808C3.09863 187.273 3.69642 182.845 8.75561 179.922L199.522 69.8157C204.592 66.8931 212.253 66.5721 216.637 69.1072L314.92 125.865C319.348 128.401 318.762 132.818 313.691 135.74L122.925 245.858C117.811 248.781 110.194 249.091 105.81 246.567Z" fill="url(#paint1_linear_182_149)"/>
  <path style="mix-blend-mode:lighten" opacity="0.8" d="M113.239 246.079C110.594 246.148 107.976 245.538 105.634 244.308L7.35008 187.539C6.46654 187.131 5.70987 186.492 5.16025 185.689C4.61062 184.886 4.28858 183.949 4.22827 182.978C4.22827 180.852 5.81134 178.716 8.57895 177.122L199.345 67.0037C204.493 64.0368 212.309 63.6826 216.77 66.2952L315.053 123.053C315.938 123.463 316.697 124.105 317.248 124.909C317.799 125.714 318.123 126.652 318.186 127.626C318.186 129.751 316.603 131.888 313.836 133.482L123.081 243.6C120.063 245.246 116.677 246.099 113.239 246.079ZM105.977 243.788C110.261 246.268 117.8 245.947 122.76 243.079L313.537 132.939C316.094 131.456 317.566 129.519 317.566 127.626C317.502 126.766 317.208 125.94 316.715 125.234C316.222 124.527 315.549 123.965 314.766 123.607L216.482 66.8487C212.187 64.369 204.648 64.6346 199.688 67.5572L8.91105 177.664C6.35378 179.147 4.88139 181.085 4.88139 182.978C4.94608 183.837 5.24005 184.663 5.73269 185.37C6.22532 186.077 6.8986 186.638 7.68225 186.996L105.977 243.788Z" fill="url(#paint2_linear_182_149)"/>
  <path style="mix-blend-mode:lighten" opacity="0.3" d="M113.239 237.873C110.594 237.941 107.976 237.332 105.634 236.102L7.35008 179.333C6.46654 178.925 5.70987 178.286 5.16025 177.483C4.61062 176.68 4.28858 175.743 4.22827 174.772C4.22827 172.646 5.81134 170.509 8.57895 168.915L199.345 58.7974C204.493 55.8305 212.309 55.4763 216.77 58.0889L315.053 114.847C315.938 115.257 316.697 115.898 317.248 116.703C317.799 117.507 318.123 118.446 318.186 119.419C318.186 121.545 316.603 123.681 313.836 125.275L123.081 235.393C120.063 237.04 116.677 237.893 113.239 237.873ZM105.977 235.582C110.261 238.061 117.8 237.74 122.76 234.873L313.537 124.733C316.094 123.25 317.566 121.312 317.566 119.419C317.502 118.56 317.208 117.734 316.715 117.027C316.222 116.32 315.549 115.759 314.766 115.401L216.482 58.6424C212.187 56.1627 204.648 56.4283 199.688 59.3509L8.91105 169.458C6.35378 170.941 4.88139 172.878 4.88139 174.772C4.94608 175.631 5.24005 176.457 5.73269 177.164C6.22532 177.87 6.8986 178.432 7.68225 178.79L105.977 235.582Z" fill="url(#paint3_linear_182_149)"/>
  <path style="mix-blend-mode:lighten" opacity="0.2" d="M113.239 229.667C110.594 229.735 107.976 229.125 105.634 227.895L7.35008 171.126C6.46654 170.718 5.70987 170.079 5.16025 169.276C4.61062 168.473 4.28858 167.536 4.22827 166.565C4.22827 164.44 5.81134 162.303 8.57895 160.709L199.345 50.591C204.493 47.6242 212.309 47.2699 216.77 49.8826L315.053 106.641C315.938 107.051 316.697 107.692 317.248 108.496C317.799 109.301 318.123 110.24 318.186 111.213C318.186 113.338 316.603 115.475 313.836 117.069L123.081 227.187C120.063 228.833 116.677 229.687 113.239 229.667ZM105.977 227.375C110.261 229.855 117.8 229.534 122.76 226.667L313.537 116.527C316.094 115.043 317.566 113.106 317.566 111.213C317.502 110.354 317.208 109.528 316.715 108.821C316.222 108.114 315.549 107.552 314.766 107.194L216.482 50.4361C212.187 47.9563 204.648 48.222 199.688 51.1446L8.91105 161.251C6.35378 162.735 4.88139 164.672 4.88139 166.565C4.94608 167.424 5.24005 168.25 5.73269 168.957C6.22532 169.664 6.8986 170.226 7.68225 170.584L105.977 227.375Z" fill="url(#paint4_linear_182_149)"/>
  <g opacity="0.1">
  <path style="mix-blend-mode:lighten" d="M105.81 244.031L7.52681 187.273C3.09863 184.738 3.69642 180.31 8.75561 177.387L199.522 67.2805C204.592 64.3579 212.253 64.0369 216.637 66.572L314.92 123.33C319.348 125.865 318.762 130.282 313.691 133.205L122.925 243.323C117.811 246.246 110.194 246.567 105.81 244.031Z" fill="url(#paint5_radial_182_149)"/>
  </g>
  <path opacity="0.4" d="M293.931 132.751C293.088 133.177 292.157 133.399 291.213 133.399C290.269 133.399 289.338 133.177 288.495 132.751C287.001 131.888 287.001 130.537 288.495 129.618C289.338 129.192 290.269 128.97 291.213 128.97C292.157 128.97 293.088 129.192 293.931 129.618C295.426 130.482 295.426 131.888 293.931 132.751Z" fill="#00080E"/>
  <path opacity="0.4" d="M273.196 117.662L283.824 123.806C285.13 124.559 284.931 125.865 283.47 126.729C282.7 127.158 281.84 127.401 280.96 127.437C280.079 127.474 279.202 127.303 278.399 126.939L267.761 120.806C266.466 120.053 266.654 118.736 268.126 117.872C268.897 117.446 269.756 117.205 270.636 117.168C271.517 117.132 272.393 117.301 273.196 117.662Z" fill="#00080E"/>
  <path opacity="0.4" d="M212.53 80.8197L223.158 86.9527C224.464 87.7055 224.265 89.0118 222.804 89.8864C222.033 90.313 221.174 90.5542 220.293 90.5907C219.413 90.6272 218.537 90.4581 217.734 90.0967L207.095 83.9526C205.8 83.1998 205.988 81.8935 207.46 81.03C208.229 80.5984 209.089 80.3544 209.97 80.3178C210.851 80.2813 211.728 80.4532 212.53 80.8197Z" fill="#00080E"/>
  <g filter="url(#filter0_d_182_149)">
  <path d="M293.931 128.943C293.088 129.369 292.157 129.591 291.213 129.591C290.269 129.591 289.338 129.369 288.495 128.943C287.001 128.068 287.001 126.674 288.495 125.799C289.338 125.373 290.269 125.151 291.213 125.151C292.157 125.151 293.088 125.373 293.931 125.799C295.426 126.674 295.426 128.068 293.931 128.943Z" fill="#41AFFF"/>
  </g>
  <g filter="url(#filter1_d_182_149)">
  <path d="M273.196 113.832L283.824 119.976C285.13 120.718 284.931 122.035 283.47 122.899C282.7 123.328 281.84 123.57 280.96 123.607C280.079 123.643 279.202 123.473 278.399 123.109L267.761 116.965C266.466 116.212 266.654 114.906 268.126 114.042C268.896 113.613 269.756 113.37 270.636 113.334C271.517 113.297 272.394 113.468 273.196 113.832Z" fill="#41AFFF"/>
  </g>
  <g filter="url(#filter2_d_182_149)">
  <path d="M212.53 77.0004L223.158 83.1445C224.464 83.8973 224.265 85.2036 222.804 86.0671C222.034 86.4962 221.174 86.7388 220.294 86.7754C219.413 86.8119 218.536 86.6413 217.734 86.2775L207.095 80.1444C205.8 79.3916 205.988 78.0742 207.46 77.2107C208.23 76.7816 209.09 76.5391 209.97 76.5025C210.851 76.466 211.728 76.6365 212.53 77.0004Z" fill="#41AFFF"/>
  </g>
  <g opacity="0.3">
  <path d="M353.535 262.984V258.024L352.162 257.261C351.775 259.596 349.018 261.146 346.716 261.467L331.018 270.645L324.176 273.113L302.312 261.833L302.821 261.545C300.95 260.67 299.943 258.678 298.936 256.851L297.463 257.726L296.589 257.98V263.061C296.647 263.639 296.855 264.191 297.193 264.663C297.531 265.135 297.987 265.511 298.515 265.752L320.401 278.394C321.844 279.12 323.436 279.498 325.051 279.498C326.666 279.498 328.258 279.12 329.7 278.394L351.598 265.752C352.118 265.513 352.568 265.144 352.903 264.68C353.239 264.217 353.449 263.674 353.513 263.106C353.518 263.065 353.518 263.024 353.513 262.984H353.535Z" fill="url(#paint6_linear_182_149)"/>
  <path opacity="0.3" d="M346.715 261.467L331.017 270.645L325.061 272.792V279.501C326.68 279.534 328.281 279.153 329.711 278.394L351.608 265.752C352.128 265.513 352.578 265.144 352.914 264.68C353.249 264.217 353.459 263.674 353.523 263.106C353.529 263.065 353.529 263.024 353.523 262.984V258.024L352.261 257.327H352.128C351.719 259.63 348.996 261.146 346.715 261.467Z" fill="#0F054C"/>
  <path d="M320.401 273.346L298.503 260.704C295.935 259.231 295.935 256.818 298.503 255.334L320.401 242.692C321.843 241.966 323.435 241.588 325.05 241.588C326.665 241.588 328.257 241.966 329.7 242.692L351.597 255.334C354.154 256.818 354.154 259.231 351.597 260.704L329.711 273.346C328.269 274.079 326.674 274.461 325.056 274.461C323.438 274.461 321.843 274.079 320.401 273.346Z" fill="url(#paint7_linear_182_149)"/>
  <g opacity="0.3">
  <path d="M320.401 273.346L298.503 260.704C295.935 259.231 295.935 256.818 298.503 255.334L320.401 242.692C321.843 241.966 323.435 241.588 325.05 241.588C326.665 241.588 328.257 241.966 329.7 242.692L351.597 255.334C354.154 256.818 354.154 259.231 351.597 260.704L329.711 273.346C328.269 274.079 326.674 274.461 325.056 274.461C323.438 274.461 321.843 274.079 320.401 273.346Z" fill="#0F054C"/>
  </g>
  </g>
  <g opacity="0.3">
  <path d="M256.037 292.487V287.527L254.664 286.763C254.276 289.11 251.52 290.649 249.217 290.97L233.519 300.148L226.678 302.616L204.814 291.335L205.323 291.048C203.452 290.173 202.444 288.18 201.437 286.354L199.965 287.239L199.09 287.483V292.575C199.148 293.153 199.356 293.705 199.694 294.177C200.032 294.649 200.488 295.025 201.016 295.265L222.914 307.908C224.355 308.639 225.948 309.02 227.563 309.02C229.179 309.02 230.772 308.639 232.213 307.908L254.11 295.265C254.638 295.025 255.094 294.649 255.432 294.177C255.77 293.705 255.979 293.153 256.037 292.575C256.042 292.531 256.042 292.487 256.037 292.443V292.487Z" fill="url(#paint8_linear_182_149)"/>
  <path opacity="0.3" d="M249.218 290.97L233.52 300.148L227.564 302.295V309.004C229.183 309.037 230.783 308.656 232.214 307.897L254.111 295.254C254.638 295.014 255.092 294.641 255.43 294.171C255.768 293.701 255.977 293.151 256.037 292.575C256.043 292.531 256.043 292.487 256.037 292.443V287.483L254.775 286.786H254.653C254.222 289.132 251.498 290.649 249.218 290.97Z" fill="#0F054C"/>
  <path d="M222.914 302.86L201.017 290.217C198.448 288.734 198.448 286.321 201.017 284.848L222.914 272.206C224.355 271.474 225.948 271.093 227.564 271.093C229.179 271.093 230.772 271.474 232.213 272.206L254.111 284.826C256.679 286.298 256.679 288.712 254.111 290.195L232.213 302.86C230.771 303.586 229.178 303.964 227.564 303.964C225.949 303.964 224.356 303.586 222.914 302.86Z" fill="url(#paint9_linear_182_149)"/>
  <g opacity="0.3">
  <path d="M222.914 302.86L201.017 290.217C198.448 288.734 198.448 286.321 201.017 284.848L222.914 272.206C224.355 271.474 225.948 271.093 227.564 271.093C229.179 271.093 230.772 271.474 232.213 272.206L254.111 284.826C256.679 286.298 256.679 288.712 254.111 290.195L232.213 302.86C230.771 303.586 229.178 303.964 227.564 303.964C225.949 303.964 224.356 303.586 222.914 302.86Z" fill="#0F054C"/>
  </g>
  </g>
  <g opacity="0.3">
  <path d="M68.7575 116.489V111.529L67.3847 110.765C66.9973 113.101 64.2407 114.64 61.9381 114.961L46.2512 124.138L39.3986 126.618L17.5455 115.337L18.0437 115.039C16.1728 114.175 15.1764 112.171 14.158 110.356L12.6856 111.23L11.811 111.474V116.566C11.8631 117.144 12.0693 117.698 12.4081 118.169C12.7469 118.64 13.2059 119.012 13.7373 119.245L35.6347 131.888C37.0755 132.619 38.6684 133 40.2842 133C41.9 133 43.493 132.619 44.9338 131.888L66.8866 119.245C67.4073 119.009 67.8582 118.642 68.1957 118.181C68.5332 117.719 68.7457 117.178 68.8128 116.611V116.489H68.7575Z" fill="url(#paint10_linear_182_149)"/>
  <path opacity="0.3" d="M61.9378 114.961L46.2509 124.138L40.2839 126.353V133.061C41.9028 133.095 43.5034 132.714 44.9335 131.954L66.8863 119.245C67.407 119.009 67.858 118.642 68.1954 118.181C68.5329 117.719 68.7454 117.178 68.8125 116.611V116.489V111.529L67.5616 110.832H67.4287C66.9416 113.134 64.2183 114.651 61.9378 114.961Z" fill="#0F054C"/>
  <path d="M35.6348 126.851L13.7485 114.208C11.1802 112.725 11.1802 110.323 13.7485 108.839L35.6459 96.1966C37.0867 95.4654 38.6797 95.0842 40.2955 95.0842C41.9112 95.0842 43.5042 95.4654 44.9451 96.1966L66.8867 108.806C69.4551 110.289 69.4551 112.692 66.8867 114.175L44.934 126.851C43.4932 127.582 41.9001 127.963 40.2844 127.963C38.6686 127.963 37.0757 127.582 35.6348 126.851Z" fill="url(#paint11_linear_182_149)"/>
  <g opacity="0.3">
  <path d="M35.6348 126.851L13.7485 114.208C11.1802 112.725 11.1802 110.323 13.7485 108.839L35.6459 96.1966C37.0867 95.4654 38.6797 95.0842 40.2955 95.0842C41.9112 95.0842 43.5042 95.4654 44.9451 96.1966L66.8867 108.806C69.4551 110.289 69.4551 112.692 66.8867 114.175L44.934 126.851C43.4932 127.582 41.9001 127.963 40.2844 127.963C38.6686 127.963 37.0757 127.582 35.6348 126.851Z" fill="#0F054C"/>
  </g>
  </g>
  <path opacity="0.3" d="M61.9387 82.5467L46.2519 91.7241L40.3181 93.8718V100.58C41.937 100.614 43.5376 100.233 44.9677 99.4734L66.8872 86.831C67.4094 86.5938 67.8613 86.2255 68.1989 85.7618C68.5364 85.2981 68.7482 84.755 68.8135 84.1852V84.0634V79.1038L67.5625 78.4064H67.4296C66.9425 80.709 64.2193 82.2367 61.9387 82.5467Z" fill="#0F054C"/>
  <path d="M18.0441 82.6242L38.8012 70.6349C39.2633 70.4031 39.7731 70.2824 40.2901 70.2824C40.8071 70.2824 41.317 70.4031 41.7791 70.6349L62.1598 82.4139L61.9385 82.5467C64.2411 82.2257 66.9977 80.6758 67.3851 78.3399L44.5025 65.631L37.8602 63.8708L32.4357 67.0591L14.1694 77.9525C15.1768 79.757 16.1732 81.7496 18.0441 82.6242Z" fill="url(#paint12_linear_182_149)"/>
  <path opacity="0.3" d="M40.3184 64.524L37.8829 63.8708L32.4584 67.0591L14.1921 77.9525C15.2106 79.7791 16.2069 81.7718 18.0778 82.6463L38.8349 70.657C39.2917 70.4159 39.802 70.2941 40.3184 70.3028V64.524Z" fill="#0F054C"/>
  <path d="M63.6765 78.2403L41.7791 65.631C41.317 65.3993 40.8071 65.2786 40.2901 65.2786C39.7731 65.2786 39.2633 65.3993 38.8012 65.631L16.9038 78.2735C16.3503 78.5946 16.1731 79.0374 16.3503 79.447C16.475 79.2111 16.6679 79.0182 16.9038 78.8935L38.8012 66.251C39.2633 66.0192 39.7731 65.8985 40.2901 65.8985C40.8071 65.8985 41.317 66.0192 41.7791 66.251L63.6765 78.9156C63.9095 79.0404 64.0989 79.2336 64.219 79.4691C64.3961 79.0041 64.2189 78.5613 63.6765 78.2403Z" fill="white"/>
  <path opacity="0.4" d="M41.7791 65.631C41.3169 65.3993 40.807 65.2786 40.2901 65.2786C39.7731 65.2786 39.2632 65.3993 38.8011 65.631L16.9037 78.2735C16.0734 78.7495 16.0734 79.5245 16.9037 79.9894L38.8011 92.6429C39.2632 92.8747 39.7731 92.9954 40.2901 92.9954C40.807 92.9954 41.3169 92.8747 41.7791 92.6429L63.6764 80.0226C63.8536 79.9582 64.0068 79.8407 64.115 79.6862C64.2232 79.5318 64.2812 79.3477 64.2812 79.1591C64.2812 78.9705 64.2232 78.7865 64.115 78.632C64.0068 78.4776 63.8536 78.3601 63.6764 78.2956L41.7791 65.631Z" fill="#42E8E0"/>
  <path d="M40.3178 111.706C38.8802 111.732 37.4595 111.393 36.1886 110.721L14.2912 98.0786C13.8031 97.854 13.3831 97.5042 13.074 97.0648C12.7648 96.6254 12.5775 96.1119 12.531 95.5767C12.5761 95.0424 12.7629 94.5298 13.0724 94.0919C13.3818 93.654 13.8026 93.3067 14.2912 93.0858L36.1886 80.4434C37.4696 79.7989 38.8838 79.4633 40.3178 79.4633C41.7519 79.4633 43.166 79.7989 44.4471 80.4434L66.3445 93.0858C66.8345 93.3048 67.2565 93.6516 67.5662 94.0899C67.8759 94.5281 68.0619 95.0417 68.1046 95.5767C68.0603 96.1126 67.8739 96.627 67.5645 97.0668C67.2551 97.5066 66.8339 97.8559 66.3445 98.0786L44.4139 110.721C43.1528 111.388 41.7442 111.727 40.3178 111.706ZM40.3178 79.8345C38.9493 79.8107 37.5972 80.1345 36.3878 80.7755L14.4573 93.4179C14.0196 93.6105 13.6423 93.9181 13.3655 94.3079C13.0887 94.6978 12.9227 95.1554 12.8852 95.632C12.9239 96.1084 13.0904 96.5654 13.367 96.9551C13.6437 97.3447 14.0203 97.6526 14.4573 97.8461L36.3546 110.489C37.5748 111.105 38.9229 111.427 40.2901 111.427C41.6574 111.427 43.0055 111.105 44.2257 110.489L66.123 97.7354C66.5586 97.5399 66.934 97.2316 67.2104 96.8423C67.4867 96.453 67.654 95.997 67.695 95.5213C67.6552 95.0454 67.4883 94.5888 67.2118 94.1993C66.9353 93.8099 66.5593 93.5018 66.123 93.3072L44.2257 80.6648C43.0123 80.0675 41.6692 79.7822 40.3178 79.8345Z" fill="#41AFFF"/>
  <path d="M40.3178 86.3609C38.8802 86.3869 37.4595 86.0479 36.1886 85.3756L14.2912 72.7331C13.8031 72.5085 13.3831 72.1588 13.074 71.7193C12.7648 71.2799 12.5775 70.7665 12.531 70.2312C12.5761 69.6969 12.7629 69.1843 13.0724 68.7465C13.3818 68.3086 13.8026 67.9612 14.2912 67.7404L36.1886 55.0979C37.4696 54.4535 38.8838 54.1178 40.3178 54.1178C41.7519 54.1178 43.166 54.4535 44.4471 55.0979L66.3445 67.7404C66.8345 67.9593 67.2565 68.3061 67.5662 68.7444C67.8759 69.1827 68.0619 69.6963 68.1046 70.2312C68.0603 70.7671 67.8739 71.2815 67.5645 71.7213C67.2551 72.1611 66.8339 72.5104 66.3445 72.7331L44.4139 85.3756C43.1528 86.0425 41.7442 86.3813 40.3178 86.3609ZM40.3178 54.489C38.9493 54.4653 37.5972 54.7891 36.3878 55.43L14.4573 68.0725C14.0196 68.2651 13.6423 68.5726 13.3655 68.9625C13.0887 69.3523 12.9227 69.8099 12.8852 70.2866C12.9239 70.7629 13.0904 71.22 13.367 71.6096C13.6437 71.9993 14.0203 72.3071 14.4573 72.5007L36.3546 85.1431C37.5748 85.76 38.9229 86.0813 40.2901 86.0813C41.6574 86.0813 43.0055 85.76 44.2257 85.1431L66.123 72.39C66.5586 72.1944 66.934 71.8861 67.2104 71.4968C67.4867 71.1076 67.654 70.6515 67.695 70.1759C67.6552 69.6999 67.4883 69.2433 67.2118 68.8539C66.9353 68.4644 66.5593 68.1563 66.123 67.9618L44.2257 55.3193C43.0123 54.7221 41.6692 54.4367 40.3178 54.489Z" fill="url(#paint13_linear_182_149)"/>
  <path d="M40.3178 78.6116C38.8802 78.6376 37.4595 78.2986 36.1886 77.6263L14.2912 64.9839C13.8031 64.7593 13.3831 64.4095 13.074 63.9701C12.7648 63.5306 12.5775 63.0172 12.531 62.482C12.5761 61.9477 12.7629 61.4351 13.0724 60.9972C13.3818 60.5593 13.8026 60.212 14.2912 59.9911L36.1886 47.3486C37.4696 46.7042 38.8838 46.3685 40.3178 46.3685C41.7519 46.3685 43.166 46.7042 44.4471 47.3486L66.3445 59.9911C66.8345 60.21 67.2565 60.5568 67.5662 60.9951C67.8759 61.4334 68.0619 61.947 68.1046 62.482C68.0603 63.0179 67.8739 63.5323 67.5645 63.9721C67.2551 64.4119 66.8339 64.7612 66.3445 64.9839L44.4139 77.6263C43.1528 78.2932 41.7442 78.632 40.3178 78.6116ZM40.3178 46.7398C38.9493 46.716 37.5972 47.0398 36.3878 47.6807L14.4573 60.3232C14.0196 60.5158 13.6423 60.8234 13.3655 61.2132C13.0887 61.6031 12.9227 62.0607 12.8852 62.5373C12.9239 63.0136 13.0904 63.4707 13.367 63.8603C13.6437 64.25 14.0203 64.5578 14.4573 64.7514L36.3546 77.3939C37.5748 78.0107 38.9229 78.3321 40.2901 78.3321C41.6574 78.3321 43.0055 78.0107 44.2257 77.3939L66.123 64.6407C66.5586 64.4452 66.934 64.1368 67.2104 63.7476C67.4867 63.3583 67.654 62.9022 67.695 62.4266C67.6552 61.9506 67.4883 61.4941 67.2118 61.1046C66.9353 60.7151 66.5593 60.4071 66.123 60.2125L44.2257 47.57C43.0123 46.9728 41.6692 46.6875 40.3178 46.7398Z" fill="url(#paint14_linear_182_149)"/>
  <path d="M40.3178 70.8622C38.8802 70.8882 37.4595 70.5492 36.1886 69.8769L14.2912 57.2345C13.8031 57.0099 13.3831 56.6601 13.074 56.2207C12.7648 55.7812 12.5775 55.2678 12.531 54.7326C12.5761 54.1983 12.7629 53.6857 13.0724 53.2478C13.3818 52.8099 13.8026 52.4626 14.2912 52.2417L36.1886 39.5993C37.4696 38.9548 38.8838 38.6191 40.3178 38.6191C41.7519 38.6191 43.166 38.9548 44.4471 39.5993L66.3445 52.2417C66.8345 52.4606 67.2565 52.8075 67.5662 53.2457C67.8759 53.684 68.0619 54.1976 68.1046 54.7326C68.0603 55.2685 67.8739 55.7829 67.5645 56.2227C67.2551 56.6625 66.8339 57.0118 66.3445 57.2345L44.4139 69.8769C43.1528 70.5438 41.7442 70.8826 40.3178 70.8622ZM40.3178 38.9904C38.9493 38.9666 37.5972 39.2904 36.3878 39.9314L14.4573 52.5738C14.0196 52.7664 13.6423 53.074 13.3655 53.4638C13.0887 53.8537 12.9227 54.3113 12.8852 54.7879C12.9239 55.2642 13.0904 55.7213 13.367 56.111C13.6437 56.5006 14.0203 56.8084 14.4573 57.002L36.3546 69.6445C37.5748 70.2613 38.9229 70.5827 40.2901 70.5827C41.6574 70.5827 43.0055 70.2613 44.2257 69.6445L66.123 56.8913C66.5586 56.6958 66.934 56.3874 67.2104 55.9982C67.4867 55.6089 67.654 55.1529 67.695 54.6772C67.6552 54.2012 67.4883 53.7447 67.2118 53.3552C66.9353 52.9658 66.5593 52.6577 66.123 52.4631L44.2257 39.8206C43.0123 39.2234 41.6692 38.9381 40.3178 38.9904Z" fill="url(#paint15_linear_182_149)"/>
  <path d="M40.3178 63.1129C38.8802 63.139 37.4595 62.8 36.1886 62.1277L14.2912 49.4852C13.8031 49.2606 13.3831 48.9108 13.074 48.4714C12.7648 48.032 12.5775 47.5186 12.531 46.9833C12.5761 46.449 12.7629 45.9364 13.0724 45.4985C13.3818 45.0606 13.8026 44.7133 14.2912 44.4924L36.1886 31.85C37.4696 31.2055 38.8838 30.8699 40.3178 30.8699C41.7519 30.8699 43.166 31.2055 44.4471 31.85L66.3445 44.4924C66.8345 44.7114 67.2565 45.0582 67.5662 45.4965C67.8759 45.9348 68.0619 46.4483 68.1046 46.9833C68.0603 47.5192 67.8739 48.0336 67.5645 48.4734C67.2551 48.9132 66.8339 49.2625 66.3445 49.4852L44.4139 62.1277C43.1528 62.7945 41.7442 63.1334 40.3178 63.1129ZM40.3178 31.2411C38.9493 31.2174 37.5972 31.5411 36.3878 32.1821L14.4573 44.8246C14.0196 45.0171 13.6423 45.3247 13.3655 45.7146C13.0887 46.1044 12.9227 46.562 12.8852 47.0387C12.9239 47.515 13.0904 47.972 13.367 48.3617C13.6437 48.7513 14.0203 49.0592 14.4573 49.2527L36.3546 61.8952C37.5748 62.512 38.9229 62.8334 40.2901 62.8334C41.6574 62.8334 43.0055 62.512 44.2257 61.8952L66.123 49.142C66.5586 48.9465 66.934 48.6382 67.2104 48.2489C67.4867 47.8596 67.654 47.4036 67.695 46.9279C67.6552 46.452 67.4883 45.9954 67.2118 45.6059C66.9353 45.2165 66.5593 44.9084 66.123 44.7139L44.2257 32.0714C43.0123 31.4742 41.6692 31.1888 40.3178 31.2411Z" fill="url(#paint16_linear_182_149)"/>
  <path d="M40.3178 55.3636C38.8802 55.3896 37.4595 55.0506 36.1886 54.3783L14.2912 41.7358C13.8031 41.5112 13.3831 41.1614 13.074 40.722C12.7648 40.2826 12.5775 39.7692 12.531 39.2339C12.5761 38.6996 12.7629 38.187 13.0724 37.7491C13.3818 37.3112 13.8026 36.9639 14.2912 36.7431L36.1886 24.1006C37.4696 23.4561 38.8838 23.1205 40.3178 23.1205C41.7519 23.1205 43.166 23.4561 44.4471 24.1006L66.3445 36.7431C66.8345 36.962 67.2565 37.3088 67.5662 37.7471C67.8759 38.1854 68.0619 38.6989 68.1046 39.2339C68.0603 39.7698 67.8739 40.2842 67.5645 40.724C67.2551 41.1638 66.8339 41.5131 66.3445 41.7358L44.4139 54.3783C43.1528 55.0451 41.7442 55.384 40.3178 55.3636ZM40.3178 23.4917C38.9493 23.468 37.5972 23.7917 36.3878 24.4327L14.4573 37.0752C14.0196 37.2678 13.6423 37.5753 13.3655 37.9652C13.0887 38.355 12.9227 38.8126 12.8852 39.2893C12.9239 39.7656 13.0904 40.2226 13.367 40.6123C13.6437 41.002 14.0203 41.3098 14.4573 41.5034L36.3546 54.1458C37.5748 54.7626 38.9229 55.084 40.2901 55.084C41.6574 55.084 43.0055 54.7626 44.2257 54.1458L66.123 41.3926C66.5586 41.1971 66.934 40.8888 67.2104 40.4995C67.4867 40.1103 67.654 39.6542 67.695 39.1786C67.6552 38.7026 67.4883 38.246 67.2118 37.8566C66.9353 37.4671 66.5593 37.159 66.123 36.9645L44.2257 24.322C43.0123 23.7248 41.6692 23.4394 40.3178 23.4917Z" fill="url(#paint17_linear_182_149)"/>
  <path d="M40.3178 47.6143C38.8802 47.6403 37.4595 47.3013 36.1886 46.629L14.2912 33.9866C13.8031 33.7619 13.3831 33.4122 13.074 32.9727C12.7648 32.5333 12.5775 32.0199 12.531 31.4846C12.5761 30.9503 12.7629 30.4378 13.0724 29.9999C13.3818 29.562 13.8026 29.2147 14.2912 28.9938L36.1886 16.3513C37.4696 15.7069 38.8838 15.3712 40.3178 15.3712C41.7519 15.3712 43.166 15.7069 44.4471 16.3513L66.3445 28.9938C66.8345 29.2127 67.2565 29.5595 67.5662 29.9978C67.8759 30.4361 68.0619 30.9497 68.1046 31.4846C68.0603 32.0206 67.8739 32.535 67.5645 32.9748C67.2551 33.4146 66.8339 33.7638 66.3445 33.9866L44.4139 46.629C43.1528 47.2959 41.7442 47.6347 40.3178 47.6143ZM40.3178 15.7424C38.9493 15.7187 37.5972 16.0425 36.3878 16.6834L14.4573 29.3259C14.0196 29.5185 13.6423 29.826 13.3655 30.2159C13.0887 30.6058 12.9227 31.0633 12.8852 31.54C12.9239 32.0163 13.0904 32.4734 13.367 32.863C13.6437 33.2527 14.0203 33.5605 14.4573 33.7541L36.3546 46.3965C37.5748 47.0134 38.9229 47.3347 40.2901 47.3347C41.6574 47.3347 43.0055 47.0134 44.2257 46.3965L66.123 33.6434C66.5586 33.4479 66.934 33.1395 67.2104 32.7503C67.4867 32.361 67.654 31.9049 67.695 31.4293C67.6552 30.9533 67.4883 30.4968 67.2118 30.1073C66.9353 29.7178 66.5593 29.4097 66.123 29.2152L44.2257 16.5727C43.0123 15.9755 41.6692 15.6901 40.3178 15.7424Z" fill="url(#paint18_linear_182_149)"/>
  <path d="M40.3178 39.8649C38.8802 39.8909 37.4595 39.5519 36.1886 38.8796L14.2912 26.2372C13.8031 26.0126 13.3831 25.6628 13.074 25.2234C12.7648 24.7839 12.5775 24.2705 12.531 23.7353C12.5761 23.201 12.7629 22.6884 13.0724 22.2505C13.3818 21.8126 13.8026 21.4653 14.2912 21.2444L36.1886 8.60194C37.4696 7.95748 38.8838 7.62183 40.3178 7.62183C41.7519 7.62183 43.166 7.95748 44.4471 8.60194L66.3445 21.2444C66.8345 21.4633 67.2565 21.8101 67.5662 22.2484C67.8759 22.6867 68.0619 23.2003 68.1046 23.7353C68.0603 24.2712 67.8739 24.7856 67.5645 25.2254C67.2551 25.6652 66.8339 26.0144 66.3445 26.2372L44.4139 38.8796C43.1528 39.5465 41.7442 39.8853 40.3178 39.8649ZM40.3178 7.99305C38.9493 7.96932 37.5972 8.29308 36.3878 8.93404L14.4573 21.5765C14.0196 21.7691 13.6423 22.0767 13.3655 22.4665C13.0887 22.8564 12.9227 23.314 12.8852 23.7906C12.9239 24.2669 13.0904 24.724 13.367 25.1136C13.6437 25.5033 14.0203 25.8111 14.4573 26.0047L36.3546 38.6472C37.5748 39.264 38.9229 39.5854 40.2901 39.5854C41.6574 39.5854 43.0055 39.264 44.2257 38.6472L66.123 25.894C66.5586 25.6985 66.934 25.3901 67.2104 25.0009C67.4867 24.6116 67.654 24.1555 67.695 23.6799C67.6552 23.2039 67.4883 22.7474 67.2118 22.3579C66.9353 21.9684 66.5593 21.6604 66.123 21.4658L44.2257 8.82333C43.0123 8.22611 41.6692 7.94075 40.3178 7.99305Z" fill="url(#paint19_linear_182_149)"/>
  <path opacity="0.4" d="M68.7575 90.7278V83.2331L67.3847 82.4692C66.9973 84.8051 64.2407 86.355 61.9381 86.676L46.2512 95.8423L39.3986 98.3221L17.5455 87.0413L18.0437 86.7535C16.1728 85.8789 15.1764 83.8752 14.158 82.0596L12.6856 82.9342L11.811 83.1778V90.8053C11.869 91.3829 12.0773 91.9353 12.4153 92.4073C12.7533 92.8793 13.2091 93.2545 13.7373 93.4954L35.6347 106.138C37.0755 106.869 38.6684 107.25 40.2842 107.25C41.9 107.25 43.493 106.869 44.9338 106.138L66.8866 93.4954C67.4073 93.2592 67.8582 92.8926 68.1957 92.431C68.5332 91.9694 68.7457 91.4285 68.8128 90.8607V90.7278H68.7575Z" fill="#41AFFF"/>
  <path d="M68.7575 84.0633V79.1038L67.3847 78.3399C66.9973 80.6758 64.2407 82.2256 61.9381 82.5467L46.2512 91.7241L39.3986 94.1928L17.5455 82.912L18.0437 82.6242C16.1728 81.7496 15.1764 79.7569 14.158 77.9303L12.6856 78.8049L11.811 79.0595V84.1408C11.869 84.7185 12.0773 85.2709 12.4153 85.7429C12.7533 86.2149 13.2091 86.59 13.7373 86.831L35.6347 99.4734C37.077 100.2 38.6694 100.578 40.2842 100.578C41.8991 100.578 43.4915 100.2 44.9338 99.4734L66.8866 86.831C67.4088 86.5938 67.8606 86.2255 68.1982 85.7618C68.5358 85.2981 68.7475 84.7549 68.8128 84.1851V84.0633H68.7575Z" fill="url(#paint20_linear_182_149)"/>
  <path d="M35.6346 94.4142L13.7483 81.7828C11.1799 80.3105 11.1799 77.8971 13.7483 76.4137L35.6457 63.7712C37.088 63.0451 38.6804 62.6668 40.2952 62.6668C41.91 62.6668 43.5025 63.0451 44.9448 63.7712L66.8865 76.4137C69.4548 77.8971 69.4548 80.3105 66.8865 81.7828L44.9337 94.4142C43.4929 95.1455 41.8999 95.5266 40.2841 95.5266C38.6684 95.5266 37.0754 95.1455 35.6346 94.4142ZM41.7787 65.631C41.3166 65.3993 40.8067 65.2786 40.2897 65.2786C39.7727 65.2786 39.2628 65.3993 38.8007 65.631L16.9033 78.2735C16.073 78.7496 16.073 79.5245 16.9033 79.9894L38.8007 92.643C39.2628 92.8747 39.7727 92.9954 40.2897 92.9954C40.8067 92.9954 41.3166 92.8747 41.7787 92.643L63.676 80.0226C63.8532 79.9582 64.0064 79.8407 64.1146 79.6862C64.2228 79.5318 64.2808 79.3477 64.2808 79.1591C64.2808 78.9705 64.2228 78.7865 64.1146 78.632C64.0064 78.4776 63.8532 78.3601 63.676 78.2957L41.7787 65.631Z" fill="url(#paint21_linear_182_149)"/>
  <path d="M66.8862 81.7829L44.9334 94.4143C43.4926 95.1455 41.8996 95.5267 40.2838 95.5267C38.6681 95.5267 37.0751 95.1455 35.6343 94.4143L13.748 81.7829C13.2709 81.5594 12.8514 81.2297 12.5213 80.819C12.1913 80.4084 11.9596 79.9278 11.8439 79.4138C11.8193 80.0466 11.9884 80.6719 12.3286 81.206C12.6689 81.7401 13.1641 82.1576 13.748 82.4028L35.6454 95.0453C37.0862 95.7766 38.6791 96.1577 40.2949 96.1577C41.9107 96.1577 43.5037 95.7766 44.9445 95.0453L66.8862 82.4028C67.4701 82.1576 67.9653 81.7401 68.3055 81.206C68.6458 80.6719 68.8148 80.0466 68.7903 79.4138C68.6761 79.9284 68.445 80.4098 68.1148 80.8206C67.7846 81.2315 67.3642 81.5607 66.8862 81.7829Z" fill="white"/>
  <path d="M36.255 94.0711L14.3576 81.4286C12.1435 80.1445 12.1435 78.1075 14.3576 76.7791L36.255 64.1366C37.5026 63.4991 38.8836 63.1667 40.2846 63.1667C41.6856 63.1667 43.0666 63.4991 44.3142 64.1366L66.2116 76.7791C68.4257 78.0632 68.4257 80.1002 66.2116 81.4286L44.3142 94.0711C43.0666 94.7086 41.6856 95.041 40.2846 95.041C38.8836 95.041 37.5026 94.7086 36.255 94.0711ZM42.388 65.2879C41.7369 64.9547 41.016 64.7809 40.2846 64.7809C39.5532 64.7809 38.8323 64.9547 38.1812 65.2879L16.2838 77.9304C16.0285 78.0158 15.8065 78.1794 15.6492 78.3979C15.4919 78.6165 15.4073 78.8789 15.4073 79.1481C15.4073 79.4174 15.4919 79.6798 15.6492 79.8983C15.8065 80.1169 16.0285 80.2804 16.2838 80.3659L38.1812 93.0083C38.836 93.3357 39.558 93.5062 40.2901 93.5062C41.0222 93.5062 41.7443 93.3357 42.3991 93.0083L64.2964 80.3659C64.5517 80.2804 64.7737 80.1169 64.931 79.8983C65.0883 79.6798 65.173 79.4174 65.173 79.1481C65.173 78.8789 65.0883 78.6165 64.931 78.3979C64.7737 78.1794 64.5517 78.0158 64.2964 77.9304L42.388 65.2879Z" fill="url(#paint22_linear_182_149)"/>
  <path style="mix-blend-mode:lighten" opacity="0.5" d="M64.2855 79.0817V0.979614H16.2839V79.0817C16.297 79.2703 16.3617 79.4517 16.4711 79.606C16.5805 79.7603 16.7302 79.8814 16.9039 79.9562L38.8013 92.6097C39.2634 92.8415 39.7732 92.9622 40.2902 92.9622C40.8072 92.9622 41.3171 92.8415 41.7792 92.6097L63.6766 80.0227C63.8526 79.9342 64.0019 79.8003 64.1089 79.6349C64.216 79.4695 64.2769 79.2785 64.2855 79.0817Z" fill="url(#paint23_linear_182_149)"/>
  <path d="M227.087 284.405C225.65 284.431 224.229 284.092 222.958 283.42L201.061 270.778C200.573 270.553 200.153 270.203 199.844 269.764C199.534 269.324 199.347 268.811 199.301 268.276C199.346 267.741 199.532 267.229 199.842 266.791C200.151 266.353 200.572 266.006 201.061 265.785L222.958 253.142C224.239 252.498 225.653 252.162 227.087 252.162C228.521 252.162 229.936 252.498 231.217 253.142L253.114 265.785C253.604 266.004 254.026 266.351 254.336 266.789C254.645 267.227 254.831 267.741 254.874 268.276C254.83 268.812 254.643 269.326 254.334 269.766C254.025 270.206 253.603 270.555 253.114 270.778L231.183 283.42C229.922 284.087 228.514 284.426 227.087 284.405ZM227.087 252.533C225.719 252.51 224.367 252.833 223.157 253.474L201.227 266.117C200.789 266.31 200.412 266.617 200.135 267.007C199.858 267.397 199.692 267.854 199.655 268.331C199.693 268.807 199.86 269.264 200.137 269.654C200.413 270.044 200.79 270.352 201.227 270.545L223.124 283.188C224.344 283.804 225.692 284.126 227.06 284.126C228.427 284.126 229.775 283.804 230.995 283.188L252.893 270.434C253.328 270.239 253.704 269.931 253.98 269.541C254.256 269.152 254.424 268.696 254.465 268.22C254.425 267.744 254.258 267.288 253.981 266.898C253.705 266.509 253.329 266.201 252.893 266.006L230.995 253.364C229.782 252.767 228.439 252.481 227.087 252.533Z" fill="#41AFFF"/>
  <path d="M227.087 259.06C225.65 259.086 224.229 258.747 222.958 258.075L201.061 245.432C200.573 245.208 200.153 244.858 199.844 244.418C199.534 243.979 199.347 243.465 199.301 242.93C199.346 242.396 199.532 241.883 199.842 241.445C200.151 241.008 200.572 240.66 201.061 240.439L222.958 227.797C224.239 227.152 225.653 226.817 227.087 226.817C228.521 226.817 229.936 227.152 231.217 227.797L253.114 240.439C253.604 240.658 254.026 241.005 254.336 241.443C254.645 241.882 254.831 242.395 254.874 242.93C254.83 243.466 254.643 243.981 254.334 244.42C254.025 244.86 253.603 245.209 253.114 245.432L231.183 258.075C229.922 258.741 228.514 259.08 227.087 259.06ZM227.087 227.188C225.719 227.164 224.367 227.488 223.157 228.129L201.227 240.771C200.789 240.964 200.412 241.272 200.135 241.661C199.858 242.051 199.692 242.509 199.655 242.986C199.693 243.462 199.86 243.919 200.137 244.309C200.413 244.698 200.79 245.006 201.227 245.2L223.124 257.842C224.344 258.459 225.692 258.78 227.06 258.78C228.427 258.78 229.775 258.459 230.995 257.842L252.893 245.089C253.328 244.893 253.704 244.585 253.98 244.196C254.256 243.807 254.424 243.35 254.465 242.875C254.425 242.399 254.258 241.942 253.981 241.553C253.705 241.163 253.329 240.855 252.893 240.661L230.995 228.018C229.782 227.421 228.439 227.136 227.087 227.188Z" fill="url(#paint24_linear_182_149)"/>
  <path d="M227.087 251.311C225.65 251.337 224.229 250.998 222.958 250.325L201.061 237.683C200.573 237.458 200.153 237.108 199.844 236.669C199.534 236.23 199.347 235.716 199.301 235.181C199.346 234.647 199.532 234.134 199.842 233.696C200.151 233.258 200.572 232.911 201.061 232.69L222.958 220.048C224.239 219.403 225.653 219.068 227.087 219.068C228.521 219.068 229.936 219.403 231.217 220.048L253.114 232.69C253.604 232.909 254.026 233.256 254.336 233.694C254.645 234.132 254.831 234.646 254.874 235.181C254.83 235.717 254.643 236.231 254.334 236.671C254.025 237.111 253.603 237.46 253.114 237.683L231.183 250.325C229.922 250.992 228.514 251.331 227.087 251.311ZM227.087 219.439C225.719 219.415 224.367 219.739 223.157 220.38L201.227 233.022C200.789 233.215 200.412 233.522 200.135 233.912C199.858 234.302 199.692 234.76 199.655 235.236C199.693 235.713 199.86 236.17 200.137 236.559C200.413 236.949 200.79 237.257 201.227 237.45L223.124 250.093C224.344 250.71 225.692 251.031 227.06 251.031C228.427 251.031 229.775 250.71 230.995 250.093L252.893 237.34C253.328 237.144 253.704 236.836 253.98 236.447C254.256 236.057 254.424 235.601 254.465 235.126C254.425 234.65 254.258 234.193 253.981 233.804C253.705 233.414 253.329 233.106 252.893 232.911L230.995 220.269C229.782 219.672 228.439 219.386 227.087 219.439Z" fill="url(#paint25_linear_182_149)"/>
  <path d="M227.087 243.561C225.65 243.587 224.229 243.248 222.958 242.576L201.061 229.934C200.573 229.709 200.153 229.359 199.844 228.92C199.534 228.48 199.347 227.967 199.301 227.432C199.346 226.897 199.532 226.385 199.842 225.947C200.151 225.509 200.572 225.162 201.061 224.941L222.958 212.298C224.239 211.654 225.653 211.318 227.087 211.318C228.521 211.318 229.936 211.654 231.217 212.298L253.114 224.941C253.604 225.16 254.026 225.507 254.336 225.945C254.645 226.383 254.831 226.897 254.874 227.432C254.83 227.968 254.643 228.482 254.334 228.922C254.025 229.362 253.603 229.711 253.114 229.934L231.183 242.576C229.922 243.243 228.514 243.582 227.087 243.561ZM227.087 211.689C225.719 211.666 224.367 211.989 223.157 212.63L201.227 225.273C200.789 225.466 200.412 225.773 200.135 226.163C199.858 226.553 199.692 227.01 199.655 227.487C199.693 227.963 199.86 228.42 200.137 228.81C200.413 229.2 200.79 229.508 201.227 229.701L223.124 242.344C224.344 242.96 225.692 243.282 227.06 243.282C228.427 243.282 229.775 242.96 230.995 242.344L252.893 229.59C253.328 229.395 253.704 229.087 253.98 228.697C254.256 228.308 254.424 227.852 254.465 227.376C254.425 226.9 254.258 226.444 253.981 226.054C253.705 225.665 253.329 225.357 252.893 225.162L230.995 212.52C229.782 211.923 228.439 211.637 227.087 211.689Z" fill="url(#paint26_linear_182_149)"/>
  <path d="M227.087 235.812C225.65 235.838 224.229 235.499 222.958 234.827L201.061 222.184C200.573 221.96 200.153 221.61 199.844 221.17C199.534 220.731 199.347 220.218 199.301 219.682C199.346 219.148 199.532 218.636 199.842 218.198C200.151 217.76 200.572 217.412 201.061 217.192L222.958 204.549C224.239 203.905 225.653 203.569 227.087 203.569C228.521 203.569 229.936 203.905 231.217 204.549L253.114 217.192C253.604 217.41 254.026 217.757 254.336 218.196C254.645 218.634 254.831 219.147 254.874 219.682C254.83 220.218 254.643 220.733 254.334 221.173C254.025 221.612 253.603 221.962 253.114 222.184L231.183 234.827C229.922 235.494 228.514 235.832 227.087 235.812ZM227.087 203.94C225.719 203.916 224.367 204.24 223.157 204.881L201.227 217.524C200.789 217.716 200.412 218.024 200.135 218.414C199.858 218.804 199.692 219.261 199.655 219.738C199.693 220.214 199.86 220.671 200.137 221.061C200.413 221.45 200.79 221.758 201.227 221.952L223.124 234.594C224.344 235.211 225.692 235.532 227.06 235.532C228.427 235.532 229.775 235.211 230.995 234.594L252.893 221.841C253.328 221.646 253.704 221.337 253.98 220.948C254.256 220.559 254.424 220.103 254.465 219.627C254.425 219.151 254.258 218.695 253.981 218.305C253.705 217.916 253.329 217.607 252.893 217.413L230.995 204.77C229.782 204.173 228.439 203.888 227.087 203.94Z" fill="url(#paint27_linear_182_149)"/>
  <path d="M227.087 228.063C225.65 228.089 224.229 227.75 222.958 227.077L201.061 214.435C200.573 214.21 200.153 213.861 199.844 213.421C199.534 212.982 199.347 212.468 199.301 211.933C199.346 211.399 199.532 210.886 199.842 210.448C200.151 210.01 200.572 209.663 201.061 209.442L222.958 196.8C224.239 196.155 225.653 195.82 227.087 195.82C228.521 195.82 229.936 196.155 231.217 196.8L253.114 209.442C253.604 209.661 254.026 210.008 254.336 210.446C254.645 210.884 254.831 211.398 254.874 211.933C254.83 212.469 254.643 212.983 254.334 213.423C254.025 213.863 253.603 214.212 253.114 214.435L231.183 227.077C229.922 227.744 228.514 228.083 227.087 228.063ZM227.087 196.191C225.719 196.167 224.367 196.491 223.157 197.132L201.227 209.774C200.789 209.967 200.412 210.274 200.135 210.664C199.858 211.054 199.692 211.512 199.655 211.988C199.693 212.465 199.86 212.922 200.137 213.311C200.413 213.701 200.79 214.009 201.227 214.202L223.124 226.845C224.344 227.462 225.692 227.783 227.06 227.783C228.427 227.783 229.775 227.462 230.995 226.845L252.893 214.092C253.328 213.896 253.704 213.588 253.98 213.199C254.256 212.809 254.424 212.353 254.465 211.878C254.425 211.402 254.258 210.945 253.981 210.556C253.705 210.166 253.329 209.858 252.893 209.664L230.995 197.021C229.782 196.424 228.439 196.139 227.087 196.191Z" fill="url(#paint28_linear_182_149)"/>
  <path d="M227.087 220.313C225.65 220.339 224.229 220 222.958 219.328L201.061 206.686C200.573 206.461 200.153 206.111 199.844 205.672C199.534 205.232 199.347 204.719 199.301 204.184C199.346 203.649 199.532 203.137 199.842 202.699C200.151 202.261 200.572 201.914 201.061 201.693L222.958 189.05C224.239 188.406 225.653 188.07 227.087 188.07C228.521 188.07 229.936 188.406 231.217 189.05L253.114 201.693C253.604 201.912 254.026 202.259 254.336 202.697C254.645 203.135 254.831 203.649 254.874 204.184C254.83 204.72 254.643 205.234 254.334 205.674C254.025 206.114 253.603 206.463 253.114 206.686L231.183 219.328C229.922 219.995 228.514 220.334 227.087 220.313ZM227.087 188.442C225.719 188.418 224.367 188.742 223.157 189.383L201.227 202.025C200.789 202.218 200.412 202.525 200.135 202.915C199.858 203.305 199.692 203.762 199.655 204.239C199.693 204.715 199.86 205.172 200.137 205.562C200.413 205.952 200.79 206.26 201.227 206.453L223.124 219.096C224.344 219.712 225.692 220.034 227.06 220.034C228.427 220.034 229.775 219.712 230.995 219.096L252.893 206.342C253.328 206.147 253.704 205.839 253.98 205.449C254.256 205.06 254.424 204.604 254.465 204.128C254.425 203.652 254.258 203.196 253.981 202.806C253.705 202.417 253.329 202.109 252.893 201.914L230.995 189.272C229.782 188.675 228.439 188.389 227.087 188.442Z" fill="url(#paint29_linear_182_149)"/>
  <path d="M227.087 212.564C225.65 212.59 224.229 212.251 222.958 211.579L201.061 198.936C200.573 198.712 200.153 198.362 199.844 197.922C199.534 197.483 199.347 196.97 199.301 196.434C199.346 195.9 199.532 195.387 199.842 194.95C200.151 194.512 200.572 194.164 201.061 193.943L222.958 181.301C224.239 180.657 225.653 180.321 227.087 180.321C228.521 180.321 229.936 180.657 231.217 181.301L253.114 193.943C253.604 194.162 254.026 194.509 254.336 194.948C254.645 195.386 254.831 195.899 254.874 196.434C254.83 196.97 254.643 197.485 254.334 197.924C254.025 198.364 253.603 198.714 253.114 198.936L231.183 211.579C229.922 212.246 228.514 212.584 227.087 212.564ZM227.087 180.692C225.719 180.668 224.367 180.992 223.157 181.633L201.227 194.276C200.789 194.468 200.412 194.776 200.135 195.166C199.858 195.555 199.692 196.013 199.655 196.49C199.693 196.966 199.86 197.423 200.137 197.813C200.413 198.202 200.79 198.51 201.227 198.704L223.124 211.346C224.344 211.963 225.692 212.284 227.06 212.284C228.427 212.284 229.775 211.963 230.995 211.346L252.893 198.593C253.328 198.398 253.704 198.089 253.98 197.7C254.256 197.311 254.424 196.855 254.465 196.379C254.425 195.903 254.258 195.446 253.981 195.057C253.705 194.668 253.329 194.359 252.893 194.165L230.995 181.522C229.782 180.925 228.439 180.64 227.087 180.692Z" fill="url(#paint30_linear_182_149)"/>
  <path opacity="0.4" d="M255.527 263.427V255.932L254.155 255.168C253.767 257.504 251.011 259.054 248.708 259.375L233.021 268.541L226.168 271.021L204.315 259.74L204.813 259.453C202.943 258.578 201.946 256.574 200.928 254.759L199.455 255.633L198.581 255.877V263.504C198.639 264.082 198.847 264.634 199.185 265.106C199.523 265.578 199.979 265.954 200.507 266.194L222.404 278.837C223.845 279.568 225.438 279.949 227.054 279.949C228.67 279.949 230.263 279.568 231.704 278.837L253.656 266.194C254.177 265.958 254.628 265.592 254.965 265.13C255.303 264.668 255.515 264.128 255.583 263.56V263.427H255.527Z" fill="#41AFFF"/>
  <path d="M255.527 256.762V251.803L254.155 251.039C253.767 253.375 251.011 254.925 248.708 255.246L233.021 264.423L226.168 266.892L204.315 255.611L204.813 255.323C202.943 254.449 201.946 252.456 200.928 250.629L199.455 251.504L198.581 251.759V256.84C198.639 257.418 198.847 257.97 199.185 258.442C199.523 258.914 199.979 259.289 200.507 259.53L222.404 272.173C223.847 272.899 225.439 273.277 227.054 273.277C228.669 273.277 230.261 272.899 231.704 272.173L253.656 259.53C254.179 259.293 254.63 258.925 254.968 258.461C255.306 257.997 255.517 257.454 255.583 256.884V256.762H255.527Z" fill="url(#paint31_linear_182_149)"/>
  <path d="M222.404 267.113L200.518 254.482C197.949 253.01 197.949 250.596 200.518 249.113L222.415 236.47C223.858 235.744 225.45 235.366 227.065 235.366C228.68 235.366 230.272 235.744 231.714 236.47L253.656 249.113C256.224 250.596 256.224 253.01 253.656 254.482L231.703 267.113C230.262 267.845 228.669 268.226 227.054 268.226C225.438 268.226 223.845 267.845 222.404 267.113ZM228.548 238.33C228.086 238.098 227.576 237.978 227.059 237.978C226.542 237.978 226.032 238.098 225.57 238.33L203.673 250.973C202.843 251.449 202.843 252.224 203.673 252.688L225.57 265.342C226.032 265.574 226.542 265.694 227.059 265.694C227.576 265.694 228.086 265.574 228.548 265.342L250.446 252.722C250.623 252.657 250.776 252.54 250.884 252.385C250.992 252.231 251.05 252.047 251.05 251.858C251.05 251.67 250.992 251.486 250.884 251.331C250.776 251.177 250.623 251.059 250.446 250.995L228.548 238.33Z" fill="url(#paint32_linear_182_149)"/>
  <path d="M253.656 254.482L231.703 267.113C230.262 267.845 228.669 268.226 227.053 268.226C225.438 268.226 223.845 267.845 222.404 267.113L200.518 254.482C200.04 254.258 199.621 253.929 199.291 253.518C198.961 253.108 198.729 252.627 198.613 252.113C198.589 252.746 198.758 253.371 199.098 253.905C199.438 254.439 199.934 254.857 200.518 255.102L222.415 267.744C223.856 268.476 225.449 268.857 227.064 268.857C228.68 268.857 230.273 268.476 231.714 267.744L253.656 255.102C254.24 254.857 254.735 254.439 255.075 253.905C255.415 253.371 255.584 252.746 255.56 252.113C255.446 252.628 255.215 253.109 254.884 253.52C254.554 253.931 254.134 254.26 253.656 254.482Z" fill="white"/>
  <path d="M223.025 266.77L201.127 254.128C198.913 252.844 198.913 250.807 201.127 249.478L223.025 236.836C224.272 236.198 225.653 235.866 227.054 235.866C228.455 235.866 229.836 236.198 231.084 236.836L252.981 249.478C255.195 250.762 255.195 252.799 252.981 254.128L231.084 266.77C229.836 267.408 228.455 267.74 227.054 267.74C225.653 267.74 224.272 267.408 223.025 266.77ZM229.158 237.987C228.506 237.654 227.785 237.48 227.054 237.48C226.323 237.48 225.602 237.654 224.951 237.987L203.053 250.629C202.798 250.715 202.576 250.879 202.419 251.097C202.261 251.316 202.177 251.578 202.177 251.847C202.177 252.116 202.261 252.379 202.419 252.597C202.576 252.816 202.798 252.98 203.053 253.065L224.951 265.707C225.606 266.035 226.328 266.205 227.06 266.205C227.792 266.205 228.514 266.035 229.169 265.707L251.066 253.065C251.321 252.98 251.543 252.816 251.701 252.597C251.858 252.379 251.942 252.116 251.942 251.847C251.942 251.578 251.858 251.316 251.701 251.097C251.543 250.879 251.321 250.715 251.066 250.629L229.158 237.987Z" fill="url(#paint33_linear_182_149)"/>
  <path style="mix-blend-mode:lighten" opacity="0.5" d="M251.055 251.781V173.679H203.053V251.781C203.066 251.969 203.131 252.151 203.24 252.305C203.35 252.459 203.499 252.581 203.673 252.655L225.571 265.309C226.033 265.541 226.543 265.661 227.06 265.661C227.576 265.661 228.086 265.541 228.549 265.309L250.446 252.722C250.622 252.633 250.771 252.499 250.878 252.334C250.985 252.169 251.046 251.978 251.055 251.781Z" fill="url(#paint34_linear_182_149)"/>
  <path d="M324.508 256.729C323.07 256.755 321.65 256.416 320.379 255.744L298.481 243.102C297.993 242.877 297.573 242.527 297.264 242.088C296.955 241.648 296.768 241.135 296.721 240.6C296.766 240.065 296.953 239.553 297.263 239.115C297.572 238.677 297.993 238.33 298.481 238.109L320.379 225.466C321.66 224.822 323.074 224.486 324.508 224.486C325.942 224.486 327.356 224.822 328.637 225.466L350.535 238.109C351.025 238.328 351.447 238.675 351.756 239.113C352.066 239.551 352.252 240.065 352.295 240.6C352.251 241.136 352.064 241.65 351.755 242.09C351.445 242.53 351.024 242.879 350.535 243.102L328.604 255.744C327.343 256.411 325.934 256.75 324.508 256.729ZM324.508 224.857C323.14 224.834 321.787 225.157 320.578 225.798L298.647 238.441C298.21 238.633 297.833 238.941 297.556 239.331C297.279 239.721 297.113 240.178 297.075 240.655C297.114 241.131 297.281 241.588 297.557 241.978C297.834 242.368 298.211 242.676 298.647 242.869L320.545 255.512C321.765 256.128 323.113 256.45 324.48 256.45C325.848 256.45 327.196 256.128 328.416 255.512L350.313 242.758C350.749 242.563 351.124 242.255 351.401 241.865C351.677 241.476 351.844 241.02 351.885 240.544C351.845 240.068 351.678 239.612 351.402 239.222C351.125 238.833 350.749 238.525 350.313 238.33L328.416 225.688C327.203 225.09 325.859 224.805 324.508 224.857Z" fill="#41AFFF"/>
  <path d="M324.508 231.384C323.07 231.41 321.65 231.071 320.379 230.399L298.481 217.756C297.993 217.531 297.573 217.182 297.264 216.742C296.955 216.303 296.768 215.789 296.721 215.254C296.766 214.72 296.953 214.207 297.263 213.769C297.572 213.332 297.993 212.984 298.481 212.763L320.379 200.121C321.66 199.476 323.074 199.141 324.508 199.141C325.942 199.141 327.356 199.476 328.637 200.121L350.535 212.763C351.025 212.982 351.447 213.329 351.756 213.767C352.066 214.206 352.252 214.719 352.295 215.254C352.251 215.79 352.064 216.304 351.755 216.744C351.445 217.184 351.024 217.533 350.535 217.756L328.604 230.399C327.343 231.065 325.934 231.404 324.508 231.384ZM324.508 199.512C323.14 199.488 321.787 199.812 320.578 200.453L298.647 213.095C298.21 213.288 297.833 213.596 297.556 213.985C297.279 214.375 297.113 214.833 297.075 215.31C297.114 215.786 297.281 216.243 297.557 216.633C297.834 217.022 298.211 217.33 298.647 217.524L320.545 230.166C321.765 230.783 323.113 231.104 324.48 231.104C325.848 231.104 327.196 230.783 328.416 230.166L350.313 217.413C350.749 217.217 351.124 216.909 351.401 216.52C351.677 216.131 351.844 215.674 351.885 215.199C351.845 214.723 351.678 214.266 351.402 213.877C351.125 213.487 350.749 213.179 350.313 212.985L328.416 200.342C327.203 199.745 325.859 199.46 324.508 199.512Z" fill="url(#paint35_linear_182_149)"/>
  <path d="M324.508 223.634C323.07 223.66 321.65 223.321 320.379 222.649L298.481 210.007C297.993 209.782 297.573 209.432 297.264 208.993C296.955 208.553 296.768 208.04 296.721 207.505C296.766 206.97 296.953 206.458 297.263 206.02C297.572 205.582 297.993 205.235 298.481 205.014L320.379 192.371C321.66 191.727 323.074 191.391 324.508 191.391C325.942 191.391 327.356 191.727 328.637 192.371L350.535 205.014C351.025 205.233 351.447 205.58 351.756 206.018C352.066 206.456 352.252 206.97 352.295 207.505C352.251 208.041 352.064 208.555 351.755 208.995C351.445 209.435 351.024 209.784 350.535 210.007L328.604 222.649C327.343 223.316 325.934 223.655 324.508 223.634ZM324.508 191.763C323.14 191.739 321.787 192.063 320.578 192.704L298.647 205.346C298.21 205.539 297.833 205.846 297.556 206.236C297.279 206.626 297.113 207.083 297.075 207.56C297.114 208.036 297.281 208.494 297.557 208.883C297.834 209.273 298.211 209.581 298.647 209.774L320.545 222.417C321.765 223.034 323.113 223.355 324.48 223.355C325.848 223.355 327.196 223.034 328.416 222.417L350.313 209.664C350.749 209.468 351.124 209.16 351.401 208.77C351.677 208.381 351.844 207.925 351.885 207.449C351.845 206.973 351.678 206.517 351.402 206.127C351.125 205.738 350.749 205.43 350.313 205.235L328.416 192.593C327.203 191.996 325.859 191.71 324.508 191.763Z" fill="url(#paint36_linear_182_149)"/>
  <path d="M324.508 215.885C323.07 215.911 321.65 215.572 320.379 214.9L298.481 202.257C297.993 202.033 297.573 201.683 297.264 201.244C296.955 200.804 296.768 200.291 296.721 199.756C296.766 199.221 296.953 198.709 297.263 198.271C297.572 197.833 297.993 197.486 298.481 197.265L320.379 184.622C321.66 183.978 323.074 183.642 324.508 183.642C325.942 183.642 327.356 183.978 328.637 184.622L350.535 197.265C351.025 197.484 351.447 197.83 351.756 198.269C352.066 198.707 352.252 199.221 352.295 199.756C352.251 200.291 352.064 200.806 351.755 201.246C351.445 201.685 351.024 202.035 350.535 202.257L328.604 214.9C327.343 215.567 325.934 215.906 324.508 215.885ZM324.508 184.013C323.14 183.99 321.787 184.313 320.578 184.954L298.647 197.597C298.21 197.789 297.833 198.097 297.556 198.487C297.279 198.877 297.113 199.334 297.075 199.811C297.114 200.287 297.281 200.744 297.557 201.134C297.834 201.524 298.211 201.831 298.647 202.025L320.545 214.667C321.765 215.284 323.113 215.606 324.48 215.606C325.848 215.606 327.196 215.284 328.416 214.667L350.313 201.914C350.749 201.719 351.124 201.41 351.401 201.021C351.677 200.632 351.844 200.176 351.885 199.7C351.845 199.224 351.678 198.768 351.402 198.378C351.125 197.989 350.749 197.681 350.313 197.486L328.416 184.844C327.203 184.246 325.859 183.961 324.508 184.013Z" fill="url(#paint37_linear_182_149)"/>
  <path d="M324.508 208.136C323.07 208.162 321.65 207.823 320.379 207.151L298.481 194.508C297.993 194.284 297.573 193.934 297.264 193.494C296.955 193.055 296.768 192.542 296.721 192.006C296.766 191.472 296.953 190.959 297.263 190.521C297.572 190.084 297.993 189.736 298.481 189.515L320.379 176.873C321.66 176.228 323.074 175.893 324.508 175.893C325.942 175.893 327.356 176.228 328.637 176.873L350.535 189.515C351.025 189.734 351.447 190.081 351.756 190.519C352.066 190.958 352.252 191.471 352.295 192.006C352.251 192.542 352.064 193.057 351.755 193.496C351.445 193.936 351.024 194.285 350.535 194.508L328.604 207.151C327.343 207.817 325.934 208.156 324.508 208.136ZM324.508 176.264C323.14 176.24 321.787 176.564 320.578 177.205L298.647 189.848C298.21 190.04 297.833 190.348 297.556 190.738C297.279 191.127 297.113 191.585 297.075 192.062C297.114 192.538 297.281 192.995 297.557 193.385C297.834 193.774 298.211 194.082 298.647 194.276L320.545 206.918C321.765 207.535 323.113 207.856 324.48 207.856C325.848 207.856 327.196 207.535 328.416 206.918L350.313 194.165C350.749 193.969 351.124 193.661 351.401 193.272C351.677 192.883 351.844 192.427 351.885 191.951C351.845 191.475 351.678 191.018 351.402 190.629C351.125 190.239 350.749 189.931 350.313 189.737L328.416 177.094C327.203 176.497 325.859 176.212 324.508 176.264Z" fill="url(#paint38_linear_182_149)"/>
  <path d="M324.508 200.387C323.07 200.413 321.65 200.074 320.379 199.401L298.481 186.759C297.993 186.534 297.573 186.184 297.264 185.745C296.955 185.306 296.768 184.792 296.721 184.257C296.766 183.723 296.953 183.21 297.263 182.772C297.572 182.334 297.993 181.987 298.481 181.766L320.379 169.124C321.66 168.479 323.074 168.143 324.508 168.143C325.942 168.143 327.356 168.479 328.637 169.124L350.535 181.766C351.025 181.985 351.447 182.332 351.756 182.77C352.066 183.208 352.252 183.722 352.295 184.257C352.251 184.793 352.064 185.307 351.755 185.747C351.445 186.187 351.024 186.536 350.535 186.759L328.604 199.401C327.343 200.068 325.934 200.407 324.508 200.387ZM324.508 168.515C323.14 168.491 321.787 168.815 320.578 169.456L298.647 182.098C298.21 182.291 297.833 182.598 297.556 182.988C297.279 183.378 297.113 183.836 297.075 184.312C297.114 184.789 297.281 185.246 297.557 185.635C297.834 186.025 298.211 186.333 298.647 186.526L320.545 199.169C321.765 199.786 323.113 200.107 324.48 200.107C325.848 200.107 327.196 199.786 328.416 199.169L350.313 186.416C350.749 186.22 351.124 185.912 351.401 185.522C351.677 185.133 351.844 184.677 351.885 184.202C351.845 183.726 351.678 183.269 351.402 182.88C351.125 182.49 350.749 182.182 350.313 181.987L328.416 169.345C327.203 168.748 325.859 168.462 324.508 168.515Z" fill="url(#paint39_linear_182_149)"/>
  <path d="M324.508 192.637C323.07 192.663 321.65 192.324 320.379 191.652L298.481 179.01C297.993 178.785 297.573 178.435 297.264 177.996C296.955 177.556 296.768 177.043 296.721 176.508C296.766 175.973 296.953 175.461 297.263 175.023C297.572 174.585 297.993 174.238 298.481 174.017L320.379 161.374C321.66 160.73 323.074 160.394 324.508 160.394C325.942 160.394 327.356 160.73 328.637 161.374L350.535 174.017C351.025 174.236 351.447 174.582 351.756 175.021C352.066 175.459 352.252 175.973 352.295 176.508C352.251 177.044 352.064 177.558 351.755 177.998C351.445 178.438 351.024 178.787 350.535 179.01L328.604 191.652C327.343 192.319 325.934 192.658 324.508 192.637ZM324.508 160.765C323.14 160.742 321.787 161.065 320.578 161.706L298.647 174.349C298.21 174.541 297.833 174.849 297.556 175.239C297.279 175.629 297.113 176.086 297.075 176.563C297.114 177.039 297.281 177.496 297.557 177.886C297.834 178.276 298.211 178.583 298.647 178.777L320.545 191.419C321.765 192.036 323.113 192.358 324.48 192.358C325.848 192.358 327.196 192.036 328.416 191.419L350.313 178.666C350.749 178.471 351.124 178.162 351.401 177.773C351.677 177.384 351.844 176.928 351.885 176.452C351.845 175.976 351.678 175.52 351.402 175.13C351.125 174.741 350.749 174.433 350.313 174.238L328.416 161.596C327.203 160.998 325.859 160.713 324.508 160.765Z" fill="url(#paint40_linear_182_149)"/>
  <path d="M324.508 184.888C323.07 184.914 321.65 184.575 320.379 183.903L298.481 171.26C297.993 171.036 297.573 170.686 297.264 170.246C296.955 169.807 296.768 169.293 296.721 168.758C296.766 168.224 296.953 167.711 297.263 167.273C297.572 166.836 297.993 166.488 298.481 166.267L320.379 153.625C321.66 152.98 323.074 152.645 324.508 152.645C325.942 152.645 327.356 152.98 328.637 153.625L350.535 166.267C351.025 166.486 351.447 166.833 351.756 167.271C352.066 167.71 352.252 168.223 352.295 168.758C352.251 169.294 352.064 169.809 351.755 170.248C351.445 170.688 351.024 171.037 350.535 171.26L328.604 183.903C327.343 184.569 325.934 184.908 324.508 184.888ZM324.508 153.016C323.14 152.992 321.787 153.316 320.578 153.957L298.647 166.599C298.21 166.792 297.833 167.1 297.556 167.489C297.279 167.879 297.113 168.337 297.075 168.814C297.114 169.29 297.281 169.747 297.557 170.137C297.834 170.526 298.211 170.834 298.647 171.028L320.545 183.67C321.765 184.287 323.113 184.608 324.48 184.608C325.848 184.608 327.196 184.287 328.416 183.67L350.313 170.917C350.749 170.721 351.124 170.413 351.401 170.024C351.677 169.635 351.844 169.178 351.885 168.703C351.845 168.227 351.678 167.77 351.402 167.381C351.125 166.991 350.749 166.683 350.313 166.489L328.416 153.846C327.203 153.249 325.859 152.964 324.508 153.016Z" fill="url(#paint41_linear_182_149)"/>
  <path opacity="0.4" d="M352.948 235.751V228.256L351.575 227.492C351.188 229.828 348.431 231.378 346.129 231.699L330.442 240.865L323.589 243.345L301.736 232.064L302.234 231.776C300.363 230.902 299.367 228.898 298.349 227.083L296.876 227.957L296.002 228.201V235.828C296.06 236.406 296.268 236.958 296.606 237.43C296.944 237.902 297.4 238.277 297.928 238.518L319.825 251.161C321.266 251.892 322.859 252.273 324.475 252.273C326.091 252.273 327.684 251.892 329.124 251.161L351.077 238.518C351.598 238.282 352.049 237.915 352.386 237.454C352.724 236.992 352.936 236.451 353.003 235.884V235.751H352.948Z" fill="#41AFFF"/>
  <path d="M352.948 229.086V224.127L351.575 223.363C351.188 225.699 348.431 227.249 346.129 227.57L330.442 236.747L323.589 239.216L301.736 227.935L302.234 227.647C300.363 226.773 299.367 224.78 298.349 222.953L296.876 223.828L296.002 224.082V229.164C296.06 229.741 296.268 230.294 296.606 230.766C296.944 231.238 297.4 231.613 297.928 231.854L319.825 244.496C321.268 245.223 322.86 245.601 324.475 245.601C326.09 245.601 327.682 245.223 329.124 244.496L351.077 231.854C351.599 231.617 352.051 231.248 352.389 230.785C352.726 230.321 352.938 229.778 353.003 229.208V229.086H352.948Z" fill="url(#paint42_linear_182_149)"/>
  <path d="M319.825 239.437L297.939 226.806C295.37 225.333 295.37 222.92 297.939 221.437L319.836 208.794C321.278 208.068 322.871 207.69 324.486 207.69C326.1 207.69 327.693 208.068 329.135 208.794L351.077 221.437C353.645 222.92 353.645 225.333 351.077 226.806L329.124 239.437C327.683 240.169 326.09 240.55 324.475 240.55C322.859 240.55 321.266 240.169 319.825 239.437ZM325.969 210.654C325.507 210.422 324.997 210.302 324.48 210.302C323.963 210.302 323.453 210.422 322.991 210.654L301.094 223.297C300.263 223.773 300.263 224.547 301.094 225.012L322.991 237.666C323.453 237.898 323.963 238.018 324.48 238.018C324.997 238.018 325.507 237.898 325.969 237.666L347.866 225.046C348.044 224.981 348.197 224.864 348.305 224.709C348.413 224.555 348.471 224.371 348.471 224.182C348.471 223.994 348.413 223.81 348.305 223.655C348.197 223.501 348.044 223.383 347.866 223.319L325.969 210.654Z" fill="url(#paint43_linear_182_149)"/>
  <path d="M351.078 226.806L329.125 239.437C327.684 240.168 326.091 240.549 324.475 240.549C322.859 240.549 321.267 240.168 319.826 239.437L297.939 226.806C297.462 226.582 297.043 226.252 296.713 225.842C296.383 225.431 296.151 224.951 296.035 224.437C296.011 225.069 296.18 225.695 296.52 226.229C296.86 226.763 297.355 227.18 297.939 227.426L319.837 240.068C321.278 240.799 322.871 241.181 324.486 241.181C326.102 241.181 327.695 240.799 329.136 240.068L351.078 227.426C351.661 227.18 352.157 226.763 352.497 226.229C352.837 225.695 353.006 225.069 352.982 224.437C352.868 224.951 352.636 225.433 352.306 225.843C351.976 226.254 351.556 226.584 351.078 226.806Z" fill="white"/>
  <path d="M320.445 239.094L298.548 226.452C296.334 225.167 296.334 223.13 298.548 221.802L320.445 209.16C321.693 208.522 323.074 208.19 324.475 208.19C325.876 208.19 327.257 208.522 328.505 209.16L350.402 221.802C352.616 223.086 352.616 225.123 350.402 226.452L328.505 239.094C327.257 239.732 325.876 240.064 324.475 240.064C323.074 240.064 321.693 239.732 320.445 239.094ZM326.578 210.311C325.927 209.978 325.206 209.804 324.475 209.804C323.744 209.804 323.023 209.978 322.372 210.311L300.474 222.953C300.219 223.039 299.997 223.202 299.84 223.421C299.682 223.639 299.598 223.902 299.598 224.171C299.598 224.44 299.682 224.703 299.84 224.921C299.997 225.14 300.219 225.303 300.474 225.389L322.372 238.031C323.026 238.359 323.748 238.529 324.481 238.529C325.213 238.529 325.935 238.359 326.589 238.031L348.487 225.389C348.742 225.303 348.964 225.14 349.121 224.921C349.279 224.703 349.363 224.44 349.363 224.171C349.363 223.902 349.279 223.639 349.121 223.421C348.964 223.202 348.742 223.039 348.487 222.953L326.578 210.311Z" fill="url(#paint44_linear_182_149)"/>
  <path style="mix-blend-mode:lighten" opacity="0.5" d="M348.476 224.105V146.003H300.474V224.105C300.487 224.293 300.552 224.475 300.661 224.629C300.771 224.783 300.92 224.904 301.094 224.979L322.991 237.633C323.454 237.864 323.963 237.985 324.48 237.985C324.997 237.985 325.507 237.864 325.969 237.633L347.867 225.046C348.043 224.957 348.192 224.823 348.299 224.658C348.406 224.492 348.467 224.301 348.476 224.105Z" fill="url(#paint45_linear_182_149)"/>
  <path opacity="0.4" d="M153.845 189.332C140.494 189.332 127.143 186.399 116.97 180.476C107.084 174.764 101.648 167.191 101.648 159.077C101.648 150.962 107.084 143.379 116.97 137.678C137.306 125.932 170.396 125.932 190.721 137.678C200.607 143.379 206.054 150.962 206.054 159.077C206.054 167.191 200.607 174.764 190.721 180.476L190.633 180.31L190.721 180.476C180.558 186.399 167.207 189.332 153.845 189.332ZM153.845 129.308C140.561 129.308 127.276 132.22 117.169 138.065C107.405 143.7 102.025 151.184 102.025 159.099C102.025 167.014 107.405 174.531 117.169 180.133C137.395 191.812 170.307 191.812 190.533 180.133C200.297 174.498 205.666 167.014 205.666 159.099C205.666 151.184 200.297 143.667 190.533 138.065C180.414 132.22 167.13 129.308 153.845 129.308Z" fill="#41AFFF"/>
  <path opacity="0.2" d="M153.857 197.436C136.908 197.436 119.959 193.705 107.051 186.255C94.5191 179.015 87.6111 169.383 87.6111 159.132C87.6111 148.881 94.5191 139.205 107.051 131.998C132.856 117.109 174.846 117.109 200.64 131.998C213.183 139.239 220.08 148.87 220.08 159.132C220.08 169.395 213.183 179.059 200.64 186.255C187.743 193.705 170.795 197.436 153.857 197.436ZM153.857 121.205C136.985 121.205 120.103 124.913 107.261 132.331C94.8512 139.504 88.0097 149.014 88.0097 159.132C88.0097 169.251 94.8512 178.76 107.261 185.923C132.956 200.757 174.791 200.768 200.463 185.923C212.873 178.76 219.715 169.24 219.715 159.132C219.715 149.025 212.873 139.504 200.463 132.331C187.555 124.913 170.728 121.205 153.846 121.205H153.857Z" fill="#41AFFF"/>
  <g filter="url(#filter3_d_182_149)">
  <path d="M153.846 182.978C143.329 182.978 132.812 180.664 124.786 176.037C117.037 171.542 112.697 165.542 112.697 159.154C112.697 152.767 116.992 146.766 124.786 142.261C140.816 133.017 166.854 133.017 182.906 142.261C190.711 146.766 195.006 152.767 195.006 159.154C195.006 165.542 190.711 171.542 182.906 176.037L182.817 175.871L182.906 176.037C174.902 180.642 164.374 182.978 153.846 182.978ZM153.846 135.707C143.395 135.707 132.934 137.999 124.985 142.593C117.302 147.021 113.084 152.911 113.084 159.199C113.084 165.487 117.302 171.321 124.985 175.749C140.905 184.948 166.798 184.948 182.718 175.749C190.389 171.321 194.618 165.442 194.618 159.199C194.618 152.955 190.389 147.021 182.718 142.593C174.758 137.976 164.307 135.685 153.846 135.685V135.707Z" fill="#41AFFF"/>
  </g>
  <path opacity="0.4" d="M101.859 222.599L41.0597 187.495C40.6505 187.259 40.3106 186.919 40.0743 186.51C39.838 186.101 39.7136 185.637 39.7136 185.164C39.7136 184.692 39.838 184.228 40.0743 183.819C40.3106 183.41 40.6505 183.07 41.0597 182.834L50.3479 177.432C51.869 176.547 53.5975 176.081 55.3573 176.081C57.1171 176.081 58.8454 176.547 60.3666 177.432L121.132 212.536C121.542 212.77 121.882 213.109 122.119 213.517C122.355 213.925 122.48 214.389 122.48 214.861C122.48 215.333 122.355 215.796 122.119 216.204C121.882 216.613 121.542 216.951 121.132 217.186L111.855 222.599C110.333 223.469 108.61 223.926 106.857 223.926C105.104 223.926 103.381 223.469 101.859 222.599Z" fill="#00080E"/>
  <path d="M71.426 186.709L61.6951 181.096L63.6324 179.978L73.3633 185.59L71.426 186.709Z" fill="#41AFFF"/>
  <path d="M98.8589 202.949L95.8699 201.222L97.8072 200.104L100.796 201.831L98.8589 202.949Z" fill="#41AFFF"/>
  <path d="M77.061 190.052L74.072 188.325L76.0094 187.207L78.9984 188.934L77.061 190.052Z" fill="#41AFFF"/>
  <path d="M106.873 215.602C105.074 215.605 103.305 215.132 101.748 214.23L40.9488 179.136C40.5061 178.881 40.1388 178.513 39.8842 178.069C39.6295 177.626 39.4965 177.124 39.4986 176.612C39.495 176.102 39.6275 175.601 39.8824 175.159C40.1373 174.717 40.5054 174.351 40.9488 174.099L50.237 168.686C51.794 167.788 53.5597 167.316 55.357 167.316C57.1544 167.316 58.9201 167.788 60.4771 168.686L121.276 203.79C121.722 204.044 122.092 204.411 122.349 204.854C122.605 205.298 122.74 205.802 122.737 206.314C122.739 206.825 122.604 207.327 122.347 207.769C122.09 208.211 121.721 208.576 121.276 208.827L111.999 214.23C110.442 215.132 108.673 215.605 106.873 215.602ZM55.3515 167.756C53.6295 167.757 51.9383 168.212 50.4473 169.073L41.1703 174.476C40.7918 174.689 40.4773 174.999 40.2593 175.375C40.0413 175.751 39.9277 176.178 39.9304 176.612C39.9277 177.047 40.0413 177.474 40.2593 177.849C40.4773 178.225 40.7918 178.536 41.1703 178.749L101.969 213.853C103.461 214.713 105.152 215.166 106.873 215.166C108.595 215.166 110.286 214.713 111.778 213.853L121.055 208.451C121.432 208.237 121.746 207.926 121.964 207.551C122.182 207.175 122.296 206.748 122.295 206.314C122.296 205.879 122.182 205.451 121.964 205.074C121.746 204.696 121.432 204.383 121.055 204.167L60.2446 169.073C58.7581 168.211 57.0701 167.756 55.3515 167.756Z" fill="#41AFFF"/>
  <defs>
  <filter id="filter0_d_182_149" x="267.375" y="105.151" width="47.6775" height="44.4402" filterUnits="userSpaceOnUse" color-interpolation-filters="sRGB">
  <feFlood flood-opacity="0" result="BackgroundImageFix"/>
  <feColorMatrix in="SourceAlpha" type="matrix" values="0 0 0 0 0 0 0 0 0 0 0 0 0 0 0 0 0 0 127 0" result="hardAlpha"/>
  <feOffset/>
  <feGaussianBlur stdDeviation="10"/>
  <feComposite in2="hardAlpha" operator="out"/>
  <feColorMatrix type="matrix" values="0 0 0 0 0.254167 0 0 0 0 0.68675 0 0 0 0 1 0 0 0 1 0"/>
  <feBlend mode="normal" in2="BackgroundImageFix" result="effect1_dropShadow_182_149"/>
  <feBlend mode="normal" in="SourceGraphic" in2="effect1_dropShadow_182_149" result="shape"/>
  </filter>
  <filter id="filter1_d_182_149" x="246.895" y="93.3291" width="57.7998" height="50.2825" filterUnits="userSpaceOnUse" color-interpolation-filters="sRGB">
  <feFlood flood-opacity="0" result="BackgroundImageFix"/>
  <feColorMatrix in="SourceAlpha" type="matrix" values="0 0 0 0 0 0 0 0 0 0 0 0 0 0 0 0 0 0 127 0" result="hardAlpha"/>
  <feOffset/>
  <feGaussianBlur stdDeviation="10"/>
  <feComposite in2="hardAlpha" operator="out"/>
  <feColorMatrix type="matrix" values="0 0 0 0 0.254167 0 0 0 0 0.68675 0 0 0 0 1 0 0 0 1 0"/>
  <feBlend mode="normal" in2="BackgroundImageFix" result="effect1_dropShadow_182_149"/>
  <feBlend mode="normal" in="SourceGraphic" in2="effect1_dropShadow_182_149" result="shape"/>
  </filter>
  <filter id="filter2_d_182_149" x="186.229" y="56.4977" width="57.7998" height="50.2825" filterUnits="userSpaceOnUse" color-interpolation-filters="sRGB">
  <feFlood flood-opacity="0" result="BackgroundImageFix"/>
  <feColorMatrix in="SourceAlpha" type="matrix" values="0 0 0 0 0 0 0 0 0 0 0 0 0 0 0 0 0 0 127 0" result="hardAlpha"/>
  <feOffset/>
  <feGaussianBlur stdDeviation="10"/>
  <feComposite in2="hardAlpha" operator="out"/>
  <feColorMatrix type="matrix" values="0 0 0 0 0.254167 0 0 0 0 0.68675 0 0 0 0 1 0 0 0 1 0"/>
  <feBlend mode="normal" in2="BackgroundImageFix" result="effect1_dropShadow_182_149"/>
  <feBlend mode="normal" in="SourceGraphic" in2="effect1_dropShadow_182_149" result="shape"/>
  </filter>
  <filter id="filter3_d_182_149" x="108.697" y="131.328" width="90.3088" height="55.65" filterUnits="userSpaceOnUse" color-interpolation-filters="sRGB">
  <feFlood flood-opacity="0" result="BackgroundImageFix"/>
  <feColorMatrix in="SourceAlpha" type="matrix" values="0 0 0 0 0 0 0 0 0 0 0 0 0 0 0 0 0 0 127 0" result="hardAlpha"/>
  <feOffset/>
  <feGaussianBlur stdDeviation="2"/>
  <feComposite in2="hardAlpha" operator="out"/>
  <feColorMatrix type="matrix" values="0 0 0 0 0.254167 0 0 0 0 0.68675 0 0 0 0 1 0 0 0 1 0"/>
  <feBlend mode="normal" in2="BackgroundImageFix" result="effect1_dropShadow_182_149"/>
  <feBlend mode="normal" in="SourceGraphic" in2="effect1_dropShadow_182_149" result="shape"/>
  </filter>
  <linearGradient id="paint0_linear_182_149" x1="0.630287" y1="169.361" x2="321.995" y2="169.361" gradientUnits="userSpaceOnUse">
  <stop stop-color="#BCBEFF"/>
  <stop offset="1" stop-color="#5761D7"/>
  </linearGradient>
  <linearGradient id="paint1_linear_182_149" x1="209.098" y1="67.4023" x2="113.892" y2="247.851" gradientUnits="userSpaceOnUse">
  <stop stop-color="#0F054C"/>
  <stop offset="1" stop-color="#1F0E31"/>
  </linearGradient>
  <linearGradient id="paint2_linear_182_149" x1="206.076" y1="214.828" x2="116.372" y2="95.7758" gradientUnits="userSpaceOnUse">
  <stop stop-color="#41AFFF"/>
  <stop offset="1" stop-color="#0F054C"/>
  </linearGradient>
  <linearGradient id="paint3_linear_182_149" x1="206.076" y1="206.621" x2="116.372" y2="87.5695" gradientUnits="userSpaceOnUse">
  <stop stop-color="#41AFFF"/>
  <stop offset="1" stop-color="#0F054C"/>
  </linearGradient>
  <linearGradient id="paint4_linear_182_149" x1="206.076" y1="198.415" x2="116.372" y2="79.3632" gradientUnits="userSpaceOnUse">
  <stop stop-color="#41AFFF"/>
  <stop offset="1" stop-color="#0F054C"/>
  </linearGradient>
  <radialGradient id="paint5_radial_182_149" cx="0" cy="0" r="1" gradientUnits="userSpaceOnUse" gradientTransform="translate(153.336 158.335) scale(251.532 251.532)">
  <stop stop-color="#41AFFF"/>
  <stop offset="1" stop-color="#0F054C"/>
  </radialGradient>
  <linearGradient id="paint6_linear_182_149" x1="302.257" y1="248.161" x2="347.435" y2="274.243" gradientUnits="userSpaceOnUse">
  <stop stop-color="#BCBEFF"/>
  <stop offset="0.23" stop-color="#AAADF8"/>
  <stop offset="0.68" stop-color="#7C83E5"/>
  <stop offset="1" stop-color="#5761D7"/>
  </linearGradient>
  <linearGradient id="paint7_linear_182_149" x1="296.588" y1="258.024" x2="353.534" y2="258.024" gradientUnits="userSpaceOnUse">
  <stop stop-color="#E9E9FD"/>
  <stop offset="0.36" stop-color="#D3D2F9"/>
  <stop offset="0.71" stop-color="#C5C4F7"/>
  <stop offset="1" stop-color="#C0BFF6"/>
  </linearGradient>
  <linearGradient id="paint8_linear_182_149" x1="204.758" y1="277.663" x2="249.937" y2="303.757" gradientUnits="userSpaceOnUse">
  <stop stop-color="#BCBEFF"/>
  <stop offset="0.23" stop-color="#AAADF8"/>
  <stop offset="0.68" stop-color="#7C83E5"/>
  <stop offset="1" stop-color="#5761D7"/>
  </linearGradient>
  <linearGradient id="paint9_linear_182_149" x1="199.09" y1="287.527" x2="256.037" y2="287.527" gradientUnits="userSpaceOnUse">
  <stop stop-color="#E9E9FD"/>
  <stop offset="0.36" stop-color="#D3D2F9"/>
  <stop offset="0.71" stop-color="#C5C4F7"/>
  <stop offset="1" stop-color="#C0BFF6"/>
  </linearGradient>
  <linearGradient id="paint10_linear_182_149" x1="17.4791" y1="101.665" x2="62.6576" y2="127.747" gradientUnits="userSpaceOnUse">
  <stop stop-color="#BCBEFF"/>
  <stop offset="0.23" stop-color="#AAADF8"/>
  <stop offset="0.68" stop-color="#7C83E5"/>
  <stop offset="1" stop-color="#5761D7"/>
  </linearGradient>
  <linearGradient id="paint11_linear_182_149" x1="11.8112" y1="111.529" x2="68.7576" y2="111.529" gradientUnits="userSpaceOnUse">
  <stop stop-color="#E9E9FD"/>
  <stop offset="0.36" stop-color="#D3D2F9"/>
  <stop offset="0.71" stop-color="#C5C4F7"/>
  <stop offset="1" stop-color="#C0BFF6"/>
  </linearGradient>
  <linearGradient id="paint12_linear_182_149" x1="20.1918" y1="67.4909" x2="60.4772" y2="90.7499" gradientUnits="userSpaceOnUse">
  <stop offset="0.24" stop-color="#5761D7"/>
  <stop offset="0.39" stop-color="#7A82E5"/>
  <stop offset="0.55" stop-color="#979CF0"/>
  <stop offset="0.7" stop-color="#ACAFF8"/>
  <stop offset="0.85" stop-color="#B8BAFD"/>
  <stop offset="1" stop-color="#BCBEFF"/>
  </linearGradient>
  <linearGradient id="paint13_linear_182_149" x1="40.3178" y1="54.1178" x2="40.3178" y2="86.3623" gradientUnits="userSpaceOnUse">
  <stop stop-color="#41AFFF" stop-opacity="0"/>
  <stop offset="1" stop-color="#41AFFF"/>
  </linearGradient>
  <linearGradient id="paint14_linear_182_149" x1="40.3178" y1="46.3685" x2="40.3178" y2="78.613" gradientUnits="userSpaceOnUse">
  <stop stop-color="#41AFFF" stop-opacity="0"/>
  <stop offset="1" stop-color="#41AFFF"/>
  </linearGradient>
  <linearGradient id="paint15_linear_182_149" x1="40.3178" y1="38.6191" x2="40.3178" y2="70.8636" gradientUnits="userSpaceOnUse">
  <stop stop-color="#41AFFF" stop-opacity="0"/>
  <stop offset="1" stop-color="#41AFFF"/>
  </linearGradient>
  <linearGradient id="paint16_linear_182_149" x1="40.3178" y1="30.8699" x2="40.3178" y2="63.1143" gradientUnits="userSpaceOnUse">
  <stop stop-color="#41AFFF" stop-opacity="0"/>
  <stop offset="1" stop-color="#41AFFF"/>
  </linearGradient>
  <linearGradient id="paint17_linear_182_149" x1="40.3178" y1="23.1205" x2="40.3178" y2="55.3649" gradientUnits="userSpaceOnUse">
  <stop stop-color="#41AFFF" stop-opacity="0"/>
  <stop offset="1" stop-color="#41AFFF"/>
  </linearGradient>
  <linearGradient id="paint18_linear_182_149" x1="40.3178" y1="15.3712" x2="40.3178" y2="47.6157" gradientUnits="userSpaceOnUse">
  <stop stop-color="#41AFFF" stop-opacity="0"/>
  <stop offset="1" stop-color="#41AFFF"/>
  </linearGradient>
  <linearGradient id="paint19_linear_182_149" x1="40.3178" y1="7.62183" x2="40.3178" y2="39.8663" gradientUnits="userSpaceOnUse">
  <stop stop-color="#41AFFF" stop-opacity="0"/>
  <stop offset="1" stop-color="#41AFFF"/>
  </linearGradient>
  <linearGradient id="paint20_linear_182_149" x1="17.4791" y1="69.24" x2="62.6576" y2="95.322" gradientUnits="userSpaceOnUse">
  <stop stop-color="#BCBEFF"/>
  <stop offset="0.23" stop-color="#AAADF8"/>
  <stop offset="0.68" stop-color="#7C83E5"/>
  <stop offset="1" stop-color="#5761D7"/>
  </linearGradient>
  <linearGradient id="paint21_linear_182_149" x1="11.811" y1="79.1038" x2="68.7574" y2="79.1038" gradientUnits="userSpaceOnUse">
  <stop stop-color="#E9E9FD"/>
  <stop offset="0.36" stop-color="#D3D2F9"/>
  <stop offset="0.71" stop-color="#C5C4F7"/>
  <stop offset="1" stop-color="#C0BFF6"/>
  </linearGradient>
  <linearGradient id="paint22_linear_182_149" x1="12.686" y1="79.1039" x2="67.8833" y2="79.1039" gradientUnits="userSpaceOnUse">
  <stop stop-color="#E9E9FD"/>
  <stop offset="0.36" stop-color="#D3D2F9"/>
  <stop offset="0.71" stop-color="#C5C4F7"/>
  <stop offset="1" stop-color="#C0BFF6"/>
  </linearGradient>
  <linearGradient id="paint23_linear_182_149" x1="40.2847" y1="92.964" x2="40.2847" y2="0.979614" gradientUnits="userSpaceOnUse">
  <stop stop-color="#41AFFF"/>
  <stop offset="1" stop-color="#41AFFF" stop-opacity="0"/>
  </linearGradient>
  <linearGradient id="paint24_linear_182_149" x1="227.087" y1="226.817" x2="227.087" y2="259.061" gradientUnits="userSpaceOnUse">
  <stop stop-color="#41AFFF" stop-opacity="0"/>
  <stop offset="1" stop-color="#41AFFF"/>
  </linearGradient>
  <linearGradient id="paint25_linear_182_149" x1="227.087" y1="219.068" x2="227.087" y2="251.312" gradientUnits="userSpaceOnUse">
  <stop stop-color="#41AFFF" stop-opacity="0"/>
  <stop offset="1" stop-color="#41AFFF"/>
  </linearGradient>
  <linearGradient id="paint26_linear_182_149" x1="227.087" y1="211.318" x2="227.087" y2="243.563" gradientUnits="userSpaceOnUse">
  <stop stop-color="#41AFFF" stop-opacity="0"/>
  <stop offset="1" stop-color="#41AFFF"/>
  </linearGradient>
  <linearGradient id="paint27_linear_182_149" x1="227.087" y1="203.569" x2="227.087" y2="235.813" gradientUnits="userSpaceOnUse">
  <stop stop-color="#41AFFF" stop-opacity="0"/>
  <stop offset="1" stop-color="#41AFFF"/>
  </linearGradient>
  <linearGradient id="paint28_linear_182_149" x1="227.087" y1="195.82" x2="227.087" y2="228.064" gradientUnits="userSpaceOnUse">
  <stop stop-color="#41AFFF" stop-opacity="0"/>
  <stop offset="1" stop-color="#41AFFF"/>
  </linearGradient>
  <linearGradient id="paint29_linear_182_149" x1="227.087" y1="188.07" x2="227.087" y2="220.315" gradientUnits="userSpaceOnUse">
  <stop stop-color="#41AFFF" stop-opacity="0"/>
  <stop offset="1" stop-color="#41AFFF"/>
  </linearGradient>
  <linearGradient id="paint30_linear_182_149" x1="227.087" y1="180.321" x2="227.087" y2="212.565" gradientUnits="userSpaceOnUse">
  <stop stop-color="#41AFFF" stop-opacity="0"/>
  <stop offset="1" stop-color="#41AFFF"/>
  </linearGradient>
  <linearGradient id="paint31_linear_182_149" x1="204.249" y1="241.939" x2="249.427" y2="268.021" gradientUnits="userSpaceOnUse">
  <stop stop-color="#BCBEFF"/>
  <stop offset="0.23" stop-color="#AAADF8"/>
  <stop offset="0.68" stop-color="#7C83E5"/>
  <stop offset="1" stop-color="#5761D7"/>
  </linearGradient>
  <linearGradient id="paint32_linear_182_149" x1="198.58" y1="251.803" x2="255.527" y2="251.803" gradientUnits="userSpaceOnUse">
  <stop stop-color="#E9E9FD"/>
  <stop offset="0.36" stop-color="#D3D2F9"/>
  <stop offset="0.71" stop-color="#C5C4F7"/>
  <stop offset="1" stop-color="#C0BFF6"/>
  </linearGradient>
  <linearGradient id="paint33_linear_182_149" x1="199.455" y1="251.803" x2="254.653" y2="251.803" gradientUnits="userSpaceOnUse">
  <stop stop-color="#E9E9FD"/>
  <stop offset="1" stop-color="#C0BFF6"/>
  </linearGradient>
  <linearGradient id="paint34_linear_182_149" x1="227.054" y1="265.663" x2="227.054" y2="173.679" gradientUnits="userSpaceOnUse">
  <stop stop-color="#41AFFF"/>
  <stop offset="1" stop-color="#41AFFF" stop-opacity="0"/>
  </linearGradient>
  <linearGradient id="paint35_linear_182_149" x1="324.508" y1="199.141" x2="324.508" y2="231.385" gradientUnits="userSpaceOnUse">
  <stop stop-color="#41AFFF" stop-opacity="0"/>
  <stop offset="1" stop-color="#41AFFF"/>
  </linearGradient>
  <linearGradient id="paint36_linear_182_149" x1="324.508" y1="191.391" x2="324.508" y2="223.636" gradientUnits="userSpaceOnUse">
  <stop stop-color="#41AFFF" stop-opacity="0"/>
  <stop offset="1" stop-color="#41AFFF"/>
  </linearGradient>
  <linearGradient id="paint37_linear_182_149" x1="324.508" y1="183.642" x2="324.508" y2="215.887" gradientUnits="userSpaceOnUse">
  <stop stop-color="#41AFFF" stop-opacity="0"/>
  <stop offset="1" stop-color="#41AFFF"/>
  </linearGradient>
  <linearGradient id="paint38_linear_182_149" x1="324.508" y1="175.893" x2="324.508" y2="208.137" gradientUnits="userSpaceOnUse">
  <stop stop-color="#41AFFF" stop-opacity="0"/>
  <stop offset="1" stop-color="#41AFFF"/>
  </linearGradient>
  <linearGradient id="paint39_linear_182_149" x1="324.508" y1="168.143" x2="324.508" y2="200.388" gradientUnits="userSpaceOnUse">
  <stop stop-color="#41AFFF" stop-opacity="0"/>
  <stop offset="1" stop-color="#41AFFF"/>
  </linearGradient>
  <linearGradient id="paint40_linear_182_149" x1="324.508" y1="160.394" x2="324.508" y2="192.639" gradientUnits="userSpaceOnUse">
  <stop stop-color="#41AFFF" stop-opacity="0"/>
  <stop offset="1" stop-color="#41AFFF"/>
  </linearGradient>
  <linearGradient id="paint41_linear_182_149" x1="324.508" y1="152.645" x2="324.508" y2="184.889" gradientUnits="userSpaceOnUse">
  <stop stop-color="#41AFFF" stop-opacity="0"/>
  <stop offset="1" stop-color="#41AFFF"/>
  </linearGradient>
  <linearGradient id="paint42_linear_182_149" x1="301.67" y1="214.263" x2="346.848" y2="240.345" gradientUnits="userSpaceOnUse">
  <stop stop-color="#BCBEFF"/>
  <stop offset="0.23" stop-color="#AAADF8"/>
  <stop offset="0.68" stop-color="#7C83E5"/>
  <stop offset="1" stop-color="#5761D7"/>
  </linearGradient>
  <linearGradient id="paint43_linear_182_149" x1="296.001" y1="224.127" x2="352.948" y2="224.127" gradientUnits="userSpaceOnUse">
  <stop stop-color="#E9E9FD"/>
  <stop offset="0.36" stop-color="#D3D2F9"/>
  <stop offset="0.71" stop-color="#C5C4F7"/>
  <stop offset="1" stop-color="#C0BFF6"/>
  </linearGradient>
  <linearGradient id="paint44_linear_182_149" x1="296.876" y1="224.127" x2="352.074" y2="224.127" gradientUnits="userSpaceOnUse">
  <stop stop-color="#E9E9FD"/>
  <stop offset="0.36" stop-color="#D3D2F9"/>
  <stop offset="0.71" stop-color="#C5C4F7"/>
  <stop offset="1" stop-color="#C0BFF6"/>
  </linearGradient>
  <linearGradient id="paint45_linear_182_149" x1="324.475" y1="237.987" x2="324.475" y2="146.003" gradientUnits="userSpaceOnUse">
  <stop stop-color="#41AFFF"/>
  <stop offset="1" stop-color="#41AFFF" stop-opacity="0"/>
  </linearGradient>
  </defs>
  </svg>
  