<svg width="428" height="318" viewBox="0 0 428 318" fill="none" xmlns="http://www.w3.org/2000/svg">
<path d="M305.238 249.063C308.149 249.134 311.03 248.467 313.613 247.125L423.758 183.534C425.983 182.23 427.18 180.459 427.18 178.473C427.18 176.14 425.433 173.783 422.394 172.024L212.358 50.7766C206.651 47.4864 198.001 47.1274 193.012 49.9869L82.8675 113.578C80.666 114.858 79.4456 116.629 79.4456 118.579C79.4456 120.912 81.1925 123.269 84.2314 125.028L294.315 246.311C297.665 248.138 301.423 249.084 305.238 249.063ZM313.422 246.67C308.636 249.446 300.13 249.063 294.554 245.869L84.4827 124.633C81.5753 122.958 79.9123 120.768 79.9123 118.651C79.9123 116.88 81.1087 115.253 83.1068 114.068L193.251 50.4536C198.037 47.6778 206.544 48.0607 212.119 51.2432L422.203 172.491C425.098 174.166 426.761 176.355 426.761 178.473C426.761 180.244 425.624 181.871 423.566 183.055L313.422 246.67Z" fill="#41AFFF"/>
<path d="M79.6849 89.2063L95.5019 91.9222L193.132 35.5578C198.037 32.7342 206.592 33.0812 212.275 36.3474L399.027 144.183L426.988 148.969V158.887C426.988 160.694 425.935 162.476 423.698 163.673L313.518 227.336C308.624 230.171 300.07 229.812 294.375 226.546L84.363 105.263C81.312 103.504 79.7448 101.254 79.6969 99.1248L79.6849 89.2063Z" fill="url(#paint0_linear_182_247)"/>
<path d="M313.518 217.357L423.662 153.754C428.568 150.931 427.946 145.99 422.298 142.723L212.239 21.4399C206.592 18.1736 198.037 17.8506 193.096 20.6502L82.9514 84.2412C78.058 87.0767 78.6682 92.0061 84.3274 95.2724L294.375 216.568C300.094 219.822 308.648 220.181 313.518 217.357Z" fill="#C7C6F8"/>
<path d="M84.3638 95.2722L294.375 216.568C300.035 219.822 308.589 220.157 313.518 217.357L423.663 153.754C424.489 153.355 425.213 152.77 425.777 152.046C426.341 151.322 426.732 150.478 426.917 149.579C427.216 151.613 426.163 153.611 423.663 155.046L313.518 218.637C308.625 221.473 300.07 221.114 294.375 217.848L84.3638 96.5644C80.9779 94.6022 79.4106 92.0538 79.7455 89.7087C80.0327 91.6709 81.588 93.669 84.3638 95.2722Z" fill="white"/>
<path d="M313.327 214.893L419.547 153.551C424.333 150.811 423.687 146.025 418.219 142.867L212.048 23.8686C206.568 20.71 198.289 20.363 193.551 23.1029L87.3309 84.4445C82.5451 87.1843 83.1792 91.9581 88.6589 95.1167L294.83 214.127C300.357 217.285 308.589 217.62 313.327 214.893Z" fill="url(#paint1_linear_182_247)"/>
<path style="mix-blend-mode:lighten" opacity="0.8" d="M305.299 214.366C308.157 214.44 310.987 213.781 313.518 212.452L419.738 151.098C420.693 150.657 421.511 149.967 422.105 149.099C422.699 148.231 423.047 147.218 423.112 146.169C423.112 143.872 421.401 141.563 418.41 139.84L212.239 20.8295C206.676 17.623 198.229 17.2402 193.407 20.0638L87.1872 81.4054C86.2307 81.8485 85.4114 82.5414 84.8155 83.411C84.2197 84.2806 83.8693 85.2947 83.8013 86.3467C83.8013 88.6439 85.5122 90.953 88.5033 92.6759L294.662 211.686C297.924 213.465 301.583 214.388 305.299 214.366ZM313.147 211.889C308.517 214.569 300.369 214.222 295.009 211.124L88.8264 92.0896C86.0626 90.4864 84.4713 88.3926 84.4713 86.3467C84.5412 85.4182 84.8589 84.5255 85.3913 83.7616C85.9237 82.9977 86.6514 82.3906 87.4983 82.0036L193.718 20.662C198.361 17.982 206.508 18.2691 211.868 21.4277L418.051 140.426C420.815 142.029 422.406 144.123 422.406 146.169C422.337 147.097 422.019 147.99 421.486 148.754C420.954 149.518 420.226 150.125 419.379 150.512L313.147 211.889Z" fill="url(#paint2_linear_182_247)"/>
<path style="mix-blend-mode:lighten" opacity="0.3" d="M305.299 205.497C308.157 205.571 310.987 204.912 313.518 203.583L419.738 142.229C420.693 141.788 421.511 141.098 422.105 140.23C422.699 139.362 423.047 138.349 423.112 137.3C423.112 135.003 421.401 132.694 418.41 130.971L212.239 11.9605C206.676 8.75403 198.229 8.37119 193.407 11.1948L87.1872 72.5364C86.2307 72.9795 85.4114 73.6724 84.8155 74.542C84.2197 75.4116 83.8693 76.4257 83.8013 77.4777C83.8013 79.7749 85.5122 82.084 88.5033 83.8069L294.662 202.817C297.924 204.596 301.583 205.519 305.299 205.497ZM313.147 203.02C308.517 205.7 300.369 205.353 295.009 202.255L88.8264 83.2206C86.0626 81.6174 84.4713 79.5236 84.4713 77.4777C84.5412 76.5492 84.8589 75.6564 85.3913 74.8925C85.9237 74.1286 86.6514 73.5216 87.4983 73.1346L193.718 11.793C198.361 9.11298 206.508 9.40011 211.868 12.5587L418.051 131.557C420.815 133.16 422.406 135.254 422.406 137.3C422.337 138.228 422.019 139.121 421.486 139.885C420.954 140.649 420.226 141.256 419.379 141.643L313.147 203.02Z" fill="url(#paint3_linear_182_247)"/>
<path style="mix-blend-mode:lighten" opacity="0.2" d="M305.299 196.628C308.157 196.702 310.987 196.043 313.518 194.714L419.738 133.36C420.693 132.919 421.511 132.229 422.105 131.361C422.699 130.493 423.047 129.48 423.112 128.431C423.112 126.134 421.401 123.824 418.41 122.102L212.239 3.09148C206.676 -0.11499 198.229 -0.497832 193.407 2.32577L87.1872 63.6674C86.2307 64.1105 85.4114 64.8033 84.8155 65.6729C84.2197 66.5425 83.8693 67.5567 83.8013 68.6087C83.8013 70.9058 85.5122 73.215 88.5033 74.9378L294.662 193.948C297.924 195.727 301.583 196.65 305.299 196.628ZM313.147 194.151C308.517 196.831 300.369 196.484 295.009 193.386L88.8264 74.3516C86.0626 72.7484 84.4713 70.6546 84.4713 68.6087C84.5412 67.6802 84.8589 66.7874 85.3913 66.0235C85.9237 65.2596 86.6514 64.6525 87.4983 64.2656L193.718 2.92399C198.361 0.243962 206.508 0.531089 211.868 3.6897L418.051 122.688C420.815 124.291 422.406 126.385 422.406 128.431C422.337 129.359 422.019 130.252 421.486 131.016C420.954 131.78 420.226 132.387 419.379 132.774L313.147 194.151Z" fill="url(#paint4_linear_182_247)"/>
<g opacity="0.1">
<path style="mix-blend-mode:lighten" d="M313.327 212.153L419.547 150.811C424.333 148.071 423.687 143.285 418.219 140.127L212.048 21.1287C206.568 17.9701 198.289 17.6231 193.551 20.363L87.3309 81.7046C82.5451 84.4444 83.1792 89.2182 88.6589 92.3769L294.83 211.387C300.357 214.546 308.589 214.893 313.327 212.153Z" fill="url(#paint5_radial_182_247)"/>
</g>
<path d="M305.238 249.063C308.149 249.134 311.03 248.467 313.613 247.125L423.758 183.534C425.983 182.23 427.18 180.459 427.18 178.473C427.18 176.14 425.433 173.783 422.394 172.024L212.358 50.7766C206.651 47.4864 198.001 47.1274 193.012 49.9869L82.8675 113.578C80.666 114.858 79.4456 116.629 79.4456 118.579C79.4456 120.912 81.1925 123.269 84.2314 125.028L294.315 246.311C297.665 248.138 301.423 249.084 305.238 249.063ZM313.422 246.67C308.636 249.446 300.13 249.063 294.554 245.869L84.4827 124.633C81.5753 122.958 79.9123 120.768 79.9123 118.651C79.9123 116.88 81.1087 115.253 83.1068 114.068L193.251 50.4536C198.037 47.6778 206.544 48.0607 212.119 51.2432L422.203 172.491C425.098 174.166 426.761 176.355 426.761 178.473C426.761 180.244 425.624 181.871 423.566 183.055L313.422 246.67Z" fill="#41AFFF"/>
<path d="M79.6849 89.2063L95.5019 91.9222L193.132 35.5578C198.037 32.7342 206.592 33.0812 212.275 36.3474L399.027 144.183L426.988 148.969V158.887C426.988 160.694 425.935 162.476 423.698 163.673L313.518 227.336C308.624 230.171 300.07 229.812 294.375 226.546L84.363 105.263C81.312 103.504 79.7448 101.254 79.6969 99.1248L79.6849 89.2063Z" fill="url(#paint6_linear_182_247)"/>
<path d="M313.518 217.357L423.662 153.754C428.568 150.931 427.946 145.99 422.298 142.723L212.239 21.4399C206.592 18.1736 198.037 17.8506 193.096 20.6502L82.9514 84.2412C78.058 87.0767 78.6682 92.0061 84.3274 95.2724L294.375 216.568C300.094 219.822 308.648 220.181 313.518 217.357Z" fill="#C7C6F8"/>
<path d="M84.3638 95.2722L294.375 216.568C300.035 219.822 308.589 220.157 313.518 217.357L423.663 153.754C424.489 153.355 425.213 152.77 425.777 152.046C426.341 151.322 426.732 150.478 426.917 149.579C427.216 151.613 426.163 153.611 423.663 155.046L313.518 218.637C308.625 221.473 300.07 221.114 294.375 217.848L84.3638 96.5644C80.9779 94.6022 79.4106 92.0538 79.7455 89.7087C80.0327 91.6709 81.588 93.669 84.3638 95.2722Z" fill="white"/>
<path d="M313.327 214.893L419.547 153.551C424.333 150.811 423.687 146.025 418.219 142.867L212.048 23.8686C206.568 20.71 198.289 20.363 193.551 23.1029L87.3309 84.4445C82.5451 87.1843 83.1792 91.9581 88.6589 95.1167L294.83 214.127C300.357 217.285 308.589 217.62 313.327 214.893Z" fill="url(#paint7_linear_182_247)"/>
<path style="mix-blend-mode:lighten" opacity="0.8" d="M305.299 214.366C308.157 214.44 310.987 213.781 313.518 212.452L419.738 151.098C420.693 150.657 421.511 149.967 422.105 149.099C422.699 148.231 423.047 147.218 423.112 146.169C423.112 143.872 421.401 141.563 418.41 139.84L212.239 20.8295C206.676 17.623 198.229 17.2402 193.407 20.0638L87.1872 81.4054C86.2307 81.8485 85.4114 82.5414 84.8155 83.411C84.2197 84.2806 83.8693 85.2947 83.8013 86.3467C83.8013 88.6439 85.5122 90.953 88.5033 92.6759L294.662 211.686C297.924 213.465 301.583 214.388 305.299 214.366ZM313.147 211.889C308.517 214.569 300.369 214.222 295.009 211.124L88.8264 92.0896C86.0626 90.4864 84.4713 88.3926 84.4713 86.3467C84.5412 85.4182 84.8589 84.5255 85.3913 83.7616C85.9237 82.9977 86.6514 82.3906 87.4983 82.0036L193.718 20.662C198.361 17.982 206.508 18.2691 211.868 21.4277L418.051 140.426C420.815 142.029 422.406 144.123 422.406 146.169C422.337 147.097 422.019 147.99 421.486 148.754C420.954 149.518 420.226 150.125 419.379 150.512L313.147 211.889Z" fill="url(#paint8_linear_182_247)"/>
<path style="mix-blend-mode:lighten" opacity="0.3" d="M305.299 205.497C308.157 205.571 310.987 204.912 313.518 203.583L419.738 142.229C420.693 141.788 421.511 141.098 422.105 140.23C422.699 139.362 423.047 138.349 423.112 137.3C423.112 135.003 421.401 132.694 418.41 130.971L212.239 11.9605C206.676 8.75403 198.229 8.37119 193.407 11.1948L87.1872 72.5364C86.2307 72.9795 85.4114 73.6724 84.8155 74.542C84.2197 75.4116 83.8693 76.4257 83.8013 77.4777C83.8013 79.7749 85.5122 82.084 88.5033 83.8069L294.662 202.817C297.924 204.596 301.583 205.519 305.299 205.497ZM313.147 203.02C308.517 205.7 300.369 205.353 295.009 202.255L88.8264 83.2206C86.0626 81.6174 84.4713 79.5236 84.4713 77.4777C84.5412 76.5492 84.8589 75.6564 85.3913 74.8925C85.9237 74.1286 86.6514 73.5216 87.4983 73.1346L193.718 11.793C198.361 9.11298 206.508 9.40011 211.868 12.5587L418.051 131.557C420.815 133.16 422.406 135.254 422.406 137.3C422.337 138.228 422.019 139.121 421.486 139.885C420.954 140.649 420.226 141.256 419.379 141.643L313.147 203.02Z" fill="url(#paint9_linear_182_247)"/>
<path style="mix-blend-mode:lighten" opacity="0.2" d="M305.299 196.628C308.157 196.702 310.987 196.043 313.518 194.714L419.738 133.36C420.693 132.919 421.511 132.229 422.105 131.361C422.699 130.493 423.047 129.48 423.112 128.431C423.112 126.134 421.401 123.824 418.41 122.102L212.239 3.09148C206.676 -0.11499 198.229 -0.497832 193.407 2.32577L87.1872 63.6674C86.2307 64.1105 85.4114 64.8033 84.8155 65.6729C84.2197 66.5425 83.8693 67.5567 83.8013 68.6087C83.8013 70.9058 85.5122 73.215 88.5033 74.9378L294.662 193.948C297.924 195.727 301.583 196.65 305.299 196.628ZM313.147 194.151C308.517 196.831 300.369 196.484 295.009 193.386L88.8264 74.3516C86.0626 72.7484 84.4713 70.6546 84.4713 68.6087C84.5412 67.6802 84.8589 66.7874 85.3913 66.0235C85.9237 65.2596 86.6514 64.6525 87.4983 64.2656L193.718 2.92399C198.361 0.243962 206.508 0.531089 211.868 3.6897L418.051 122.688C420.815 124.291 422.406 126.385 422.406 128.431C422.337 129.359 422.019 130.252 421.486 131.016C420.954 131.78 420.226 132.387 419.379 132.774L313.147 194.151Z" fill="url(#paint10_linear_182_247)"/>
<g opacity="0.1">
<path style="mix-blend-mode:lighten" d="M313.327 212.153L419.547 150.811C424.333 148.071 423.687 143.285 418.219 140.127L212.048 21.1287C206.568 17.9701 198.289 17.6231 193.551 20.363L87.3309 81.7046C82.5451 84.4444 83.1792 89.2182 88.6589 92.3769L294.83 211.387C300.357 214.546 308.589 214.893 313.327 212.153Z" fill="url(#paint11_radial_182_247)"/>
</g>
<g filter="url(#filter0_d_182_247)">
<path d="M278.076 179.735C306.318 163.545 375.615 123.818 388.128 116.613L224.216 22.0942C211.702 29.2988 142.406 69.0262 114.163 85.2162C106.723 89.4811 102.178 97.3757 102.178 105.951V138.149C102.178 138.149 103.018 145.245 100.384 149.384C98.1897 152.832 93.2051 156.096 93.2051 156.096L20.8203 193.054L184.733 287.573L257.118 250.615C257.118 250.615 262.102 247.351 264.296 243.903C266.93 239.764 266.091 232.668 266.091 232.668V200.47C266.091 191.895 270.636 184 278.076 179.735Z" fill="#E4F4FF"/>
</g>
<path d="M130.662 217.635C134.072 215.434 135.723 212.333 140.145 210.578C142.421 209.674 156.781 209.445 153.739 212.255C150.581 215.172 145.801 218.016 139.514 218.189C133.664 218.35 129.725 219.315 125.619 221.686C122.809 223.308 121.211 224.545 126.112 224.819C132.081 225.152 135.13 222.469 139.789 221.195C144.405 219.933 143.253 223.126 142.612 224.977C142.01 226.712 150.114 223.595 151.629 225.246C153.272 227.038 150.909 228.731 155.109 226.306C158.635 224.271 159.131 223.017 162.729 225.325C167.092 228.125 162.366 230.749 158.892 232.668C157.381 233.502 155.542 234.15 153.958 234.946C153.484 235.185 152.918 235.319 152.427 235.39M152.427 235.39C151.263 235.558 150.521 235.371 152.427 235.39ZM152.427 235.39C152.761 235.393 153.176 235.402 153.684 235.421C157.698 235.569 161.53 235.893 165.524 236.149C168.057 236.311 166.155 236.902 165.25 237.573C162.92 239.303 170.897 239.638 172.102 240.421C172.882 240.928 171.992 241.837 172.047 242.415C172.108 243.049 174.097 243.852 174.815 244.266L180.982 247.827M108.414 208.526L188.335 254.669" stroke="#1F0E31" stroke-linecap="round"/>
<path d="M229.239 62.1055C228.716 61.8038 228.33 61.4812 228.08 61.1378C227.837 60.7985 227.756 60.465 227.837 60.1372C227.918 59.8095 228.176 59.516 228.61 59.257L230.221 60.1869C229.946 60.3706 229.819 60.568 229.839 60.7792C229.867 60.9945 230.053 61.2014 230.397 61.3998C230.748 61.6023 231.102 61.7156 231.462 61.7397C231.828 61.7598 232.142 61.6942 232.404 61.5428C232.618 61.4194 232.726 61.2785 232.728 61.1203C232.73 60.9621 232.665 60.8012 232.533 60.6375C232.415 60.474 232.226 60.261 231.965 59.9986C231.616 59.6379 231.353 59.3308 231.176 59.0774C231.014 58.8241 230.956 58.5558 231.003 58.2723C231.064 57.9889 231.323 57.7158 231.778 57.4529C232.206 57.2059 232.689 57.0549 233.229 56.9998C233.768 56.9447 234.321 56.985 234.887 57.1209C235.461 57.2527 236.005 57.4675 236.52 57.765C237.294 58.2114 237.737 58.6786 237.851 59.1667C237.979 59.6549 237.744 60.1006 237.145 60.504L235.492 59.5493C235.726 59.3976 235.818 59.216 235.77 59.0046C235.735 58.7932 235.549 58.5904 235.213 58.3962C234.919 58.2267 234.61 58.1322 234.287 58.1125C233.97 58.0969 233.673 58.1688 233.397 58.3282C233.204 58.4397 233.107 58.5705 233.104 58.7206C233.116 58.8708 233.177 59.0256 233.288 59.185C233.412 59.3446 233.602 59.5576 233.856 59.824C234.205 60.1847 234.464 60.4937 234.634 60.7511C234.804 61.0085 234.862 61.281 234.808 61.5684C234.754 61.8559 234.503 62.1291 234.054 62.388C233.668 62.6111 233.205 62.7583 232.666 62.8296C232.128 62.901 231.558 62.8787 230.957 62.7628C230.363 62.6429 229.79 62.4238 229.239 62.1055Z" fill="black"/>
<path d="M246.471 65.2548C247.201 65.6763 247.571 66.1407 247.58 66.6479C247.603 67.1553 247.228 67.632 246.456 68.0782L243.092 70.0201L241.589 69.1522L244.756 67.3238C245.204 67.0649 245.428 66.7995 245.426 66.5276C245.431 66.2518 245.23 65.9961 244.822 65.7605C244.414 65.525 243.967 65.4066 243.482 65.4055C243.012 65.4046 242.552 65.5335 242.103 65.7925L238.937 67.6209L237.433 66.7529L240.6 64.9245C241.049 64.6656 241.272 64.4002 241.27 64.1284C241.276 63.8526 241.074 63.5969 240.666 63.3613C240.251 63.1216 239.801 63.0012 239.316 63.0001C238.845 62.9991 238.386 63.1281 237.937 63.387L234.77 65.2154L233.267 64.3475L239 61.0372L240.504 61.9052L239.81 62.3055C240.245 62.2777 240.682 62.3107 241.12 62.4046C241.566 62.5027 241.972 62.6571 242.337 62.8679C242.802 63.1365 243.121 63.432 243.293 63.7544C243.471 64.0727 243.485 64.3913 243.334 64.7102C243.858 64.6306 244.403 64.6384 244.968 64.7337C245.541 64.8331 246.041 65.0068 246.471 65.2548Z" fill="black"/>
<path d="M247.02 68.9535C247.599 68.6189 248.231 68.3903 248.916 68.2678C249.608 68.1494 250.279 68.1383 250.928 68.2344C251.585 68.3347 252.167 68.5316 252.676 68.825C253.119 69.0813 253.42 69.3543 253.577 69.644C253.741 69.9378 253.792 70.2183 253.73 70.4854L254.548 70.0134L256.062 70.8875L250.328 74.1978L248.814 73.3236L249.652 72.8396C249.19 72.8834 248.697 72.8579 248.174 72.763C247.665 72.6684 247.189 72.4929 246.745 72.2367C246.244 71.9474 245.91 71.6111 245.743 71.228C245.583 70.849 245.606 70.4598 245.811 70.0603C246.03 69.661 246.433 69.2921 247.02 68.9535ZM251.681 71.6685C252.033 71.4653 252.261 71.2507 252.366 71.0247C252.479 70.7946 252.478 70.5715 252.366 70.3553C252.261 70.1351 252.068 69.9444 251.789 69.7832C251.51 69.622 251.187 69.511 250.819 69.4503C250.452 69.3896 250.066 69.3896 249.66 69.4502C249.268 69.5109 248.9 69.6409 248.555 69.84C248.21 70.0392 247.978 70.2558 247.859 70.4899C247.754 70.724 247.751 70.9492 247.849 71.1652C247.955 71.3854 248.143 71.574 248.415 71.7311C248.695 71.8923 249.021 72.0053 249.396 72.0701C249.777 72.131 250.164 72.1311 250.555 72.0703C250.954 72.0056 251.329 71.8716 251.681 71.6685Z" fill="black"/>
<path d="M258.143 73.117C258.64 73.0533 259.129 73.0606 259.609 73.1387C260.096 73.221 260.541 73.3778 260.941 73.6093L259.42 74.4876L259.023 74.2583C258.55 73.9855 258.085 73.8406 257.628 73.8235C257.178 73.8106 256.687 73.9575 256.156 74.2643L253.3 75.9134L251.796 75.0455L257.53 71.7352L259.033 72.6032L258.143 73.117Z" fill="black"/>
<path d="M262.431 75.9394L259.658 77.5407C259.465 77.6523 259.37 77.7608 259.373 77.8663C259.39 77.972 259.514 78.0909 259.743 78.2232L260.441 78.6262L259.22 79.3313L258.275 78.7857C257.007 78.0541 256.967 77.3458 258.154 76.6606L260.917 75.0652L260.209 74.6561L261.399 73.9689L262.107 74.3781L263.525 73.5595L265.039 74.4336L263.622 75.2522L264.953 76.021L263.763 76.7081L262.431 75.9394Z" fill="black"/>
<path d="M266.117 79.1307C266.827 78.7204 267.627 78.449 268.515 78.3164C269.417 78.184 270.31 78.1935 271.193 78.3449C272.09 78.4965 272.897 78.7789 273.613 79.1922C274.45 79.6758 274.977 80.2189 275.193 80.8216C275.409 81.4243 275.277 82.0092 274.796 82.5761L273.067 81.5779C273.24 81.2796 273.255 80.9897 273.113 80.7082C272.978 80.4309 272.706 80.1745 272.298 79.9389C271.861 79.6867 271.371 79.5193 270.827 79.4364C270.298 79.3537 269.757 79.3601 269.205 79.4556C268.66 79.5553 268.146 79.7446 267.663 80.0234C267.187 80.2983 266.859 80.595 266.68 80.9136C266.514 81.2323 266.499 81.5466 266.636 81.8564C266.786 82.1663 267.08 82.4473 267.516 82.6994C267.925 82.935 268.369 83.0919 268.849 83.17C269.343 83.2483 269.849 83.2374 270.366 83.1375L272.095 84.1356C271.106 84.4172 270.089 84.4956 269.045 84.3709C268.016 84.2464 267.078 83.9402 266.234 83.4525C265.518 83.0392 265.025 82.5755 264.756 82.0615C264.5 81.5476 264.484 81.0322 264.706 80.5153C264.936 80.0025 265.406 79.541 266.117 79.1307Z" fill="black"/>
<path d="M273.65 87.7704C273.077 87.4397 272.683 87.0724 272.466 86.6685C272.256 86.2606 272.243 85.8507 272.427 85.4388C272.618 85.0311 273.006 84.658 273.593 84.3194C274.179 83.9808 274.829 83.7585 275.542 83.6525C276.263 83.5506 276.977 83.5643 277.683 83.6935C278.397 83.8188 279.04 84.0467 279.613 84.3773C280.186 84.708 280.581 85.0793 280.797 85.4914C281.021 85.8995 281.041 86.3094 280.858 86.7213C280.681 87.1373 280.3 87.5146 279.713 87.8531C279.127 88.1917 278.47 88.4099 277.742 88.5076C277.022 88.6095 276.301 88.5958 275.58 88.4664C274.873 88.3372 274.23 88.1051 273.65 87.7704ZM274.913 87.0414C275.185 87.1984 275.501 87.3093 275.862 87.374C276.236 87.4389 276.622 87.4389 277.021 87.3742C277.419 87.3095 277.801 87.1715 278.167 86.9604C278.712 86.6457 278.979 86.3179 278.968 85.977C278.972 85.6363 278.758 85.3419 278.329 85.0939C277.899 84.8459 277.39 84.7229 276.799 84.7247C276.223 84.7267 275.663 84.885 275.118 85.1997C274.572 85.5144 274.291 85.838 274.274 86.1705C274.27 86.5031 274.483 86.7934 274.913 87.0414Z" fill="black"/>
<path d="M287.062 88.6902C287.771 89.0993 288.126 89.5555 288.128 90.0586C288.137 90.5576 287.755 91.0303 286.983 91.4764L283.619 93.4184L282.116 92.5504L285.283 90.722C285.738 90.4591 285.968 90.1897 285.974 89.9139C285.986 89.6341 285.788 89.3764 285.38 89.1408C284.965 88.9011 284.511 88.7827 284.019 88.7856C283.542 88.7886 283.075 88.9216 282.62 89.1845L279.453 91.0129L277.949 90.145L283.683 86.8347L285.186 87.7026L284.472 88.1149C284.921 88.0872 285.368 88.1224 285.814 88.2205C286.274 88.3187 286.69 88.4753 287.062 88.6902Z" fill="black"/>
<path d="M291.342 92.6312L288.569 94.2325C288.376 94.344 288.281 94.4526 288.284 94.5581C288.301 94.6638 288.425 94.7827 288.654 94.915L289.352 95.3179L288.131 96.023L287.186 95.4775C285.918 94.7459 285.878 94.0375 287.065 93.3524L289.828 91.757L289.12 91.3478L290.31 90.6607L291.018 91.0699L292.436 90.2513L293.95 91.1254L292.533 91.944L293.864 92.7128L292.674 93.3999L291.342 92.6312Z" fill="black"/>
<path d="M295.559 94.7188C296.055 94.6552 296.544 94.6624 297.024 94.7405C297.512 94.8228 297.956 94.9797 298.357 95.2111L296.836 96.0895L296.438 95.8601C295.966 95.5873 295.501 95.4424 295.044 95.4254C294.594 95.4124 294.103 95.5594 293.572 95.8661L290.715 97.5153L289.212 96.6473L294.945 93.337L296.449 94.205L295.559 94.7188Z" fill="black"/>
<path d="M296.054 97.2635C296.634 96.9289 297.266 96.7003 297.95 96.5778C298.642 96.4594 299.313 96.4483 299.963 96.5444C300.619 96.6447 301.202 96.8416 301.71 97.1351C302.154 97.3913 302.454 97.6643 302.611 97.954C302.775 98.2478 302.826 98.5283 302.764 98.7954L303.582 98.3234L305.096 99.1975L299.362 102.508L297.848 101.634L298.687 101.15C298.224 101.193 297.732 101.168 297.209 101.073C296.7 100.978 296.223 100.803 295.779 100.547C295.278 100.257 294.944 99.9211 294.778 99.538C294.618 99.159 294.641 98.7698 294.846 98.3704C295.065 97.9711 295.468 97.6021 296.054 97.2635ZM300.715 99.9785C301.067 99.7753 301.296 99.5607 301.401 99.3347C301.513 99.1046 301.513 98.8815 301.401 98.6653C301.295 98.4451 301.103 98.2544 300.824 98.0932C300.544 97.932 300.221 97.8211 299.854 97.7604C299.487 97.6997 299.1 97.6996 298.694 97.7602C298.303 97.8209 297.935 97.9509 297.59 98.1501C297.245 98.3492 297.013 98.5658 296.894 98.7999C296.789 99.0341 296.785 99.2592 296.884 99.4752C296.989 99.6954 297.178 99.8841 297.45 100.041C297.729 100.202 298.056 100.315 298.43 100.38C298.812 100.441 299.198 100.441 299.59 100.38C299.988 100.316 300.363 100.182 300.715 99.9785Z" fill="black"/>
<path d="M303.311 101.477C303.904 101.135 304.547 100.908 305.239 100.798C305.938 100.684 306.63 100.685 307.316 100.802C308.008 100.915 308.64 101.136 309.213 101.467C309.95 101.893 310.38 102.348 310.5 102.832C310.635 103.316 310.464 103.791 309.987 104.256L308.366 103.32C308.528 103.127 308.575 102.931 308.505 102.731C308.45 102.532 308.271 102.345 307.971 102.172C307.541 101.924 307.049 101.815 306.495 101.846C305.948 101.872 305.398 102.045 304.846 102.364C304.301 102.678 304.002 102.996 303.949 103.316C303.903 103.632 304.095 103.914 304.524 104.162C305.133 104.513 305.792 104.591 306.503 104.396L308.124 105.332C307.339 105.595 306.52 105.692 305.667 105.622C304.815 105.552 304.023 105.306 303.293 104.885C302.721 104.554 302.333 104.191 302.131 103.795C301.935 103.396 301.933 102.996 302.124 102.596C302.322 102.193 302.718 101.82 303.311 101.477Z" fill="black"/>
<path d="M313.584 105.472L310.81 107.074C310.617 107.185 310.522 107.294 310.526 107.399C310.543 107.505 310.666 107.624 310.895 107.756L311.593 108.159L310.372 108.864L309.427 108.319C308.16 107.587 308.12 106.879 309.307 106.194L312.07 104.598L311.361 104.189L312.551 103.502L313.26 103.911L314.678 103.092L316.192 103.967L314.774 104.785L316.106 105.554L314.916 106.241L313.584 105.472Z" fill="black"/>
<path d="M313.637 110.857C313.15 110.576 312.796 110.276 312.575 109.957C312.361 109.634 312.284 109.323 312.345 109.023C312.413 108.728 312.612 108.472 312.942 108.257L314.456 109.131C314.264 109.275 314.192 109.445 314.241 109.64C314.296 109.839 314.471 110.024 314.764 110.193C315.051 110.358 315.328 110.455 315.596 110.482C315.871 110.513 316.095 110.479 316.267 110.38C316.453 110.272 316.491 110.134 316.38 109.967C316.284 109.8 316.076 109.56 315.757 109.248C315.416 108.932 315.158 108.66 314.982 108.431C314.813 108.206 314.739 107.968 314.759 107.716C314.786 107.469 314.993 107.234 315.38 107.011C315.697 106.828 316.08 106.714 316.528 106.67C316.984 106.63 317.463 106.668 317.965 106.783C318.475 106.902 318.97 107.1 319.449 107.377C320.158 107.786 320.551 108.212 320.628 108.655C320.713 109.094 320.486 109.493 319.95 109.853L318.511 109.022C318.717 108.878 318.796 108.717 318.748 108.538C318.715 108.359 318.551 108.185 318.257 108.015C317.985 107.858 317.726 107.764 317.479 107.733C317.239 107.706 317.033 107.743 316.861 107.842C316.667 107.954 316.619 108.097 316.716 108.273C316.82 108.444 317.032 108.682 317.35 108.985C317.676 109.293 317.924 109.559 318.093 109.784C318.261 110.009 318.329 110.247 318.295 110.498C318.275 110.75 318.078 110.987 317.706 111.21C317.375 111.401 316.981 111.517 316.526 111.557C316.078 111.601 315.599 111.563 315.089 111.444C314.593 111.325 314.109 111.129 313.637 110.857Z" fill="black"/>
<rect width="139.951" height="4.56984" rx="2.28492" transform="matrix(0.866025 0.5 -0.866025 0.5 196.261 59.6549)" fill="#1F0E31"/>
<rect width="132.525" height="4.56984" rx="2.28492" transform="matrix(0.866025 0.5 -0.866025 0.5 190.819 66.7953)" fill="#1F0E31"/>
<rect width="137.667" height="4.56984" rx="2.28492" transform="matrix(0.866025 0.5 -0.866025 0.5 179.44 70.5082)" fill="#1F0E31"/>
<rect width="86.2558" height="4.56984" rx="2.28492" transform="matrix(0.866025 0.5 -0.866025 0.5 192.797 88.5021)" fill="#1F0E31"/>
<path d="M331.895 35.9995L328.306 37.196C328.306 48.7536 340.467 90.4815 353.136 103.299C365.805 105.11 374.377 99.6024 374.377 88.0448L374.377 60.5266L331.895 35.9995Z" fill="url(#paint12_linear_182_247)"/>
<path d="M328.306 37.1959L328.306 64.7141C328.306 76.2717 336.878 91.6779 349.547 104.496C362.216 106.307 370.788 100.799 370.788 89.2412L370.788 61.723L328.306 37.1959Z" fill="#C7C6F8"/>
<path d="M331.389 42.5372L331.389 66.3525C331.389 76.474 338.672 89.6098 349.435 100.587C360.199 102.038 367.482 97.3124 367.482 87.1909L367.482 63.3756L331.389 42.5372Z" fill="url(#paint13_linear_182_247)"/>
<path d="M357.974 68.6823L345.901 75.4056L340.871 66.8453L336.595 69.4375L341.625 77.9976L345.651 85.0852L345.901 85.5272L362.251 75.9146L357.974 68.6823Z" fill="#C7C6F8"/>
<ellipse opacity="0.2" cx="349.842" cy="113.491" rx="11.9644" ry="2.99111" transform="rotate(25.3388 349.842 113.491)" fill="url(#paint14_radial_182_247)"/>
<defs>
<filter id="filter0_d_182_247" x="0.820312" y="12.0942" width="407.308" height="305.479" filterUnits="userSpaceOnUse" color-interpolation-filters="sRGB">
<feFlood flood-opacity="0" result="BackgroundImageFix"/>
<feColorMatrix in="SourceAlpha" type="matrix" values="0 0 0 0 0 0 0 0 0 0 0 0 0 0 0 0 0 0 127 0" result="hardAlpha"/>
<feOffset dy="10"/>
<feGaussianBlur stdDeviation="10"/>
<feComposite in2="hardAlpha" operator="out"/>
<feColorMatrix type="matrix" values="0 0 0 0 0.254167 0 0 0 0 0.68675 0 0 0 0 1 0 0 0 0.25 0"/>
<feBlend mode="normal" in2="BackgroundImageFix" result="effect1_dropShadow_182_247"/>
<feBlend mode="normal" in="SourceGraphic" in2="effect1_dropShadow_182_247" result="shape"/>
</filter>
<linearGradient id="paint0_linear_182_247" x1="427" y1="131.453" x2="79.6849" y2="131.453" gradientUnits="userSpaceOnUse">
<stop stop-color="#BCBEFF"/>
<stop offset="1" stop-color="#5761D7"/>
</linearGradient>
<linearGradient id="paint1_linear_182_247" x1="201.699" y1="21.2603" x2="304.593" y2="216.28" gradientUnits="userSpaceOnUse">
<stop stop-color="#0F054C"/>
<stop offset="1" stop-color="#1F0E31"/>
</linearGradient>
<linearGradient id="paint2_linear_182_247" x1="204.965" y1="180.59" x2="301.913" y2="51.9251" gradientUnits="userSpaceOnUse">
<stop stop-color="#41AFFF"/>
<stop offset="1" stop-color="#0F054C"/>
</linearGradient>
<linearGradient id="paint3_linear_182_247" x1="204.965" y1="171.721" x2="301.913" y2="43.0561" gradientUnits="userSpaceOnUse">
<stop stop-color="#41AFFF"/>
<stop offset="1" stop-color="#0F054C"/>
</linearGradient>
<linearGradient id="paint4_linear_182_247" x1="204.965" y1="162.852" x2="301.913" y2="34.187" gradientUnits="userSpaceOnUse">
<stop stop-color="#41AFFF"/>
<stop offset="1" stop-color="#0F054C"/>
</linearGradient>
<radialGradient id="paint5_radial_182_247" cx="0" cy="0" r="1" gradientUnits="userSpaceOnUse" gradientTransform="translate(261.964 119.536) rotate(180) scale(271.844 271.844)">
<stop stop-color="#41AFFF"/>
<stop offset="1" stop-color="#0F054C"/>
</radialGradient>
<linearGradient id="paint6_linear_182_247" x1="427" y1="131.453" x2="79.6849" y2="131.453" gradientUnits="userSpaceOnUse">
<stop stop-color="#BCBEFF"/>
<stop offset="1" stop-color="#5761D7"/>
</linearGradient>
<linearGradient id="paint7_linear_182_247" x1="201.699" y1="21.2603" x2="304.593" y2="216.28" gradientUnits="userSpaceOnUse">
<stop stop-color="#0F054C"/>
<stop offset="1" stop-color="#1F0E31"/>
</linearGradient>
<linearGradient id="paint8_linear_182_247" x1="204.965" y1="180.59" x2="301.913" y2="51.9251" gradientUnits="userSpaceOnUse">
<stop stop-color="#41AFFF"/>
<stop offset="1" stop-color="#0F054C"/>
</linearGradient>
<linearGradient id="paint9_linear_182_247" x1="204.965" y1="171.721" x2="301.913" y2="43.0561" gradientUnits="userSpaceOnUse">
<stop stop-color="#41AFFF"/>
<stop offset="1" stop-color="#0F054C"/>
</linearGradient>
<linearGradient id="paint10_linear_182_247" x1="204.965" y1="162.852" x2="301.913" y2="34.187" gradientUnits="userSpaceOnUse">
<stop stop-color="#41AFFF"/>
<stop offset="1" stop-color="#0F054C"/>
</linearGradient>
<radialGradient id="paint11_radial_182_247" cx="0" cy="0" r="1" gradientUnits="userSpaceOnUse" gradientTransform="translate(261.964 119.536) rotate(180) scale(271.844 271.844)">
<stop stop-color="#1F0E31"/>
<stop offset="1" stop-color="#3E054C"/>
</radialGradient>
<linearGradient id="paint12_linear_182_247" x1="351.341" y1="47.2269" x2="327.51" y2="88.5042" gradientUnits="userSpaceOnUse">
<stop stop-color="#BCBEFF"/>
<stop offset="1" stop-color="#5761D7"/>
</linearGradient>
<linearGradient id="paint13_linear_182_247" x1="331.413" y1="42.5799" x2="362.225" y2="113.737" gradientUnits="userSpaceOnUse">
<stop stop-color="#0F054C"/>
<stop offset="1" stop-color="#1F0E31"/>
</linearGradient>
<radialGradient id="paint14_radial_182_247" cx="0" cy="0" r="1" gradientUnits="userSpaceOnUse" gradientTransform="translate(349.842 113.491) rotate(90) scale(2.99111 11.9644)">
<stop stop-color="#1F0E31"/>
<stop offset="1" stop-color="#1F0E31" stop-opacity="0"/>
</radialGradient>
</defs>
</svg>