<svg width="400" height="249" viewBox="0 0 400 249" fill="none" xmlns="http://www.w3.org/2000/svg">
  <rect x="-1.49012e-08" y="0.25" width="211.978" height="211.978" rx="9.75" transform="matrix(0.866025 0.5 -0.866025 0.5 215.907 35.9206)" stroke="#41AFFF" stroke-width="0.5"/>
  <path d="M392.512 112.684L373.488 115.95L256.066 48.1688C250.166 44.7733 239.878 45.1905 233.042 49.1184L72.6919 105.777L39.0625 111.532L39.0625 123.46C39.0625 125.632 40.3288 127.776 43.0197 129.215L202.836 224.607C208.722 228.017 219.011 227.585 225.86 223.657L386.885 131.992C390.555 129.877 392.44 127.172 392.497 124.611L392.512 112.684Z" fill="url(#paint0_linear_182_71)"/>
  <rect width="212.478" height="212.478" rx="10" transform="matrix(0.866025 0.5 -0.866025 0.5 215.89 7.08031)" fill="#FEFFFF"/>
  <rect width="212.478" height="212.478" rx="10" transform="matrix(0.866025 0.5 -0.866025 0.5 215.691 5.72606)" fill="#C7C6F8"/>
  <rect width="204.384" height="204.384" rx="10" transform="matrix(0.866025 0.5 -0.866025 0.5 215.691 9.77333)" fill="url(#paint1_linear_182_71)"/>
  <g style="mix-blend-mode:lighten" opacity="0.2">
  <rect width="204.384" height="204.384" rx="10" transform="matrix(0.866025 0.5 -0.866025 0.5 215.691 9.77333)" fill="url(#paint2_radial_182_71)"/>
  </g>
  <path d="M159.247 94.0614L159.151 94.2601L159.404 94.4058L168.261 99.5197L169.02 99.9575L169.287 99.358L175.432 85.5964C178.933 86.6798 182.393 87.0811 185.794 86.771L185.799 86.7705C189.425 86.4217 192.548 85.4926 195.153 83.9886C197.412 82.6847 198.911 81.1884 199.632 79.5027C200.432 77.8077 200.273 76.0327 199.183 74.1881C198.125 72.3139 196.077 70.5112 193.076 68.7781L178.75 60.5075L178.317 60.2575L177.884 60.5075L139.72 82.5415L139.287 82.7915L139.72 83.0415L147.375 87.461L147.808 87.711L148.241 87.461L162.68 79.1246L165.603 80.8123L159.247 94.0614ZM188.586 76.0741L188.586 76.0741L188.586 76.0808C188.651 77.095 187.912 78.0779 186.25 79.0375C184.551 80.0181 182.788 80.4799 180.947 80.4808C179.163 80.461 177.266 79.917 175.251 78.7534L169.287 75.3101L179.63 69.3387L185.594 72.7821C187.611 73.9468 188.553 75.0431 188.586 76.0741ZM264.658 110.741L265.361 110.512L264.79 110.183L256.534 105.416L256.19 105.217L255.776 105.366L221.695 117.683L242.52 97.704L242.766 97.4671L242.428 97.2717L233.898 92.3472L233.564 92.1542L233.156 92.292L197.921 104.189L219.494 84.4203L219.755 84.1814L219.409 83.9818L211.208 79.2467L210.643 78.9206L210.244 79.3202L182.304 107.32L182.069 107.557L182.405 107.748L191.426 112.894L191.756 113.082L192.159 112.95L224.849 102.233L205.981 120.925L205.743 121.16L206.077 121.353L215.098 126.561L215.427 126.751L215.832 126.619L264.658 110.741ZM236.445 138.886L236.753 139.064L237.146 138.953L246.54 136.317L261.124 144.737L256.557 150.161L256.367 150.387L256.675 150.565L264.767 155.237L265.383 155.593L265.754 155.138L290.249 125.149L290.433 124.924L290.128 124.748L281.216 119.603L280.911 119.427L280.522 119.533L228.579 133.675L227.792 133.89L228.407 134.245L236.445 138.886ZM255.907 133.654L275.03 128.289L265.736 139.329L255.907 133.654Z" stroke="#41AFFF"/>
  <path opacity="0.6" d="M159.246 86.0614L159.15 86.2601L159.403 86.4058L168.26 91.5197L169.019 91.9575L169.286 91.358L175.431 77.5964C178.932 78.6798 182.392 79.0811 185.793 78.771L185.798 78.7705C189.424 78.4217 192.547 77.4926 195.152 75.9886C197.411 74.6847 198.91 73.1884 199.631 71.5027C200.431 69.8077 200.272 68.0327 199.182 66.1881C198.125 64.3139 196.076 62.5112 193.075 60.7781L178.749 52.5075L178.316 52.2575L177.883 52.5075L139.719 74.5415L139.286 74.7915L139.719 75.0415L147.374 79.461L147.807 79.711L148.24 79.461L162.679 71.1246L165.602 72.8123L159.246 86.0614ZM188.585 68.0741L188.585 68.0741L188.585 68.0808C188.65 69.095 187.911 70.0779 186.249 71.0375C184.55 72.0181 182.787 72.4799 180.946 72.4808C179.162 72.461 177.265 71.917 175.25 70.7534L169.286 67.3101L179.629 61.3387L185.593 64.7821C187.61 65.9468 188.552 67.0431 188.585 68.0741ZM264.657 102.741L265.36 102.512L264.79 102.183L256.533 97.4161L256.189 97.217L255.775 97.3664L221.694 109.683L242.519 89.704L242.765 89.4671L242.427 89.2717L233.897 84.3472L233.563 84.1542L233.155 84.292L197.92 96.1886L219.493 76.4203L219.754 76.1814L219.408 75.9818L211.207 71.2467L210.642 70.9206L210.243 71.3202L182.303 99.3205L182.068 99.5568L182.404 99.7485L191.425 104.894L191.755 105.082L192.158 104.95L224.848 94.2332L205.98 112.925L205.742 113.16L206.076 113.353L215.097 118.561L215.426 118.751L215.831 118.619L264.657 102.741ZM236.444 130.886L236.752 131.064L237.145 130.953L246.539 128.317L261.123 136.737L256.556 142.161L256.366 142.387L256.674 142.565L264.766 147.237L265.382 147.593L265.753 147.138L290.248 117.149L290.432 116.924L290.127 116.748L281.215 111.603L280.91 111.427L280.521 111.533L228.578 125.675L227.791 125.89L228.406 126.245L236.444 130.886ZM255.906 125.654L275.029 120.289L265.735 131.329L255.906 125.654Z" stroke="url(#paint3_linear_182_71)" stroke-opacity="0.35"/>
  <path opacity="0.5" d="M159.246 78.0614L159.15 78.2601L159.403 78.4058L168.26 83.5197L169.019 83.9575L169.286 83.358L175.431 69.5964C178.932 70.6798 182.392 71.0811 185.793 70.771L185.798 70.7705C189.424 70.4217 192.547 69.4926 195.152 67.9886C197.411 66.6847 198.91 65.1884 199.631 63.5027C200.431 61.8077 200.272 60.0327 199.182 58.1881C198.125 56.3139 196.076 54.5112 193.075 52.7781L178.749 44.5075L178.316 44.2575L177.883 44.5075L139.719 66.5415L139.286 66.7915L139.719 67.0415L147.374 71.461L147.807 71.711L148.24 71.461L162.679 63.1246L165.602 64.8123L159.246 78.0614ZM188.585 60.0741L188.585 60.0741L188.585 60.0808C188.65 61.095 187.911 62.0779 186.249 63.0375C184.55 64.0181 182.787 64.4799 180.946 64.4808C179.162 64.461 177.265 63.917 175.25 62.7534L169.286 59.3101L179.629 53.3387L185.593 56.7821C187.61 57.9468 188.552 59.0431 188.585 60.0741ZM264.657 94.7408L265.36 94.5122L264.79 94.1827L256.533 89.4161L256.189 89.217L255.775 89.3664L221.694 101.683L242.519 81.704L242.765 81.4671L242.427 81.2717L233.897 76.3472L233.563 76.1542L233.155 76.292L197.92 88.1886L219.493 68.4203L219.754 68.1814L219.408 67.9818L211.207 63.2467L210.642 62.9206L210.243 63.3202L182.303 91.3205L182.068 91.5568L182.404 91.7485L191.425 96.894L191.755 97.082L192.158 96.9499L224.848 86.2332L205.98 104.925L205.742 105.16L206.076 105.353L215.097 110.561L215.426 110.751L215.831 110.619L264.657 94.7408ZM236.444 122.886L236.752 123.064L237.145 122.953L246.539 120.317L261.123 128.737L256.556 134.161L256.366 134.387L256.674 134.565L264.766 139.237L265.382 139.593L265.753 139.138L290.248 109.149L290.432 108.924L290.127 108.748L281.215 103.603L280.91 103.427L280.521 103.533L228.578 117.675L227.791 117.89L228.406 118.245L236.444 122.886ZM255.906 117.654L275.029 112.289L265.735 123.329L255.906 117.654Z" stroke="url(#paint4_linear_182_71)" stroke-opacity="0.35"/>
  <path opacity="0.5" d="M159.246 70.0614L159.15 70.2601L159.403 70.4058L168.26 75.5197L169.019 75.9575L169.286 75.358L175.431 61.5964C178.932 62.6798 182.392 63.0811 185.793 62.771L185.798 62.7705C189.424 62.4217 192.547 61.4926 195.152 59.9886C197.411 58.6847 198.91 57.1884 199.631 55.5027C200.431 53.8077 200.272 52.0327 199.182 50.1881C198.125 48.3139 196.076 46.5112 193.075 44.7781L178.749 36.5075L178.316 36.2575L177.883 36.5075L139.719 58.5415L139.286 58.7915L139.719 59.0415L147.374 63.461L147.807 63.711L148.24 63.461L162.679 55.1246L165.602 56.8123L159.246 70.0614ZM188.585 52.0741L188.585 52.0741L188.585 52.0808C188.65 53.095 187.911 54.0779 186.249 55.0375C184.55 56.0181 182.787 56.4799 180.946 56.4808C179.162 56.461 177.265 55.917 175.25 54.7534L169.286 51.3101L179.629 45.3387L185.593 48.7821C187.61 49.9468 188.552 51.0431 188.585 52.0741ZM264.657 86.7408L265.36 86.5122L264.79 86.1827L256.533 81.4161L256.189 81.217L255.775 81.3664L221.694 93.683L242.519 73.704L242.765 73.4671L242.427 73.2717L233.897 68.3472L233.563 68.1542L233.155 68.292L197.92 80.1886L219.493 60.4203L219.754 60.1814L219.408 59.9818L211.207 55.2467L210.642 54.9206L210.243 55.3202L182.303 83.3205L182.068 83.5568L182.404 83.7485L191.425 88.894L191.755 89.082L192.158 88.9499L224.848 78.2332L205.98 96.9245L205.742 97.1599L206.076 97.3525L215.097 102.561L215.426 102.751L215.831 102.619L264.657 86.7408ZM236.444 114.886L236.752 115.064L237.145 114.953L246.539 112.317L261.123 120.737L256.556 126.161L256.366 126.387L256.674 126.565L264.766 131.237L265.382 131.593L265.753 131.138L290.248 101.149L290.432 100.924L290.127 100.748L281.215 95.6029L280.91 95.427L280.521 95.5331L228.578 109.675L227.791 109.89L228.406 110.245L236.444 114.886ZM255.906 109.654L275.029 104.289L265.735 115.329L255.906 109.654Z" stroke="url(#paint5_linear_182_71)" stroke-opacity="0.35"/>
  <path opacity="0.25" d="M159.246 62.0614L159.15 62.2601L159.403 62.4058L168.26 67.5197L169.019 67.9575L169.286 67.358L175.431 53.5964C178.932 54.6798 182.392 55.0811 185.793 54.771L185.798 54.7705C189.424 54.4217 192.547 53.4926 195.152 51.9886C197.411 50.6847 198.91 49.1884 199.631 47.5027C200.431 45.8077 200.272 44.0327 199.182 42.1881C198.125 40.3139 196.076 38.5112 193.075 36.7781L178.749 28.5075L178.316 28.2575L177.883 28.5075L139.719 50.5415L139.286 50.7915L139.719 51.0415L147.374 55.461L147.807 55.711L148.24 55.461L162.679 47.1246L165.602 48.8123L159.246 62.0614ZM188.585 44.0741L188.585 44.0741L188.585 44.0808C188.65 45.095 187.911 46.0779 186.249 47.0375C184.55 48.0181 182.787 48.4799 180.946 48.4808C179.162 48.461 177.265 47.917 175.25 46.7534L169.286 43.3101L179.629 37.3387L185.593 40.7821C187.61 41.9468 188.552 43.0431 188.585 44.0741ZM264.657 78.7408L265.36 78.5122L264.79 78.1827L256.533 73.4161L256.189 73.217L255.775 73.3664L221.694 85.683L242.519 65.704L242.765 65.4671L242.427 65.2717L233.897 60.3472L233.563 60.1542L233.155 60.292L197.92 72.1886L219.493 52.4203L219.754 52.1814L219.408 51.9818L211.207 47.2467L210.642 46.9206L210.243 47.3202L182.303 75.3205L182.068 75.5568L182.404 75.7485L191.425 80.894L191.755 81.082L192.158 80.9499L224.848 70.2332L205.98 88.9245L205.742 89.1599L206.076 89.3525L215.097 94.5611L215.426 94.7509L215.831 94.6192L264.657 78.7408ZM236.444 106.886L236.752 107.064L237.145 106.953L246.539 104.317L261.123 112.737L256.556 118.161L256.366 118.387L256.674 118.565L264.766 123.237L265.382 123.593L265.753 123.138L290.248 93.1492L290.432 92.9242L290.127 92.7484L281.215 87.6029L280.91 87.427L280.521 87.5331L228.578 101.675L227.791 101.89L228.406 102.245L236.444 106.886ZM255.906 101.654L275.029 96.2886L265.735 107.329L255.906 101.654Z" stroke="url(#paint6_linear_182_71)" stroke-opacity="0.35"/>
  <g opacity="0.3">
  <path d="M252.181 182.349V175.913L250.4 174.921C249.897 177.953 246.319 179.964 243.331 180.381L222.957 192.292L214.078 195.496L185.701 180.855L186.362 180.482C183.934 179.347 182.626 176.76 181.319 174.39L179.408 175.525L178.273 175.855V182.45C178.348 183.2 178.619 183.917 179.057 184.529C179.496 185.142 180.087 185.629 180.773 185.941L209.178 202.349C211.05 203.292 213.117 203.783 215.213 203.783C217.309 203.783 219.375 203.292 221.247 202.349L249.667 185.941C250.342 185.632 250.925 185.153 251.361 184.551C251.796 183.949 252.069 183.245 252.152 182.507C252.16 182.455 252.16 182.402 252.152 182.349H252.181Z" fill="url(#paint7_linear_182_71)"/>
  <path opacity="0.3" d="M243.331 180.381L222.957 192.292L215.227 195.079V203.786C217.328 203.83 219.405 203.335 221.261 202.349L249.681 185.941C250.356 185.632 250.94 185.153 251.375 184.551C251.811 183.949 252.083 183.246 252.167 182.507C252.174 182.455 252.174 182.402 252.167 182.349V175.913L250.529 175.007H250.356C249.825 177.996 246.29 179.964 243.331 180.381Z" fill="#0F054C"/>
  <path d="M209.178 195.798L180.758 179.39C177.425 177.479 177.425 174.347 180.758 172.421L209.178 156.013C211.05 155.071 213.117 154.58 215.212 154.58C217.308 154.58 219.375 155.071 221.247 156.013L249.667 172.421C252.985 174.347 252.985 177.479 249.667 179.39L221.261 195.798C219.389 196.749 217.319 197.245 215.22 197.245C213.12 197.245 211.05 196.749 209.178 195.798Z" fill="url(#paint8_linear_182_71)"/>
  <g opacity="0.3">
  <path d="M209.178 195.798L180.758 179.39C177.425 177.479 177.425 174.347 180.758 172.421L209.178 156.013C211.05 155.071 213.117 154.58 215.212 154.58C217.308 154.58 219.375 155.071 221.247 156.013L249.667 172.421C252.985 174.347 252.985 177.479 249.667 179.39L221.261 195.798C219.389 196.749 217.319 197.245 215.22 197.245C213.12 197.245 211.05 196.749 209.178 195.798Z" fill="#0F054C"/>
  </g>
  </g>
  <rect width="41.4765" height="41.4765" rx="2" transform="matrix(0.866025 0.5 -0.866025 0.5 217.102 137.459)" fill="url(#paint9_linear_182_71)"/>
  <g filter="url(#filter0_d_182_71)">
  <path d="M200.094 157.209L225.666 153.253L218.814 168.017L200.094 157.209Z" stroke="url(#paint10_linear_182_71)" shape-rendering="crispEdges"/>
  </g>
  <g opacity="0.5" filter="url(#filter1_d_182_71)">
  <path d="M200.094 153.721L225.666 149.765L218.814 164.529L200.094 153.721Z" stroke="url(#paint11_linear_182_71)" shape-rendering="crispEdges"/>
  </g>
  <g opacity="0.3" filter="url(#filter2_d_182_71)">
  <path d="M200.094 150.233L225.666 146.277L218.814 161.041L200.094 150.233Z" stroke="url(#paint12_linear_182_71)" shape-rendering="crispEdges"/>
  </g>
  <g opacity="0.2" filter="url(#filter3_d_182_71)">
  <path d="M200.094 146.744L225.666 142.788L218.814 157.552L200.094 146.744Z" stroke="url(#paint13_linear_182_71)" shape-rendering="crispEdges"/>
  </g>
  <g opacity="0.1" filter="url(#filter4_d_182_71)">
  <path d="M200.094 143.256L225.666 139.3L218.814 154.064L200.094 143.256Z" stroke="url(#paint14_linear_182_71)" shape-rendering="crispEdges"/>
  </g>
  <path d="M253.655 165.108V158.671L251.873 157.68C251.37 160.711 247.793 162.723 244.804 163.14L224.445 175.051L215.551 178.255L187.189 163.614L187.836 163.24C185.408 162.105 184.114 159.519 182.793 157.148L180.882 158.283L179.747 158.614V165.209C179.822 165.958 180.092 166.675 180.531 167.288C180.969 167.9 181.561 168.387 182.247 168.7L210.666 185.108C212.538 186.05 214.605 186.541 216.701 186.541C218.796 186.541 220.863 186.05 222.735 185.108L251.227 168.7C251.904 168.392 252.491 167.914 252.929 167.312C253.367 166.711 253.642 166.006 253.727 165.266V165.108H253.655Z" fill="url(#paint15_linear_182_71)"/>
  <path d="M210.666 178.542L182.261 162.148C178.928 160.237 178.928 157.105 182.261 155.18L210.681 138.772C212.553 137.829 214.619 137.338 216.715 137.338C218.811 137.338 220.878 137.829 222.75 138.772L251.227 155.18C254.56 157.105 254.56 160.237 251.227 162.148L222.735 178.542C220.865 179.491 218.798 179.986 216.701 179.986C214.604 179.986 212.536 179.491 210.666 178.542ZM218.641 141.186C218.041 140.885 217.379 140.728 216.708 140.728C216.037 140.728 215.375 140.885 214.776 141.186L186.356 157.594C185.278 158.211 185.278 159.217 186.356 159.821L214.776 176.243C215.375 176.544 216.037 176.701 216.708 176.701C217.379 176.701 218.041 176.544 218.641 176.243L247.06 159.864C247.29 159.78 247.489 159.628 247.629 159.427C247.77 159.227 247.845 158.988 247.845 158.743C247.845 158.498 247.77 158.259 247.629 158.059C247.489 157.858 247.29 157.706 247.06 157.622L218.641 141.186Z" fill="url(#paint16_linear_182_71)"/>
  <path d="M251.227 162.148L222.735 178.542C220.865 179.491 218.798 179.986 216.701 179.986C214.604 179.986 212.536 179.491 210.666 178.542L182.261 162.148C181.642 161.858 181.097 161.43 180.669 160.897C180.241 160.364 179.94 159.741 179.79 159.073C179.758 159.895 179.977 160.706 180.419 161.399C180.86 162.093 181.503 162.635 182.261 162.953L210.681 179.361C212.551 180.31 214.618 180.805 216.715 180.805C218.812 180.805 220.879 180.31 222.749 179.361L251.227 162.953C251.984 162.635 252.627 162.093 253.069 161.399C253.51 160.706 253.73 159.895 253.698 159.073C253.55 159.741 253.25 160.366 252.821 160.899C252.393 161.433 251.847 161.86 251.227 162.148Z" fill="white"/>
  <path d="M211.471 178.096L183.051 161.688C180.178 160.022 180.178 157.378 183.051 155.654L211.471 139.246C213.09 138.418 214.882 137.987 216.701 137.987C218.519 137.987 220.311 138.418 221.931 139.246L250.35 155.654C253.224 157.321 253.224 159.964 250.35 161.688L221.931 178.096C220.311 178.924 218.519 179.355 216.701 179.355C214.882 179.355 213.09 178.924 211.471 178.096ZM219.431 140.74C218.586 140.308 217.65 140.082 216.701 140.082C215.751 140.082 214.816 140.308 213.971 140.74L185.551 157.148C185.22 157.259 184.932 157.471 184.728 157.755C184.523 158.039 184.414 158.379 184.414 158.729C184.414 159.078 184.523 159.419 184.728 159.702C184.932 159.986 185.22 160.198 185.551 160.309L213.971 176.717C214.821 177.142 215.758 177.363 216.708 177.363C217.658 177.363 218.595 177.142 219.445 176.717L247.864 160.309C248.196 160.198 248.484 159.986 248.688 159.702C248.892 159.419 249.002 159.078 249.002 158.729C249.002 158.379 248.892 158.039 248.688 157.755C248.484 157.471 248.196 157.259 247.864 157.148L219.431 140.74Z" fill="url(#paint17_linear_182_71)"/>
  <g opacity="0.3">
  <path d="M75.1889 194.313V187.876L73.4073 186.885C72.9045 189.916 69.3269 191.928 66.3384 192.344L45.9648 204.255L37.0854 207.459L8.70891 192.819L9.36986 192.445C6.9417 191.31 5.63421 188.724 4.32674 186.353L2.41588 187.488L1.28076 187.819V194.413C1.35597 195.163 1.62636 195.88 2.06501 196.493C2.50367 197.105 3.09524 197.592 3.78075 197.905L32.186 214.313C34.058 215.255 36.1247 215.746 38.2205 215.746C40.3163 215.746 42.3831 215.255 44.255 214.313L72.6746 197.905C73.3496 197.595 73.9332 197.116 74.3687 196.514C74.8042 195.913 75.0768 195.209 75.1602 194.471C75.1675 194.418 75.1675 194.365 75.1602 194.313H75.1889Z" fill="url(#paint18_linear_182_71)"/>
  <path opacity="0.3" d="M66.3384 192.344L45.9648 204.255L38.2349 207.043V215.75C40.3359 215.793 42.4131 215.298 44.2693 214.313L72.6889 197.905C73.364 197.595 73.9476 197.116 74.3831 196.514C74.8186 195.913 75.0912 195.209 75.1745 194.471C75.1818 194.418 75.1818 194.365 75.1745 194.313V187.876L73.5367 186.971H73.3642C72.8326 189.959 69.2981 191.928 66.3384 192.344Z" fill="#0F054C"/>
  <path d="M32.1858 207.761L3.76612 191.353C0.432779 189.442 0.432779 186.31 3.76612 184.385L32.1858 167.977C34.0577 167.034 36.1244 166.543 38.2203 166.543C40.3161 166.543 42.3828 167.034 44.2548 167.977L72.6743 184.385C75.9933 186.31 75.9933 189.442 72.6743 191.353L44.2691 207.761C42.3972 208.713 40.3272 209.208 38.2275 209.208C36.1277 209.208 34.0576 208.713 32.1858 207.761Z" fill="url(#paint19_linear_182_71)"/>
  <g opacity="0.3">
  <path d="M32.1858 207.761L3.76612 191.353C0.432779 189.442 0.432779 186.31 3.76612 184.385L32.1858 167.977C34.0577 167.034 36.1244 166.543 38.2203 166.543C40.3161 166.543 42.3828 167.034 44.2548 167.977L72.6743 184.385C75.9933 186.31 75.9933 189.442 72.6743 191.353L44.2691 207.761C42.3972 208.713 40.3272 209.208 38.2275 209.208C36.1277 209.208 34.0576 208.713 32.1858 207.761Z" fill="#0F054C"/>
  </g>
  </g>
  <rect width="41.4765" height="41.4765" rx="2" transform="matrix(0.866025 0.5 -0.866025 0.5 40.1108 95.7925)" fill="url(#paint20_linear_182_71)"/>
  <g filter="url(#filter5_d_182_71)">
  <circle cx="13.3679" cy="13.3679" r="12.8679" transform="matrix(-0.866025 -0.5 0.866025 -0.5 38.7876 130.017)" stroke="url(#paint21_linear_182_71)" shape-rendering="crispEdges"/>
  </g>
  <g opacity="0.5" filter="url(#filter6_d_182_71)">
  <circle cx="13.3679" cy="13.3679" r="12.8679" transform="matrix(-0.866025 -0.5 0.866025 -0.5 38.7876 127.299)" stroke="url(#paint22_linear_182_71)" shape-rendering="crispEdges"/>
  </g>
  <g opacity="0.3" filter="url(#filter7_d_182_71)">
  <circle cx="13.3679" cy="13.3679" r="12.8679" transform="matrix(-0.866025 -0.5 0.866025 -0.5 38.7876 124.388)" stroke="url(#paint23_linear_182_71)" shape-rendering="crispEdges"/>
  </g>
  <g opacity="0.2" filter="url(#filter8_d_182_71)">
  <circle cx="13.3679" cy="13.3679" r="12.8679" transform="matrix(-0.866025 -0.5 0.866025 -0.5 38.7876 121.477)" stroke="url(#paint24_linear_182_71)" shape-rendering="crispEdges"/>
  </g>
  <g opacity="0.1" filter="url(#filter9_d_182_71)">
  <circle cx="13.3679" cy="13.3679" r="12.8679" transform="matrix(-0.866025 -0.5 0.866025 -0.5 38.7876 118.566)" stroke="url(#paint25_linear_182_71)" shape-rendering="crispEdges"/>
  </g>
  <path d="M76.6626 123.441V117.005L74.881 116.013C74.3781 119.045 70.8005 121.056 67.812 121.473L47.4527 133.384L38.559 136.588L10.1969 121.947L10.8435 121.574C8.41533 120.439 7.12221 117.852 5.80037 115.482L3.88942 116.617L2.75439 116.947V123.542C2.8296 124.292 3.09999 125.009 3.53865 125.621C3.9773 126.234 4.56888 126.721 5.25438 127.033L33.674 143.442C35.546 144.384 37.6126 144.875 39.7084 144.875C41.8043 144.875 43.871 144.384 45.743 143.442L74.2344 127.033C74.9122 126.726 75.4986 126.248 75.9367 125.646C76.3748 125.044 76.6497 124.339 76.7344 123.6V123.441H76.6626Z" fill="url(#paint26_linear_182_71)"/>
  <path d="M33.6733 136.875L5.26807 120.482C1.93473 118.571 1.93473 115.439 5.26807 113.513L33.6877 97.1052C35.5597 96.1628 37.6263 95.6719 39.7221 95.6719C41.818 95.6719 43.8847 96.1628 45.7566 97.1052L74.2337 113.513C77.5671 115.439 77.5671 118.571 74.2337 120.482L45.7423 136.875C43.8723 137.825 41.8048 138.319 39.7077 138.319C37.6107 138.319 35.5433 137.825 33.6733 136.875ZM41.6475 99.519C41.0477 99.2182 40.3859 99.0616 39.7149 99.0616C39.044 99.0616 38.3823 99.2182 37.7825 99.519L9.36287 115.927C8.28528 116.545 8.28528 117.551 9.36287 118.154L37.7825 134.577C38.3823 134.877 39.044 135.034 39.7149 135.034C40.3859 135.034 41.0477 134.877 41.6475 134.577L70.067 118.197C70.297 118.114 70.4958 117.961 70.6362 117.761C70.7766 117.56 70.852 117.321 70.852 117.077C70.852 116.832 70.7766 116.593 70.6362 116.392C70.4958 116.192 70.297 116.04 70.067 115.956L41.6475 99.519Z" fill="url(#paint27_linear_182_71)"/>
  <path d="M74.2334 120.482L45.7419 136.875C43.8719 137.825 41.8045 138.319 39.7074 138.319C37.6104 138.319 35.543 137.825 33.673 136.875L5.26773 120.482C4.6486 120.192 4.10406 119.764 3.67573 119.231C3.2474 118.698 2.94667 118.074 2.7965 117.407C2.76458 118.228 2.98402 119.04 3.42562 119.733C3.86722 120.426 4.50991 120.968 5.26773 121.286L33.6874 137.694C35.5573 138.644 37.6247 139.138 39.7218 139.138C41.8188 139.138 43.8863 138.644 45.7563 137.694L74.2334 121.286C74.9912 120.968 75.6339 120.426 76.0755 119.733C76.5171 119.04 76.7365 118.228 76.7046 117.407C76.5565 118.075 76.2565 118.7 75.8279 119.233C75.3994 119.766 74.8538 120.193 74.2334 120.482Z" fill="white"/>
  <path d="M34.4776 136.43L6.05801 120.022C3.18444 118.355 3.18444 115.712 6.05801 113.988L34.4776 97.5795C36.0968 96.7522 37.8892 96.3208 39.7075 96.3208C41.5258 96.3208 43.3182 96.7522 44.9374 97.5795L73.357 113.988C76.2306 115.654 76.2306 118.298 73.357 120.022L44.9374 136.43C43.3182 137.258 41.5258 137.689 39.7075 137.689C37.8892 137.689 36.0968 137.258 34.4776 136.43ZM42.4374 99.0738C41.5924 98.6413 40.6567 98.4157 39.7075 98.4157C38.7582 98.4157 37.8226 98.6413 36.9776 99.0738L8.558 115.482C8.22663 115.593 7.93851 115.805 7.73437 116.089C7.53024 116.372 7.42043 116.713 7.42043 117.062C7.42043 117.412 7.53024 117.752 7.73437 118.036C7.93851 118.32 8.22663 118.532 8.558 118.643L36.9776 135.051C37.8275 135.476 38.7645 135.697 39.7147 135.697C40.6648 135.697 41.6019 135.476 42.4518 135.051L70.8713 118.643C71.2027 118.532 71.4908 118.32 71.695 118.036C71.8991 117.752 72.009 117.412 72.009 117.062C72.009 116.713 71.8991 116.372 71.695 116.089C71.4908 115.805 71.2027 115.593 70.8713 115.482L42.4374 99.0738Z" fill="url(#paint28_linear_182_71)"/>
  <g opacity="0.3">
  <mask id="mask0_182_71" style="mask-type:alpha" maskUnits="userSpaceOnUse" x="258" y="34" width="72" height="57">
  <path d="M258.718 34.3588L329.121 75.3072L301.103 90.3934L260.155 66.6865L258.718 34.3588Z" fill="#D9D9D9"/>
  </mask>
  <g mask="url(#mask0_182_71)">
  <path d="M335.514 63.0964V56.6596L333.733 55.6682C333.23 58.6999 329.652 60.7114 326.664 61.128L306.29 73.039L297.411 76.243L269.034 61.6022L269.695 61.2286C267.267 60.0935 265.959 57.5073 264.652 55.1366L262.741 56.2717L261.606 56.6021V63.197C261.681 63.9467 261.952 64.6636 262.39 65.2762C262.829 65.8888 263.42 66.3757 264.106 66.6884L292.511 83.0965C294.383 84.0389 296.45 84.5298 298.546 84.5298C300.642 84.5298 302.708 84.0389 304.58 83.0965L333 66.6884C333.675 66.3786 334.258 65.8997 334.694 65.2981C335.129 64.6965 335.402 63.9925 335.485 63.2545C335.493 63.202 335.493 63.1488 335.485 63.0964H335.514Z" fill="url(#paint29_linear_182_71)"/>
  <path opacity="0.3" d="M326.664 61.1281L306.29 73.0391L298.56 75.8264V84.5333C300.661 84.5766 302.738 84.082 304.594 83.0966L333.014 66.6885C333.689 66.3787 334.273 65.8998 334.708 65.2982C335.144 64.6966 335.416 63.9926 335.5 63.2546C335.507 63.2021 335.507 63.1489 335.5 63.0965V56.6597L333.862 55.7546H333.689C333.158 58.7431 329.623 60.7115 326.664 61.1281Z" fill="#0F054C"/>
  <path d="M292.512 76.5447L264.092 60.1366C260.759 58.2257 260.759 55.0935 264.092 53.1682L292.512 36.7602C294.384 35.8177 296.451 35.3268 298.546 35.3268C300.642 35.3268 302.709 35.8177 304.581 36.7602L333 53.1682C336.319 55.0935 336.319 58.2257 333 60.1366L304.595 76.5447C302.723 77.4962 300.653 77.9921 298.554 77.9921C296.454 77.9921 294.384 77.4962 292.512 76.5447Z" fill="url(#paint30_linear_182_71)"/>
  <g opacity="0.3">
  <path d="M292.512 76.5447L264.092 60.1366C260.759 58.2257 260.759 55.0935 264.092 53.1682L292.512 36.7602C294.384 35.8177 296.451 35.3268 298.546 35.3268C300.642 35.3268 302.709 35.8177 304.581 36.7602L333 53.1682C336.319 55.0935 336.319 58.2257 333 60.1366L304.595 76.5447C302.723 77.4962 300.653 77.9921 298.554 77.9921C296.454 77.9921 294.384 77.4962 292.512 76.5447Z" fill="#0F054C"/>
  </g>
  </g>
  </g>
  <rect width="41.4765" height="41.4765" rx="2" transform="matrix(0.866025 0.5 -0.866025 0.5 300.437 18.206)" fill="url(#paint31_linear_182_71)"/>
  <path d="M336.988 45.855V39.4183L335.206 38.4269C334.703 41.4585 331.126 43.47 328.137 43.8866L307.778 55.7976L298.884 59.0016L270.522 44.3608L271.169 43.9872C268.741 42.8522 267.447 40.2659 266.126 37.8952L264.215 39.0303L263.08 39.3608V45.9556C263.155 46.7053 263.425 47.4222 263.864 48.0348C264.302 48.6474 264.894 49.1343 265.58 49.447L293.999 65.8551C295.871 66.7975 297.938 67.2884 300.034 67.2884C302.129 67.2884 304.196 66.7975 306.068 65.8551L334.56 49.447C335.237 49.1392 335.824 48.6611 336.262 48.0594C336.7 47.4576 336.975 46.7526 337.06 46.0131V45.855H336.988Z" fill="url(#paint32_linear_182_71)"/>
  <path d="M293.999 59.2889L265.594 42.8952C262.261 40.9843 262.261 37.8521 265.594 35.9268L294.014 19.5188C295.886 18.5763 297.952 18.0854 300.048 18.0854C302.144 18.0854 304.211 18.5763 306.083 19.5188L334.56 35.9268C337.893 37.8521 337.893 40.9843 334.56 42.8952L306.068 59.2889C304.198 60.238 302.131 60.7327 300.034 60.7327C297.937 60.7327 295.869 60.238 293.999 59.2889ZM301.974 21.9326C301.374 21.6317 300.712 21.4751 300.041 21.4751C299.37 21.4751 298.708 21.6317 298.109 21.9326L269.689 38.3407C268.611 38.9585 268.611 39.9642 269.689 40.5677L298.109 56.9901C298.708 57.2909 299.37 57.4476 300.041 57.4476C300.712 57.4476 301.374 57.2909 301.974 56.9901L330.393 40.6108C330.623 40.5271 330.822 40.3747 330.962 40.1742C331.103 39.9737 331.178 39.7348 331.178 39.4901C331.178 39.2453 331.103 39.0065 330.962 38.806C330.822 38.6055 330.623 38.453 330.393 38.3694L301.974 21.9326Z" fill="url(#paint33_linear_182_71)"/>
  <path d="M334.56 42.8952L306.068 59.2889C304.198 60.238 302.131 60.7327 300.034 60.7327C297.937 60.7327 295.869 60.238 293.999 59.2889L265.594 42.8952C264.975 42.6051 264.43 42.1772 264.002 41.6443C263.574 41.1114 263.273 40.4875 263.123 39.8205C263.091 40.6418 263.31 41.4533 263.752 42.1465C264.193 42.8397 264.836 43.3816 265.594 43.6998L294.014 60.1079C295.884 61.057 297.951 61.5516 300.048 61.5516C302.145 61.5516 304.212 61.057 306.082 60.1079L334.56 43.6998C335.317 43.3816 335.96 42.8397 336.402 42.1465C336.843 41.4533 337.063 40.6418 337.031 39.8205C336.883 40.4884 336.583 41.1131 336.154 41.6464C335.726 42.1796 335.18 42.6069 334.56 42.8952Z" fill="white"/>
  <path d="M294.804 58.8435L266.384 42.4354C263.511 40.7687 263.511 38.125 266.384 36.4009L294.804 19.9928C296.423 19.1655 298.215 18.7341 300.034 18.7341C301.852 18.7341 303.644 19.1655 305.264 19.9928L333.683 36.4009C336.557 38.0676 336.557 40.7112 333.683 42.4354L305.264 58.8435C303.644 59.6708 301.852 60.1022 300.034 60.1022C298.215 60.1022 296.423 59.6708 294.804 58.8435ZM302.764 21.4871C301.919 21.0546 300.983 20.829 300.034 20.829C299.084 20.829 298.149 21.0546 297.304 21.4871L268.884 37.8951C268.553 38.0061 268.265 38.2184 268.061 38.502C267.856 38.7856 267.747 39.1262 267.747 39.4756C267.747 39.825 267.856 40.1657 268.061 40.4493C268.265 40.7329 268.553 40.9451 268.884 41.0561L297.304 57.4641C298.154 57.889 299.091 58.1102 300.041 58.1102C300.991 58.1102 301.928 57.889 302.778 57.4641L331.197 41.0561C331.529 40.9451 331.817 40.7329 332.021 40.4493C332.225 40.1657 332.335 39.825 332.335 39.4756C332.335 39.1262 332.225 38.7856 332.021 38.502C331.817 38.2184 331.529 38.0061 331.197 37.8951L302.764 21.4871Z" fill="url(#paint34_linear_182_71)"/>
  <g filter="url(#filter10_d_182_71)">
  <path d="M310.085 34.8908L308.39 39.729L308.345 39.8582L308.457 39.9729L312.659 44.2719L304.165 44.8361L303.938 44.8512L303.784 44.9482L298.001 48.5838L294.447 44.0944L294.352 43.9745L294.144 43.9198L286.368 41.8678L292.665 38.5289L292.833 38.4397L292.859 38.3089L293.837 33.405L301.283 35.8309L301.482 35.8957L301.705 35.8696L310.085 34.8908Z" stroke="url(#paint35_linear_182_71)" shape-rendering="crispEdges"/>
  </g>
  <g opacity="0.4" filter="url(#filter11_d_182_71)">
  <path d="M310.085 31.7426L308.39 36.5808L308.345 36.71L308.457 36.8247L312.659 41.1237L304.165 41.6879L303.938 41.703L303.784 41.8L298.001 45.4356L294.447 40.9462L294.352 40.8264L294.144 40.7716L286.368 38.7196L292.665 35.3807L292.833 35.2916L292.859 35.1607L293.837 30.2568L301.283 32.6827L301.482 32.7475L301.705 32.7214L310.085 31.7426Z" stroke="url(#paint36_linear_182_71)" shape-rendering="crispEdges"/>
  </g>
  <g opacity="0.3" filter="url(#filter12_d_182_71)">
  <path d="M310.085 28.5944L308.39 33.4326L308.345 33.5618L308.457 33.6765L312.659 37.9755L304.165 38.5397L303.938 38.5548L303.784 38.6518L298.001 42.2874L294.447 37.798L294.352 37.6782L294.144 37.6234L286.368 35.5714L292.665 32.2325L292.833 32.1434L292.859 32.0125L293.837 27.1086L301.283 29.5345L301.482 29.5993L301.705 29.5732L310.085 28.5944Z" stroke="url(#paint37_linear_182_71)" shape-rendering="crispEdges"/>
  </g>
  <g opacity="0.2" filter="url(#filter13_d_182_71)">
  <path d="M310.085 25.4463L308.39 30.2845L308.345 30.4136L308.457 30.5283L312.659 34.8273L304.165 35.3915L303.938 35.4066L303.784 35.5036L298.001 39.1393L294.447 34.6498L294.352 34.53L294.144 34.4752L286.368 32.4232L292.665 29.0843L292.833 28.9952L292.859 28.8643L293.837 23.9604L301.283 26.3864L301.482 26.4511L301.705 26.425L310.085 25.4463Z" stroke="url(#paint38_linear_182_71)" shape-rendering="crispEdges"/>
  </g>
  <g opacity="0.1" filter="url(#filter14_d_182_71)">
  <path d="M310.085 22.2981L308.39 27.1363L308.345 27.2654L308.457 27.3801L312.659 31.6791L304.165 32.2433L303.938 32.2584L303.784 32.3554L298.001 35.9911L294.447 31.5016L294.352 31.3818L294.144 31.327L286.368 29.275L292.665 25.9361L292.833 25.847L292.859 25.7161L293.837 20.8123L301.283 23.2382L301.482 23.3029L301.705 23.2768L310.085 22.2981Z" stroke="url(#paint39_linear_182_71)" shape-rendering="crispEdges"/>
  </g>
  <defs>
  <filter id="filter0_d_182_71" x="178.911" y="132.753" width="67.6206" height="55.9468" filterUnits="userSpaceOnUse" color-interpolation-filters="sRGB">
  <feFlood flood-opacity="0" result="BackgroundImageFix"/>
  <feColorMatrix in="SourceAlpha" type="matrix" values="0 0 0 0 0 0 0 0 0 0 0 0 0 0 0 0 0 0 127 0" result="hardAlpha"/>
  <feOffset/>
  <feGaussianBlur stdDeviation="10"/>
  <feComposite in2="hardAlpha" operator="out"/>
  <feColorMatrix type="matrix" values="0 0 0 0 0.254167 0 0 0 0 0.68675 0 0 0 0 1 0 0 0 1 0"/>
  <feBlend mode="normal" in2="BackgroundImageFix" result="effect1_dropShadow_182_71"/>
  <feBlend mode="normal" in="SourceGraphic" in2="effect1_dropShadow_182_71" result="shape"/>
  </filter>
  <filter id="filter1_d_182_71" x="178.911" y="129.265" width="67.6206" height="55.9468" filterUnits="userSpaceOnUse" color-interpolation-filters="sRGB">
  <feFlood flood-opacity="0" result="BackgroundImageFix"/>
  <feColorMatrix in="SourceAlpha" type="matrix" values="0 0 0 0 0 0 0 0 0 0 0 0 0 0 0 0 0 0 127 0" result="hardAlpha"/>
  <feOffset/>
  <feGaussianBlur stdDeviation="10"/>
  <feComposite in2="hardAlpha" operator="out"/>
  <feColorMatrix type="matrix" values="0 0 0 0 0.254167 0 0 0 0 0.68675 0 0 0 0 1 0 0 0 1 0"/>
  <feBlend mode="normal" in2="BackgroundImageFix" result="effect1_dropShadow_182_71"/>
  <feBlend mode="normal" in="SourceGraphic" in2="effect1_dropShadow_182_71" result="shape"/>
  </filter>
  <filter id="filter2_d_182_71" x="178.911" y="125.777" width="67.6206" height="55.9468" filterUnits="userSpaceOnUse" color-interpolation-filters="sRGB">
  <feFlood flood-opacity="0" result="BackgroundImageFix"/>
  <feColorMatrix in="SourceAlpha" type="matrix" values="0 0 0 0 0 0 0 0 0 0 0 0 0 0 0 0 0 0 127 0" result="hardAlpha"/>
  <feOffset/>
  <feGaussianBlur stdDeviation="10"/>
  <feComposite in2="hardAlpha" operator="out"/>
  <feColorMatrix type="matrix" values="0 0 0 0 0.254167 0 0 0 0 0.68675 0 0 0 0 1 0 0 0 1 0"/>
  <feBlend mode="normal" in2="BackgroundImageFix" result="effect1_dropShadow_182_71"/>
  <feBlend mode="normal" in="SourceGraphic" in2="effect1_dropShadow_182_71" result="shape"/>
  </filter>
  <filter id="filter3_d_182_71" x="178.911" y="122.288" width="67.6206" height="55.9468" filterUnits="userSpaceOnUse" color-interpolation-filters="sRGB">
  <feFlood flood-opacity="0" result="BackgroundImageFix"/>
  <feColorMatrix in="SourceAlpha" type="matrix" values="0 0 0 0 0 0 0 0 0 0 0 0 0 0 0 0 0 0 127 0" result="hardAlpha"/>
  <feOffset/>
  <feGaussianBlur stdDeviation="10"/>
  <feComposite in2="hardAlpha" operator="out"/>
  <feColorMatrix type="matrix" values="0 0 0 0 0.254167 0 0 0 0 0.68675 0 0 0 0 1 0 0 0 1 0"/>
  <feBlend mode="normal" in2="BackgroundImageFix" result="effect1_dropShadow_182_71"/>
  <feBlend mode="normal" in="SourceGraphic" in2="effect1_dropShadow_182_71" result="shape"/>
  </filter>
  <filter id="filter4_d_182_71" x="178.911" y="118.8" width="67.6206" height="55.9468" filterUnits="userSpaceOnUse" color-interpolation-filters="sRGB">
  <feFlood flood-opacity="0" result="BackgroundImageFix"/>
  <feColorMatrix in="SourceAlpha" type="matrix" values="0 0 0 0 0 0 0 0 0 0 0 0 0 0 0 0 0 0 127 0" result="hardAlpha"/>
  <feOffset/>
  <feGaussianBlur stdDeviation="10"/>
  <feComposite in2="hardAlpha" operator="out"/>
  <feColorMatrix type="matrix" values="0 0 0 0 0.254167 0 0 0 0 0.68675 0 0 0 0 1 0 0 0 1 0"/>
  <feBlend mode="normal" in2="BackgroundImageFix" result="effect1_dropShadow_182_71"/>
  <feBlend mode="normal" in="SourceGraphic" in2="effect1_dropShadow_182_71" result="shape"/>
  </filter>
  <filter id="filter5_d_182_71" x="2.41553" y="87.1968" width="72.7441" height="58.905" filterUnits="userSpaceOnUse" color-interpolation-filters="sRGB">
  <feFlood flood-opacity="0" result="BackgroundImageFix"/>
  <feColorMatrix in="SourceAlpha" type="matrix" values="0 0 0 0 0 0 0 0 0 0 0 0 0 0 0 0 0 0 127 0" result="hardAlpha"/>
  <feOffset/>
  <feGaussianBlur stdDeviation="10"/>
  <feComposite in2="hardAlpha" operator="out"/>
  <feColorMatrix type="matrix" values="0 0 0 0 0.254167 0 0 0 0 0.68675 0 0 0 0 1 0 0 0 1 0"/>
  <feBlend mode="normal" in2="BackgroundImageFix" result="effect1_dropShadow_182_71"/>
  <feBlend mode="normal" in="SourceGraphic" in2="effect1_dropShadow_182_71" result="shape"/>
  </filter>
  <filter id="filter6_d_182_71" x="2.41553" y="84.4785" width="72.7441" height="58.905" filterUnits="userSpaceOnUse" color-interpolation-filters="sRGB">
  <feFlood flood-opacity="0" result="BackgroundImageFix"/>
  <feColorMatrix in="SourceAlpha" type="matrix" values="0 0 0 0 0 0 0 0 0 0 0 0 0 0 0 0 0 0 127 0" result="hardAlpha"/>
  <feOffset/>
  <feGaussianBlur stdDeviation="10"/>
  <feComposite in2="hardAlpha" operator="out"/>
  <feColorMatrix type="matrix" values="0 0 0 0 0.254167 0 0 0 0 0.68675 0 0 0 0 1 0 0 0 1 0"/>
  <feBlend mode="normal" in2="BackgroundImageFix" result="effect1_dropShadow_182_71"/>
  <feBlend mode="normal" in="SourceGraphic" in2="effect1_dropShadow_182_71" result="shape"/>
  </filter>
  <filter id="filter7_d_182_71" x="2.41553" y="81.5672" width="72.7441" height="58.905" filterUnits="userSpaceOnUse" color-interpolation-filters="sRGB">
  <feFlood flood-opacity="0" result="BackgroundImageFix"/>
  <feColorMatrix in="SourceAlpha" type="matrix" values="0 0 0 0 0 0 0 0 0 0 0 0 0 0 0 0 0 0 127 0" result="hardAlpha"/>
  <feOffset/>
  <feGaussianBlur stdDeviation="10"/>
  <feComposite in2="hardAlpha" operator="out"/>
  <feColorMatrix type="matrix" values="0 0 0 0 0.254167 0 0 0 0 0.68675 0 0 0 0 1 0 0 0 1 0"/>
  <feBlend mode="normal" in2="BackgroundImageFix" result="effect1_dropShadow_182_71"/>
  <feBlend mode="normal" in="SourceGraphic" in2="effect1_dropShadow_182_71" result="shape"/>
  </filter>
  <filter id="filter8_d_182_71" x="2.41553" y="78.6566" width="72.7441" height="58.905" filterUnits="userSpaceOnUse" color-interpolation-filters="sRGB">
  <feFlood flood-opacity="0" result="BackgroundImageFix"/>
  <feColorMatrix in="SourceAlpha" type="matrix" values="0 0 0 0 0 0 0 0 0 0 0 0 0 0 0 0 0 0 127 0" result="hardAlpha"/>
  <feOffset/>
  <feGaussianBlur stdDeviation="10"/>
  <feComposite in2="hardAlpha" operator="out"/>
  <feColorMatrix type="matrix" values="0 0 0 0 0.254167 0 0 0 0 0.68675 0 0 0 0 1 0 0 0 1 0"/>
  <feBlend mode="normal" in2="BackgroundImageFix" result="effect1_dropShadow_182_71"/>
  <feBlend mode="normal" in="SourceGraphic" in2="effect1_dropShadow_182_71" result="shape"/>
  </filter>
  <filter id="filter9_d_182_71" x="2.41553" y="75.7457" width="72.7441" height="58.905" filterUnits="userSpaceOnUse" color-interpolation-filters="sRGB">
  <feFlood flood-opacity="0" result="BackgroundImageFix"/>
  <feColorMatrix in="SourceAlpha" type="matrix" values="0 0 0 0 0 0 0 0 0 0 0 0 0 0 0 0 0 0 127 0" result="hardAlpha"/>
  <feOffset/>
  <feGaussianBlur stdDeviation="10"/>
  <feComposite in2="hardAlpha" operator="out"/>
  <feColorMatrix type="matrix" values="0 0 0 0 0.254167 0 0 0 0 0.68675 0 0 0 0 1 0 0 0 1 0"/>
  <feBlend mode="normal" in2="BackgroundImageFix" result="effect1_dropShadow_182_71"/>
  <feBlend mode="normal" in="SourceGraphic" in2="effect1_dropShadow_182_71" result="shape"/>
  </filter>
  <filter id="filter10_d_182_71" x="265.274" y="12.8352" width="68.3711" height="56.3802" filterUnits="userSpaceOnUse" color-interpolation-filters="sRGB">
  <feFlood flood-opacity="0" result="BackgroundImageFix"/>
  <feColorMatrix in="SourceAlpha" type="matrix" values="0 0 0 0 0 0 0 0 0 0 0 0 0 0 0 0 0 0 127 0" result="hardAlpha"/>
  <feOffset/>
  <feGaussianBlur stdDeviation="10"/>
  <feComposite in2="hardAlpha" operator="out"/>
  <feColorMatrix type="matrix" values="0 0 0 0 0.254167 0 0 0 0 0.68675 0 0 0 0 1 0 0 0 1 0"/>
  <feBlend mode="normal" in2="BackgroundImageFix" result="effect1_dropShadow_182_71"/>
  <feBlend mode="normal" in="SourceGraphic" in2="effect1_dropShadow_182_71" result="shape"/>
  </filter>
  <filter id="filter11_d_182_71" x="265.274" y="9.68704" width="68.3711" height="56.3802" filterUnits="userSpaceOnUse" color-interpolation-filters="sRGB">
  <feFlood flood-opacity="0" result="BackgroundImageFix"/>
  <feColorMatrix in="SourceAlpha" type="matrix" values="0 0 0 0 0 0 0 0 0 0 0 0 0 0 0 0 0 0 127 0" result="hardAlpha"/>
  <feOffset/>
  <feGaussianBlur stdDeviation="10"/>
  <feComposite in2="hardAlpha" operator="out"/>
  <feColorMatrix type="matrix" values="0 0 0 0 0.254167 0 0 0 0 0.68675 0 0 0 0 1 0 0 0 1 0"/>
  <feBlend mode="normal" in2="BackgroundImageFix" result="effect1_dropShadow_182_71"/>
  <feBlend mode="normal" in="SourceGraphic" in2="effect1_dropShadow_182_71" result="shape"/>
  </filter>
  <filter id="filter12_d_182_71" x="265.274" y="6.53885" width="68.3711" height="56.3802" filterUnits="userSpaceOnUse" color-interpolation-filters="sRGB">
  <feFlood flood-opacity="0" result="BackgroundImageFix"/>
  <feColorMatrix in="SourceAlpha" type="matrix" values="0 0 0 0 0 0 0 0 0 0 0 0 0 0 0 0 0 0 127 0" result="hardAlpha"/>
  <feOffset/>
  <feGaussianBlur stdDeviation="10"/>
  <feComposite in2="hardAlpha" operator="out"/>
  <feColorMatrix type="matrix" values="0 0 0 0 0.254167 0 0 0 0 0.68675 0 0 0 0 1 0 0 0 1 0"/>
  <feBlend mode="normal" in2="BackgroundImageFix" result="effect1_dropShadow_182_71"/>
  <feBlend mode="normal" in="SourceGraphic" in2="effect1_dropShadow_182_71" result="shape"/>
  </filter>
  <filter id="filter13_d_182_71" x="265.274" y="3.39065" width="68.3711" height="56.3802" filterUnits="userSpaceOnUse" color-interpolation-filters="sRGB">
  <feFlood flood-opacity="0" result="BackgroundImageFix"/>
  <feColorMatrix in="SourceAlpha" type="matrix" values="0 0 0 0 0 0 0 0 0 0 0 0 0 0 0 0 0 0 127 0" result="hardAlpha"/>
  <feOffset/>
  <feGaussianBlur stdDeviation="10"/>
  <feComposite in2="hardAlpha" operator="out"/>
  <feColorMatrix type="matrix" values="0 0 0 0 0.254167 0 0 0 0 0.68675 0 0 0 0 1 0 0 0 1 0"/>
  <feBlend mode="normal" in2="BackgroundImageFix" result="effect1_dropShadow_182_71"/>
  <feBlend mode="normal" in="SourceGraphic" in2="effect1_dropShadow_182_71" result="shape"/>
  </filter>
  <filter id="filter14_d_182_71" x="265.274" y="0.242461" width="68.3711" height="56.3802" filterUnits="userSpaceOnUse" color-interpolation-filters="sRGB">
  <feFlood flood-opacity="0" result="BackgroundImageFix"/>
  <feColorMatrix in="SourceAlpha" type="matrix" values="0 0 0 0 0 0 0 0 0 0 0 0 0 0 0 0 0 0 127 0" result="hardAlpha"/>
  <feOffset/>
  <feGaussianBlur stdDeviation="10"/>
  <feComposite in2="hardAlpha" operator="out"/>
  <feColorMatrix type="matrix" values="0 0 0 0 0.254167 0 0 0 0 0.68675 0 0 0 0 1 0 0 0 1 0"/>
  <feBlend mode="normal" in2="BackgroundImageFix" result="effect1_dropShadow_182_71"/>
  <feBlend mode="normal" in="SourceGraphic" in2="effect1_dropShadow_182_71" result="shape"/>
  </filter>
  <linearGradient id="paint0_linear_182_71" x1="-25.2112" y1="164.437" x2="392.515" y2="164.437" gradientUnits="userSpaceOnUse">
  <stop stop-color="#BCBEFF"/>
  <stop offset="1" stop-color="#5761D7"/>
  </linearGradient>
  <linearGradient id="paint1_linear_182_71" x1="102.192" y1="0" x2="102.192" y2="204.384" gradientUnits="userSpaceOnUse">
  <stop stop-color="#0F054C"/>
  <stop offset="0.0001" stop-color="#0F054C"/>
  <stop offset="1" stop-color="#1F0E31"/>
  </linearGradient>
  <radialGradient id="paint2_radial_182_71" cx="0" cy="0" r="1" gradientUnits="userSpaceOnUse" gradientTransform="translate(102.192 102.192) rotate(90) scale(102.192)">
  <stop stop-color="#41AFFF"/>
  <stop offset="1" stop-color="#0F054C"/>
  </radialGradient>
  <linearGradient id="paint3_linear_182_71" x1="256.598" y1="94.2259" x2="241.938" y2="122.199" gradientUnits="userSpaceOnUse">
  <stop stop-color="#41AFFF" stop-opacity="0"/>
  <stop offset="1" stop-color="#41AFFF"/>
  </linearGradient>
  <linearGradient id="paint4_linear_182_71" x1="256.598" y1="86.2259" x2="241.938" y2="114.199" gradientUnits="userSpaceOnUse">
  <stop stop-color="#41AFFF" stop-opacity="0"/>
  <stop offset="1" stop-color="#41AFFF"/>
  </linearGradient>
  <linearGradient id="paint5_linear_182_71" x1="256.598" y1="78.2259" x2="241.938" y2="106.199" gradientUnits="userSpaceOnUse">
  <stop stop-color="#41AFFF" stop-opacity="0"/>
  <stop offset="1" stop-color="#41AFFF"/>
  </linearGradient>
  <linearGradient id="paint6_linear_182_71" x1="256.598" y1="70.2259" x2="241.938" y2="98.1986" gradientUnits="userSpaceOnUse">
  <stop stop-color="#41AFFF" stop-opacity="0"/>
  <stop offset="1" stop-color="#41AFFF"/>
  </linearGradient>
  <linearGradient id="paint7_linear_182_71" x1="185.629" y1="163.111" x2="244.264" y2="196.962" gradientUnits="userSpaceOnUse">
  <stop stop-color="#BCBEFF"/>
  <stop offset="0.23" stop-color="#AAADF8"/>
  <stop offset="0.68" stop-color="#7C83E5"/>
  <stop offset="1" stop-color="#5761D7"/>
  </linearGradient>
  <linearGradient id="paint8_linear_182_71" x1="178.273" y1="175.913" x2="252.181" y2="175.913" gradientUnits="userSpaceOnUse">
  <stop stop-color="#E9E9FD"/>
  <stop offset="0.36" stop-color="#D3D2F9"/>
  <stop offset="0.71" stop-color="#C5C4F7"/>
  <stop offset="1" stop-color="#C0BFF6"/>
  </linearGradient>
  <linearGradient id="paint9_linear_182_71" x1="20.7382" y1="0" x2="20.7382" y2="41.4765" gradientUnits="userSpaceOnUse">
  <stop stop-color="#0F054C"/>
  <stop offset="1" stop-color="#1F0E31"/>
  </linearGradient>
  <linearGradient id="paint10_linear_182_71" x1="226.532" y1="152.753" x2="214.858" y2="172.973" gradientUnits="userSpaceOnUse">
  <stop stop-color="#41AFFF"/>
  <stop offset="1" stop-color="#1D71B8"/>
  </linearGradient>
  <linearGradient id="paint11_linear_182_71" x1="226.532" y1="149.265" x2="214.858" y2="169.485" gradientUnits="userSpaceOnUse">
  <stop stop-color="#41AFFF"/>
  <stop offset="1" stop-color="#1D71B8" stop-opacity="0"/>
  </linearGradient>
  <linearGradient id="paint12_linear_182_71" x1="226.532" y1="145.777" x2="214.858" y2="165.997" gradientUnits="userSpaceOnUse">
  <stop stop-color="#41AFFF"/>
  <stop offset="1" stop-color="#1D71B8" stop-opacity="0"/>
  </linearGradient>
  <linearGradient id="paint13_linear_182_71" x1="226.532" y1="142.288" x2="214.858" y2="162.508" gradientUnits="userSpaceOnUse">
  <stop stop-color="#41AFFF"/>
  <stop offset="1" stop-color="#1D71B8" stop-opacity="0"/>
  </linearGradient>
  <linearGradient id="paint14_linear_182_71" x1="226.532" y1="138.8" x2="214.858" y2="159.02" gradientUnits="userSpaceOnUse">
  <stop stop-color="#41AFFF"/>
  <stop offset="1" stop-color="#1D71B8" stop-opacity="0"/>
  </linearGradient>
  <linearGradient id="paint15_linear_182_71" x1="187.103" y1="145.869" x2="245.738" y2="179.72" gradientUnits="userSpaceOnUse">
  <stop stop-color="#BCBEFF"/>
  <stop offset="0.23" stop-color="#AAADF8"/>
  <stop offset="0.68" stop-color="#7C83E5"/>
  <stop offset="1" stop-color="#5761D7"/>
  </linearGradient>
  <linearGradient id="paint16_linear_182_71" x1="179.747" y1="158.671" x2="253.655" y2="158.671" gradientUnits="userSpaceOnUse">
  <stop stop-color="#E9E9FD"/>
  <stop offset="0.36" stop-color="#D3D2F9"/>
  <stop offset="0.71" stop-color="#C5C4F7"/>
  <stop offset="1" stop-color="#C0BFF6"/>
  </linearGradient>
  <linearGradient id="paint17_linear_182_71" x1="180.882" y1="158.671" x2="252.52" y2="158.671" gradientUnits="userSpaceOnUse">
  <stop stop-color="#E9E9FD"/>
  <stop offset="0.36" stop-color="#D3D2F9"/>
  <stop offset="0.71" stop-color="#C5C4F7"/>
  <stop offset="1" stop-color="#C0BFF6"/>
  </linearGradient>
  <linearGradient id="paint18_linear_182_71" x1="8.6371" y1="175.074" x2="67.2723" y2="208.925" gradientUnits="userSpaceOnUse">
  <stop stop-color="#BCBEFF"/>
  <stop offset="0.23" stop-color="#AAADF8"/>
  <stop offset="0.68" stop-color="#7C83E5"/>
  <stop offset="1" stop-color="#5761D7"/>
  </linearGradient>
  <linearGradient id="paint19_linear_182_71" x1="1.28048" y1="187.876" x2="75.1887" y2="187.876" gradientUnits="userSpaceOnUse">
  <stop stop-color="#E9E9FD"/>
  <stop offset="0.36" stop-color="#D3D2F9"/>
  <stop offset="0.71" stop-color="#C5C4F7"/>
  <stop offset="1" stop-color="#C0BFF6"/>
  </linearGradient>
  <linearGradient id="paint20_linear_182_71" x1="20.7382" y1="0" x2="20.7382" y2="41.4765" gradientUnits="userSpaceOnUse">
  <stop stop-color="#0F054C"/>
  <stop offset="1" stop-color="#1F0E31"/>
  </linearGradient>
  <linearGradient id="paint21_linear_182_71" x1="13.3679" y1="0" x2="13.3679" y2="26.7357" gradientUnits="userSpaceOnUse">
  <stop stop-color="#41AFFF"/>
  <stop offset="1" stop-color="#1D71B8"/>
  </linearGradient>
  <linearGradient id="paint22_linear_182_71" x1="13.3679" y1="0" x2="13.3679" y2="26.7357" gradientUnits="userSpaceOnUse">
  <stop stop-color="#41AFFF"/>
  <stop offset="1" stop-color="#1D71B8" stop-opacity="0"/>
  </linearGradient>
  <linearGradient id="paint23_linear_182_71" x1="13.3679" y1="0" x2="13.3679" y2="26.7357" gradientUnits="userSpaceOnUse">
  <stop stop-color="#41AFFF"/>
  <stop offset="1" stop-color="#1D71B8" stop-opacity="0"/>
  </linearGradient>
  <linearGradient id="paint24_linear_182_71" x1="13.3679" y1="0" x2="13.3679" y2="26.7357" gradientUnits="userSpaceOnUse">
  <stop stop-color="#41AFFF"/>
  <stop offset="1" stop-color="#1D71B8" stop-opacity="0"/>
  </linearGradient>
  <linearGradient id="paint25_linear_182_71" x1="13.3679" y1="0" x2="13.3679" y2="26.7357" gradientUnits="userSpaceOnUse">
  <stop stop-color="#41AFFF"/>
  <stop offset="1" stop-color="#1D71B8" stop-opacity="0"/>
  </linearGradient>
  <linearGradient id="paint26_linear_182_71" x1="10.1107" y1="104.203" x2="68.7459" y2="138.054" gradientUnits="userSpaceOnUse">
  <stop stop-color="#BCBEFF"/>
  <stop offset="0.23" stop-color="#AAADF8"/>
  <stop offset="0.68" stop-color="#7C83E5"/>
  <stop offset="1" stop-color="#5761D7"/>
  </linearGradient>
  <linearGradient id="paint27_linear_182_71" x1="2.7537" y1="117.005" x2="76.6619" y2="117.005" gradientUnits="userSpaceOnUse">
  <stop stop-color="#E9E9FD"/>
  <stop offset="0.36" stop-color="#D3D2F9"/>
  <stop offset="0.71" stop-color="#C5C4F7"/>
  <stop offset="1" stop-color="#C0BFF6"/>
  </linearGradient>
  <linearGradient id="paint28_linear_182_71" x1="3.88846" y1="117.005" x2="75.5266" y2="117.005" gradientUnits="userSpaceOnUse">
  <stop stop-color="#E9E9FD"/>
  <stop offset="0.36" stop-color="#D3D2F9"/>
  <stop offset="0.71" stop-color="#C5C4F7"/>
  <stop offset="1" stop-color="#C0BFF6"/>
  </linearGradient>
  <linearGradient id="paint29_linear_182_71" x1="268.962" y1="43.8579" x2="327.597" y2="77.7085" gradientUnits="userSpaceOnUse">
  <stop stop-color="#BCBEFF"/>
  <stop offset="0.23" stop-color="#AAADF8"/>
  <stop offset="0.68" stop-color="#7C83E5"/>
  <stop offset="1" stop-color="#5761D7"/>
  </linearGradient>
  <linearGradient id="paint30_linear_182_71" x1="261.607" y1="56.6596" x2="335.515" y2="56.6596" gradientUnits="userSpaceOnUse">
  <stop stop-color="#E9E9FD"/>
  <stop offset="0.36" stop-color="#D3D2F9"/>
  <stop offset="0.71" stop-color="#C5C4F7"/>
  <stop offset="1" stop-color="#C0BFF6"/>
  </linearGradient>
  <linearGradient id="paint31_linear_182_71" x1="20.7382" y1="0" x2="20.7382" y2="41.4765" gradientUnits="userSpaceOnUse">
  <stop stop-color="#0F054C"/>
  <stop offset="1" stop-color="#1F0E31"/>
  </linearGradient>
  <linearGradient id="paint32_linear_182_71" x1="270.436" y1="26.6165" x2="329.071" y2="60.4671" gradientUnits="userSpaceOnUse">
  <stop stop-color="#BCBEFF"/>
  <stop offset="0.23" stop-color="#AAADF8"/>
  <stop offset="0.68" stop-color="#7C83E5"/>
  <stop offset="1" stop-color="#5761D7"/>
  </linearGradient>
  <linearGradient id="paint33_linear_182_71" x1="263.08" y1="39.4182" x2="336.988" y2="39.4182" gradientUnits="userSpaceOnUse">
  <stop stop-color="#E9E9FD"/>
  <stop offset="0.36" stop-color="#D3D2F9"/>
  <stop offset="0.71" stop-color="#C5C4F7"/>
  <stop offset="1" stop-color="#C0BFF6"/>
  </linearGradient>
  <linearGradient id="paint34_linear_182_71" x1="264.215" y1="39.4181" x2="335.853" y2="39.4181" gradientUnits="userSpaceOnUse">
  <stop stop-color="#E9E9FD"/>
  <stop offset="0.36" stop-color="#D3D2F9"/>
  <stop offset="0.71" stop-color="#C5C4F7"/>
  <stop offset="1" stop-color="#C0BFF6"/>
  </linearGradient>
  <linearGradient id="paint35_linear_182_71" x1="310.868" y1="34.4386" x2="300.19" y2="52.9343" gradientUnits="userSpaceOnUse">
  <stop stop-color="#41AFFF"/>
  <stop offset="1" stop-color="#1D71B8"/>
  </linearGradient>
  <linearGradient id="paint36_linear_182_71" x1="310.868" y1="31.2905" x2="300.19" y2="49.7861" gradientUnits="userSpaceOnUse">
  <stop stop-color="#1D71B8" stop-opacity="0"/>
  <stop offset="1" stop-color="#41AFFF"/>
  </linearGradient>
  <linearGradient id="paint37_linear_182_71" x1="310.868" y1="28.1423" x2="300.19" y2="46.6379" gradientUnits="userSpaceOnUse">
  <stop stop-color="#1D71B8" stop-opacity="0"/>
  <stop offset="1" stop-color="#41AFFF"/>
  </linearGradient>
  <linearGradient id="paint38_linear_182_71" x1="310.868" y1="24.9941" x2="300.19" y2="43.4897" gradientUnits="userSpaceOnUse">
  <stop stop-color="#1D71B8" stop-opacity="0"/>
  <stop offset="1" stop-color="#41AFFF"/>
  </linearGradient>
  <linearGradient id="paint39_linear_182_71" x1="310.868" y1="21.8459" x2="300.19" y2="40.3415" gradientUnits="userSpaceOnUse">
  <stop stop-color="#1D71B8" stop-opacity="0"/>
  <stop offset="1" stop-color="#41AFFF"/>
  </linearGradient>
  </defs>
  </svg>