<svg width="192" height="311" viewBox="0 0 192 311" fill="none" xmlns="http://www.w3.org/2000/svg">
  <path d="M96.7379 251.054C95.3412 251.067 93.9643 250.723 92.7379 250.054L65.7379 234.484C65.2296 234.304 64.7895 233.971 64.4783 233.53C64.1671 233.09 64 232.564 64 232.024C64 231.485 64.1671 230.959 64.4783 230.518C64.7895 230.078 65.2296 229.745 65.7379 229.564L92.5779 213.954C93.8179 213.327 95.1882 213 96.5779 213C97.9676 213 99.3379 213.327 100.578 213.954L127.578 229.534C128.086 229.715 128.526 230.048 128.838 230.488C129.149 230.929 129.316 231.455 129.316 231.994C129.316 232.534 129.149 233.06 128.838 233.5C128.526 233.941 128.086 234.274 127.578 234.454L100.748 250.054C99.5184 250.724 98.138 251.068 96.7379 251.054V251.054ZM96.5979 213.534C95.2884 213.509 93.9942 213.819 92.8379 214.434L65.9979 230.034C65.5882 230.184 65.2345 230.457 64.9846 230.814C64.7347 231.172 64.6006 231.598 64.6006 232.034C64.6006 232.471 64.7347 232.897 64.9846 233.254C65.2345 233.612 65.5882 233.884 65.9979 234.034L92.9979 249.614C94.1629 250.206 95.4512 250.515 96.7579 250.515C98.0647 250.515 99.3529 250.206 100.518 249.614L127.358 234.014C127.757 233.838 128.104 233.561 128.363 233.211C128.623 232.86 128.786 232.448 128.838 232.014C128.789 231.58 128.627 231.167 128.367 230.815C128.107 230.464 127.759 230.188 127.358 230.014V230.014L100.358 214.434C99.2001 213.823 97.907 213.514 96.5979 213.534V213.534Z" fill="#03A7D3"/>
  <path d="M128.832 219.73V206.79L112.492 208.97L100.252 201.91C99.0484 201.298 97.7173 200.98 96.3672 200.98C95.0171 200.98 93.686 201.298 92.4822 201.91L90.5722 203.12L64.0322 206.66V219.83C64.0911 220.298 64.2691 220.743 64.5492 221.123C64.8293 221.503 65.2022 221.805 65.6322 222L92.6322 237.58C93.836 238.191 95.1671 238.51 96.5172 238.51C97.8673 238.51 99.1984 238.191 100.402 237.58L127.242 221.97C127.67 221.776 128.041 221.476 128.32 221.098C128.598 220.719 128.775 220.276 128.832 219.81V219.81V219.73Z" fill="url(#paint0_linear_463_953)"/>
  <path d="M127.212 204.5L100.212 188.93C99.0085 188.318 97.6774 188 96.3273 188C94.9771 188 93.646 188.318 92.4422 188.93L65.6223 204.5C63.4723 205.74 63.4723 207.75 65.6223 208.99L92.6223 224.57C93.8275 225.176 95.158 225.492 96.5072 225.492C97.8565 225.492 99.1871 225.176 100.392 224.57L127.232 208.96C129.352 207.7 129.352 205.69 127.212 204.5Z" fill="url(#paint1_radial_463_953)"/>
  <path d="M127.212 204.5L100.212 188.93C99.0085 188.318 97.6774 188 96.3273 188C94.9771 188 93.646 188.318 92.4422 188.93L65.6223 204.5C63.4723 205.74 63.4723 207.75 65.6223 208.99L92.6223 224.57C93.8275 225.176 95.158 225.492 96.5072 225.492C97.8565 225.492 99.1871 225.176 100.392 224.57L127.232 208.96C129.352 207.7 129.352 205.69 127.212 204.5Z" fill="url(#paint2_radial_463_953)"/>
  <path d="M127.212 208.16L100.372 223.76C99.1684 224.371 97.8373 224.69 96.4872 224.69C95.137 224.69 93.806 224.371 92.6022 223.76L65.6022 208.19C65.2269 208.005 64.8943 207.745 64.6256 207.424C64.357 207.104 64.1582 206.731 64.0422 206.33C63.8422 207.27 64.3522 208.25 65.6022 208.97L92.6022 224.55C93.8074 225.156 95.1379 225.472 96.4872 225.472C97.8365 225.472 99.167 225.156 100.372 224.55L127.212 208.94C128.452 208.22 128.972 207.24 128.772 206.3C128.656 206.701 128.457 207.074 128.189 207.394C127.92 207.715 127.587 207.975 127.212 208.16V208.16Z" fill="white"/>
  <path d="M104.002 227.99L102.732 228.73V227.26L104.002 226.52V227.99Z" fill="white"/>
  <path d="M106.672 226.45L105.402 227.19V225.71L106.672 224.98V226.45Z" fill="white"/>
  <path d="M109.352 224.91L108.072 225.64V224.17L109.352 223.43V224.91Z" fill="white"/>
  <path d="M107.163 229.16L105.883 229.89V228.42L107.163 227.68V229.16Z" fill="white"/>
  <path d="M109.512 227.8L108.242 228.54V227.06L109.512 226.32V227.8Z" fill="white"/>
  <path d="M117.923 219.96L116.643 220.7V219.22L117.923 218.49V219.96Z" fill="white"/>
  <path d="M125.282 215.71L124.002 216.45V214.97L125.282 214.24V215.71Z" fill="white"/>
  <path d="M112.022 223.36L110.742 224.1V222.63L112.022 221.89V223.36Z" fill="white"/>
  <g filter="url(#filter0_d_463_953)">
  <path d="M128.832 196.73V183.79L112.492 185.97L100.252 178.91C99.0484 178.298 97.7173 177.98 96.3672 177.98C95.0171 177.98 93.686 178.298 92.4822 178.91L90.5722 180.12L64.0322 183.66V196.83C64.0911 197.298 64.2691 197.743 64.5492 198.123C64.8293 198.503 65.2022 198.805 65.6322 199L92.6322 214.58C93.836 215.191 95.1671 215.51 96.5172 215.51C97.8673 215.51 99.1984 215.191 100.402 214.58L127.242 198.97C127.67 198.776 128.041 198.476 128.32 198.098C128.598 197.719 128.775 197.276 128.832 196.81V196.81V196.73Z" fill="url(#paint3_linear_463_953)"/>
  </g>
  <path d="M127.212 181.5L100.212 165.93C99.0085 165.318 97.6774 165 96.3273 165C94.9771 165 93.646 165.318 92.4422 165.93L65.6223 181.5C63.4723 182.74 63.4723 184.75 65.6223 185.99L92.6223 201.57C93.8275 202.176 95.158 202.492 96.5072 202.492C97.8565 202.492 99.1871 202.176 100.392 201.57L127.232 185.96C129.352 184.7 129.352 182.69 127.212 181.5Z" fill="url(#paint4_radial_463_953)"/>
  <path d="M127.212 181.5L100.212 165.93C99.0085 165.318 97.6774 165 96.3273 165C94.9771 165 93.646 165.318 92.4422 165.93L65.6223 181.5C63.4723 182.74 63.4723 184.75 65.6223 185.99L92.6223 201.57C93.8275 202.176 95.158 202.492 96.5072 202.492C97.8565 202.492 99.1871 202.176 100.392 201.57L127.232 185.96C129.352 184.7 129.352 182.69 127.212 181.5Z" fill="url(#paint5_radial_463_953)"/>
  <path d="M127.212 185.16L100.372 200.76C99.1684 201.371 97.8373 201.69 96.4872 201.69C95.137 201.69 93.806 201.371 92.6022 200.76L65.6022 185.19C65.2269 185.005 64.8943 184.745 64.6256 184.424C64.357 184.104 64.1582 183.731 64.0422 183.33C63.8422 184.27 64.3522 185.25 65.6022 185.97L92.6022 201.55C93.8074 202.156 95.1379 202.472 96.4872 202.472C97.8365 202.472 99.167 202.156 100.372 201.55L127.212 185.94C128.452 185.22 128.972 184.24 128.772 183.3C128.656 183.701 128.457 184.074 128.189 184.394C127.92 184.715 127.587 184.975 127.212 185.16V185.16Z" fill="white"/>
  <path d="M104.002 204.99L102.732 205.73V204.26L104.002 203.52V204.99Z" fill="white"/>
  <path d="M106.672 203.45L105.402 204.19V202.71L106.672 201.98V203.45Z" fill="white"/>
  <path d="M109.352 201.91L108.072 202.64V201.17L109.352 200.43V201.91Z" fill="white"/>
  <path d="M107.163 206.16L105.883 206.89V205.42L107.163 204.68V206.16Z" fill="white"/>
  <path d="M109.512 204.8L108.242 205.54V204.06L109.512 203.32V204.8Z" fill="white"/>
  <path d="M117.923 196.96L116.643 197.7V196.22L117.923 195.49V196.96Z" fill="white"/>
  <path d="M125.282 192.71L124.002 193.45V191.97L125.282 191.24V192.71Z" fill="white"/>
  <path d="M112.022 200.36L110.742 201.1V199.63L112.022 198.89V200.36Z" fill="white"/>
  <g filter="url(#filter1_d_463_953)">
  <path d="M128.832 173.73V160.79L112.492 162.97L100.252 155.91C99.0484 155.298 97.7173 154.98 96.3672 154.98C95.0171 154.98 93.686 155.298 92.4822 155.91L90.5722 157.12L64.0322 160.66V173.83C64.0911 174.298 64.2691 174.743 64.5492 175.123C64.8293 175.503 65.2022 175.805 65.6322 176L92.6322 191.58C93.836 192.191 95.1671 192.51 96.5172 192.51C97.8673 192.51 99.1984 192.191 100.402 191.58L127.242 175.97C127.67 175.776 128.041 175.476 128.32 175.098C128.598 174.719 128.775 174.276 128.832 173.81V173.81V173.73Z" fill="url(#paint6_linear_463_953)"/>
  </g>
  <path d="M127.212 158.5L100.212 142.93C99.0085 142.318 97.6774 142 96.3273 142C94.9771 142 93.646 142.318 92.4422 142.93L65.6223 158.5C63.4723 159.74 63.4723 161.75 65.6223 162.99L92.6223 178.57C93.8275 179.176 95.158 179.492 96.5072 179.492C97.8565 179.492 99.1871 179.176 100.392 178.57L127.232 162.96C129.352 161.7 129.352 159.69 127.212 158.5Z" fill="url(#paint7_radial_463_953)"/>
  <path d="M127.212 158.5L100.212 142.93C99.0085 142.318 97.6774 142 96.3273 142C94.9771 142 93.646 142.318 92.4422 142.93L65.6223 158.5C63.4723 159.74 63.4723 161.75 65.6223 162.99L92.6223 178.57C93.8275 179.176 95.158 179.492 96.5072 179.492C97.8565 179.492 99.1871 179.176 100.392 178.57L127.232 162.96C129.352 161.7 129.352 159.69 127.212 158.5Z" fill="url(#paint8_radial_463_953)"/>
  <path d="M127.212 162.16L100.372 177.76C99.1684 178.371 97.8373 178.69 96.4872 178.69C95.137 178.69 93.806 178.371 92.6022 177.76L65.6022 162.19C65.2269 162.005 64.8943 161.745 64.6256 161.424C64.357 161.104 64.1582 160.731 64.0422 160.33C63.8422 161.27 64.3522 162.25 65.6022 162.97L92.6022 178.55C93.8074 179.156 95.1379 179.472 96.4872 179.472C97.8365 179.472 99.167 179.156 100.372 178.55L127.212 162.94C128.452 162.22 128.972 161.24 128.772 160.3C128.656 160.701 128.457 161.074 128.189 161.394C127.92 161.715 127.587 161.975 127.212 162.16V162.16Z" fill="white"/>
  <path d="M104.002 181.99L102.732 182.73V181.26L104.002 180.52V181.99Z" fill="white"/>
  <path d="M106.672 180.45L105.402 181.19V179.71L106.672 178.98V180.45Z" fill="white"/>
  <path d="M109.352 178.91L108.072 179.64V178.17L109.352 177.43V178.91Z" fill="white"/>
  <path d="M107.163 183.16L105.883 183.89V182.42L107.163 181.68V183.16Z" fill="white"/>
  <path d="M109.512 181.8L108.242 182.54V181.06L109.512 180.32V181.8Z" fill="white"/>
  <path d="M117.923 173.96L116.643 174.7V173.22L117.923 172.49V173.96Z" fill="white"/>
  <path d="M125.282 169.71L124.002 170.45V168.97L125.282 168.24V169.71Z" fill="white"/>
  <path d="M112.022 177.36L110.742 178.1V176.63L112.022 175.89V177.36Z" fill="white"/>
  <g filter="url(#filter2_d_463_953)">
  <path d="M128.832 150.73V137.79L112.492 139.97L100.252 132.91C99.0484 132.298 97.7173 131.98 96.3672 131.98C95.0171 131.98 93.686 132.298 92.4822 132.91L90.5722 134.12L64.0322 137.66V150.83C64.0911 151.298 64.2691 151.743 64.5492 152.123C64.8293 152.503 65.2022 152.805 65.6322 153L92.6322 168.58C93.836 169.191 95.1671 169.51 96.5172 169.51C97.8673 169.51 99.1984 169.191 100.402 168.58L127.242 152.97C127.67 152.776 128.041 152.476 128.32 152.098C128.598 151.719 128.775 151.276 128.832 150.81V150.81V150.73Z" fill="url(#paint9_linear_463_953)"/>
  </g>
  <path d="M127.212 135.5L100.212 119.93C99.0085 119.318 97.6774 119 96.3273 119C94.9771 119 93.646 119.318 92.4422 119.93L65.6223 135.5C63.4723 136.74 63.4723 138.75 65.6223 139.99L92.6223 155.57C93.8275 156.176 95.158 156.492 96.5072 156.492C97.8565 156.492 99.1871 156.176 100.392 155.57L127.232 139.96C129.352 138.7 129.352 136.69 127.212 135.5Z" fill="url(#paint10_radial_463_953)"/>
  <path d="M127.212 135.5L100.212 119.93C99.0085 119.318 97.6774 119 96.3273 119C94.9771 119 93.646 119.318 92.4422 119.93L65.6223 135.5C63.4723 136.74 63.4723 138.75 65.6223 139.99L92.6223 155.57C93.8275 156.176 95.158 156.492 96.5072 156.492C97.8565 156.492 99.1871 156.176 100.392 155.57L127.232 139.96C129.352 138.7 129.352 136.69 127.212 135.5Z" fill="url(#paint11_radial_463_953)"/>
  <path d="M127.212 139.16L100.372 154.76C99.1684 155.371 97.8373 155.69 96.4872 155.69C95.137 155.69 93.806 155.371 92.6022 154.76L65.6022 139.19C65.2269 139.005 64.8943 138.745 64.6256 138.424C64.357 138.104 64.1582 137.731 64.0422 137.33C63.8422 138.27 64.3522 139.25 65.6022 139.97L92.6022 155.55C93.8074 156.156 95.1379 156.472 96.4872 156.472C97.8365 156.472 99.167 156.156 100.372 155.55L127.212 139.94C128.452 139.22 128.972 138.24 128.772 137.3C128.656 137.701 128.457 138.074 128.189 138.394C127.92 138.715 127.587 138.975 127.212 139.16V139.16Z" fill="white"/>
  <path d="M104.002 158.99L102.732 159.73V158.26L104.002 157.52V158.99Z" fill="white"/>
  <path d="M106.672 157.45L105.402 158.19V156.71L106.672 155.98V157.45Z" fill="white"/>
  <path d="M109.352 155.91L108.072 156.64V155.17L109.352 154.43V155.91Z" fill="white"/>
  <path d="M107.163 160.16L105.883 160.89V159.42L107.163 158.68V160.16Z" fill="white"/>
  <path d="M109.512 158.8L108.242 159.54V158.06L109.512 157.32V158.8Z" fill="white"/>
  <path d="M117.923 150.96L116.643 151.7V150.22L117.923 149.49V150.96Z" fill="white"/>
  <path d="M125.282 146.71L124.002 147.45V145.97L125.282 145.24V146.71Z" fill="white"/>
  <path d="M112.022 154.36L110.742 155.1V153.63L112.022 152.89V154.36Z" fill="white"/>
  <g filter="url(#filter3_d_463_953)">
  <path d="M128.832 127.73V114.79L112.492 116.97L100.252 109.91C99.0484 109.298 97.7173 108.98 96.3672 108.98C95.0171 108.98 93.686 109.298 92.4822 109.91L90.5722 111.12L64.0322 114.66V127.83C64.0911 128.298 64.2691 128.743 64.5492 129.123C64.8293 129.503 65.2022 129.805 65.6322 130L92.6322 145.58C93.836 146.191 95.1671 146.51 96.5172 146.51C97.8673 146.51 99.1984 146.191 100.402 145.58L127.242 129.97C127.67 129.776 128.041 129.476 128.32 129.098C128.598 128.719 128.775 128.276 128.832 127.81V127.81V127.73Z" fill="url(#paint12_linear_463_953)"/>
  </g>
  <path d="M127.212 112.5L100.212 96.9297C99.0085 96.3184 97.6774 95.9998 96.3273 95.9998C94.9771 95.9998 93.646 96.3184 92.4422 96.9297L65.6223 112.5C63.4723 113.74 63.4723 115.75 65.6223 116.99L92.6223 132.57C93.8275 133.176 95.158 133.492 96.5072 133.492C97.8565 133.492 99.1871 133.176 100.392 132.57L127.232 116.96C129.352 115.7 129.352 113.69 127.212 112.5Z" fill="url(#paint13_radial_463_953)"/>
  <path d="M127.212 112.5L100.212 96.9297C99.0085 96.3184 97.6774 95.9998 96.3273 95.9998C94.9771 95.9998 93.646 96.3184 92.4422 96.9297L65.6223 112.5C63.4723 113.74 63.4723 115.75 65.6223 116.99L92.6223 132.57C93.8275 133.176 95.158 133.492 96.5072 133.492C97.8565 133.492 99.1871 133.176 100.392 132.57L127.232 116.96C129.352 115.7 129.352 113.69 127.212 112.5Z" fill="url(#paint14_radial_463_953)"/>
  <g filter="url(#filter4_d_463_953)">
  <path d="M96.4615 127.5C95.5024 127.518 94.5549 127.287 93.7115 126.83L75.8315 116.5C75.4664 116.364 75.1516 116.12 74.9293 115.8C74.707 115.48 74.5879 115.099 74.5879 114.71C74.5879 114.32 74.707 113.94 74.9293 113.62C75.1516 113.3 75.4664 113.056 75.8315 112.92L93.6115 102.58C94.4632 102.14 95.4079 101.91 96.3665 101.91C97.3252 101.91 98.2699 102.14 99.1216 102.58L116.992 112.9C117.357 113.036 117.671 113.28 117.894 113.6C118.116 113.92 118.235 114.3 118.235 114.69C118.235 115.079 118.116 115.46 117.894 115.78C117.671 116.1 117.357 116.344 116.992 116.48L99.2115 126.82C98.3691 127.281 97.4216 127.515 96.4615 127.5ZM96.3716 102.62C95.5348 102.601 94.7076 102.801 93.9716 103.2L76.1915 113.5C75.9308 113.568 75.7 113.721 75.5354 113.935C75.3707 114.148 75.2814 114.41 75.2814 114.68C75.2814 114.949 75.3707 115.211 75.5354 115.425C75.7 115.638 75.9308 115.791 76.1915 115.86L94.0616 126.18C94.8047 126.559 95.6272 126.757 96.4615 126.757C97.2959 126.757 98.1184 126.559 98.8615 126.18L116.642 115.85C116.881 115.747 117.089 115.583 117.245 115.374C117.402 115.165 117.5 114.919 117.532 114.66C117.501 114.402 117.402 114.157 117.246 113.95C117.089 113.743 116.881 113.58 116.642 113.48L98.7715 103.2C98.0351 102.802 97.2082 102.602 96.3716 102.62Z" fill="#41AFFF"/>
  </g>
  <path d="M127.212 116.16L100.372 131.76C99.1684 132.371 97.8373 132.69 96.4872 132.69C95.137 132.69 93.806 132.371 92.6022 131.76L65.6022 116.19C65.2269 116.005 64.8943 115.745 64.6256 115.424C64.357 115.104 64.1582 114.731 64.0422 114.33C63.8422 115.27 64.3522 116.25 65.6022 116.97L92.6022 132.55C93.8074 133.156 95.1379 133.472 96.4872 133.472C97.8365 133.472 99.167 133.156 100.372 132.55L127.212 116.94C128.452 116.22 128.972 115.24 128.772 114.3C128.656 114.701 128.457 115.074 128.189 115.394C127.92 115.715 127.587 115.975 127.212 116.16V116.16Z" fill="white"/>
  <path d="M104.002 135.99L102.732 136.73V135.26L104.002 134.52V135.99Z" fill="white"/>
  <path d="M106.672 134.45L105.402 135.19V133.71L106.672 132.98V134.45Z" fill="white"/>
  <path d="M109.352 132.91L108.072 133.64V132.17L109.352 131.43V132.91Z" fill="white"/>
  <path d="M107.163 137.16L105.883 137.89V136.42L107.163 135.68V137.16Z" fill="white"/>
  <path d="M109.512 135.8L108.242 136.54V135.06L109.512 134.32V135.8Z" fill="white"/>
  <path d="M117.923 127.96L116.643 128.7V127.22L117.923 126.49V127.96Z" fill="white"/>
  <path d="M125.282 123.71L124.002 124.45V122.97L125.282 122.24V123.71Z" fill="white"/>
  <path d="M112.022 131.36L110.742 132.1V130.63L112.022 129.89V131.36Z" fill="white"/>
  <path d="M85.65 229.559L70.65 220.919C70.452 220.778 70.29 220.592 70.177 220.377C70.0641 220.162 70.0035 219.923 70 219.679V218.569C70 218.089 70.29 217.869 70.65 218.079L85.65 226.729C85.8449 226.871 86.0041 227.055 86.1152 227.269C86.2263 227.482 86.2861 227.719 86.29 227.959V229.079C86.29 229.549 86 229.769 85.65 229.559Z" fill="white"/>
  <path style="mix-blend-mode:lighten" opacity="0.5" d="M129 220L129 0H64.0005L64 219.766C64.0177 220.025 64.1054 220.273 64.2534 220.485C64.4015 220.696 64.6043 220.862 64.8395 220.964L94 237.5C94.6258 237.818 95.8161 237.983 96.5162 237.983C97.2163 237.983 98.8742 237.818 99.5 237.5L128.175 221.289C128.414 221.168 128.616 220.984 128.761 220.758C128.906 220.531 128.988 220.27 129 220Z" fill="url(#paint15_linear_463_953)"/>
  <path d="M149.738 280.054C148.341 280.067 146.964 279.723 145.738 279.054L118.738 263.484C118.23 263.304 117.79 262.971 117.478 262.53C117.167 262.09 117 261.564 117 261.024C117 260.485 117.167 259.959 117.478 259.518C117.79 259.078 118.23 258.745 118.738 258.564L145.578 242.954C146.818 242.327 148.188 242 149.578 242C150.968 242 152.338 242.327 153.578 242.954L180.578 258.534C181.086 258.715 181.526 259.048 181.838 259.488C182.149 259.929 182.316 260.455 182.316 260.994C182.316 261.534 182.149 262.06 181.838 262.5C181.526 262.941 181.086 263.274 180.578 263.454L153.748 279.054C152.518 279.724 151.138 280.068 149.738 280.054V280.054ZM149.598 242.534C148.288 242.509 146.994 242.819 145.838 243.434L118.998 259.034C118.588 259.184 118.234 259.457 117.985 259.814C117.735 260.172 117.601 260.598 117.601 261.034C117.601 261.471 117.735 261.897 117.985 262.254C118.234 262.612 118.588 262.884 118.998 263.034L145.998 278.614C147.163 279.206 148.451 279.515 149.758 279.515C151.065 279.515 152.353 279.206 153.518 278.614L180.358 263.014C180.757 262.838 181.104 262.561 181.363 262.211C181.623 261.86 181.786 261.448 181.838 261.014C181.789 260.58 181.627 260.167 181.367 259.815C181.107 259.464 180.759 259.188 180.358 259.014V259.014L153.358 243.434C152.2 242.823 150.907 242.514 149.598 242.534V242.534Z" fill="#03A7D3"/>
  <path d="M181.832 248.73V235.79L165.492 237.97L153.252 230.91C152.048 230.298 150.717 229.98 149.367 229.98C148.017 229.98 146.686 230.298 145.482 230.91L143.572 232.12L117.032 235.66V248.83C117.091 249.298 117.269 249.743 117.549 250.123C117.829 250.503 118.202 250.805 118.632 251L145.632 266.58C146.836 267.191 148.167 267.51 149.517 267.51C150.867 267.51 152.198 267.191 153.402 266.58L180.242 250.97C180.67 250.776 181.041 250.476 181.32 250.098C181.598 249.719 181.775 249.276 181.832 248.81V248.81V248.73Z" fill="url(#paint16_linear_463_953)"/>
  <path d="M180.212 233.5L153.212 217.93C152.008 217.318 150.677 217 149.327 217C147.977 217 146.646 217.318 145.442 217.93L118.622 233.5C116.472 234.74 116.472 236.75 118.622 237.99L145.622 253.57C146.827 254.176 148.158 254.492 149.507 254.492C150.857 254.492 152.187 254.176 153.392 253.57L180.232 237.96C182.352 236.7 182.352 234.69 180.212 233.5Z" fill="url(#paint17_radial_463_953)"/>
  <path d="M180.212 233.5L153.212 217.93C152.008 217.318 150.677 217 149.327 217C147.977 217 146.646 217.318 145.442 217.93L118.622 233.5C116.472 234.74 116.472 236.75 118.622 237.99L145.622 253.57C146.827 254.176 148.158 254.492 149.507 254.492C150.857 254.492 152.187 254.176 153.392 253.57L180.232 237.96C182.352 236.7 182.352 234.69 180.212 233.5Z" fill="url(#paint18_radial_463_953)"/>
  <path d="M180.212 237.16L153.372 252.76C152.168 253.371 150.837 253.69 149.487 253.69C148.137 253.69 146.806 253.371 145.602 252.76L118.602 237.19C118.227 237.005 117.894 236.745 117.626 236.424C117.357 236.104 117.158 235.731 117.042 235.33C116.842 236.27 117.352 237.25 118.602 237.97L145.602 253.55C146.807 254.156 148.138 254.472 149.487 254.472C150.836 254.472 152.167 254.156 153.372 253.55L180.212 237.94C181.452 237.22 181.972 236.24 181.772 235.3C181.656 235.701 181.457 236.074 181.189 236.394C180.92 236.715 180.587 236.975 180.212 237.16V237.16Z" fill="white"/>
  <path d="M157.002 256.99L155.732 257.73V256.26L157.002 255.52V256.99Z" fill="white"/>
  <path d="M159.672 255.45L158.402 256.19V254.71L159.672 253.98V255.45Z" fill="white"/>
  <path d="M162.352 253.91L161.072 254.64V253.17L162.352 252.43V253.91Z" fill="white"/>
  <path d="M160.163 258.16L158.883 258.89V257.42L160.163 256.68V258.16Z" fill="white"/>
  <path d="M162.512 256.8L161.242 257.54V256.06L162.512 255.32V256.8Z" fill="white"/>
  <path d="M170.923 248.96L169.643 249.7V248.22L170.923 247.49V248.96Z" fill="white"/>
  <path d="M178.282 244.71L177.002 245.45V243.97L178.282 243.24V244.71Z" fill="white"/>
  <path d="M165.022 252.36L163.742 253.1V251.63L165.022 250.89V252.36Z" fill="white"/>
  <g filter="url(#filter5_d_463_953)">
  <path d="M181.832 225.73V212.79L165.492 214.97L153.252 207.91C152.048 207.298 150.717 206.98 149.367 206.98C148.017 206.98 146.686 207.298 145.482 207.91L143.572 209.12L117.032 212.66V225.83C117.091 226.298 117.269 226.743 117.549 227.123C117.829 227.503 118.202 227.805 118.632 228L145.632 243.58C146.836 244.191 148.167 244.51 149.517 244.51C150.867 244.51 152.198 244.191 153.402 243.58L180.242 227.97C180.67 227.776 181.041 227.476 181.32 227.098C181.598 226.719 181.775 226.276 181.832 225.81V225.81V225.73Z" fill="url(#paint19_linear_463_953)"/>
  </g>
  <path d="M180.212 210.5L153.212 194.93C152.008 194.318 150.677 194 149.327 194C147.977 194 146.646 194.318 145.442 194.93L118.622 210.5C116.472 211.74 116.472 213.75 118.622 214.99L145.622 230.57C146.827 231.176 148.158 231.492 149.507 231.492C150.857 231.492 152.187 231.176 153.392 230.57L180.232 214.96C182.352 213.7 182.352 211.69 180.212 210.5Z" fill="url(#paint20_radial_463_953)"/>
  <path d="M180.212 210.5L153.212 194.93C152.008 194.318 150.677 194 149.327 194C147.977 194 146.646 194.318 145.442 194.93L118.622 210.5C116.472 211.74 116.472 213.75 118.622 214.99L145.622 230.57C146.827 231.176 148.158 231.492 149.507 231.492C150.857 231.492 152.187 231.176 153.392 230.57L180.232 214.96C182.352 213.7 182.352 211.69 180.212 210.5Z" fill="url(#paint21_radial_463_953)"/>
  <path d="M180.212 214.16L153.372 229.76C152.168 230.371 150.837 230.69 149.487 230.69C148.137 230.69 146.806 230.371 145.602 229.76L118.602 214.19C118.227 214.005 117.894 213.745 117.626 213.424C117.357 213.104 117.158 212.731 117.042 212.33C116.842 213.27 117.352 214.25 118.602 214.97L145.602 230.55C146.807 231.156 148.138 231.472 149.487 231.472C150.836 231.472 152.167 231.156 153.372 230.55L180.212 214.94C181.452 214.22 181.972 213.24 181.772 212.3C181.656 212.701 181.457 213.074 181.189 213.394C180.92 213.715 180.587 213.975 180.212 214.16V214.16Z" fill="white"/>
  <path d="M157.002 233.99L155.732 234.73V233.26L157.002 232.52V233.99Z" fill="white"/>
  <path d="M159.672 232.45L158.402 233.19V231.71L159.672 230.98V232.45Z" fill="white"/>
  <path d="M162.352 230.91L161.072 231.64V230.17L162.352 229.43V230.91Z" fill="white"/>
  <path d="M160.163 235.16L158.883 235.89V234.42L160.163 233.68V235.16Z" fill="white"/>
  <path d="M162.512 233.8L161.242 234.54V233.06L162.512 232.32V233.8Z" fill="white"/>
  <path d="M170.923 225.96L169.643 226.7V225.22L170.923 224.49V225.96Z" fill="white"/>
  <path d="M178.282 221.71L177.002 222.45V220.97L178.282 220.24V221.71Z" fill="white"/>
  <path d="M165.022 229.36L163.742 230.1V228.63L165.022 227.89V229.36Z" fill="white"/>
  <g filter="url(#filter6_d_463_953)">
  <path d="M181.832 202.73V189.79L165.492 191.97L153.252 184.91C152.048 184.298 150.717 183.98 149.367 183.98C148.017 183.98 146.686 184.298 145.482 184.91L143.572 186.12L117.032 189.66V202.83C117.091 203.298 117.269 203.743 117.549 204.123C117.829 204.503 118.202 204.805 118.632 205L145.632 220.58C146.836 221.191 148.167 221.51 149.517 221.51C150.867 221.51 152.198 221.191 153.402 220.58L180.242 204.97C180.67 204.776 181.041 204.476 181.32 204.098C181.598 203.719 181.775 203.276 181.832 202.81V202.81V202.73Z" fill="url(#paint22_linear_463_953)"/>
  </g>
  <path d="M180.212 187.5L153.212 171.93C152.008 171.318 150.677 171 149.327 171C147.977 171 146.646 171.318 145.442 171.93L118.622 187.5C116.472 188.74 116.472 190.75 118.622 191.99L145.622 207.57C146.827 208.176 148.158 208.492 149.507 208.492C150.857 208.492 152.187 208.176 153.392 207.57L180.232 191.96C182.352 190.7 182.352 188.69 180.212 187.5Z" fill="url(#paint23_radial_463_953)"/>
  <path d="M180.212 187.5L153.212 171.93C152.008 171.318 150.677 171 149.327 171C147.977 171 146.646 171.318 145.442 171.93L118.622 187.5C116.472 188.74 116.472 190.75 118.622 191.99L145.622 207.57C146.827 208.176 148.158 208.492 149.507 208.492C150.857 208.492 152.187 208.176 153.392 207.57L180.232 191.96C182.352 190.7 182.352 188.69 180.212 187.5Z" fill="url(#paint24_radial_463_953)"/>
  <path d="M180.212 191.16L153.372 206.76C152.168 207.371 150.837 207.69 149.487 207.69C148.137 207.69 146.806 207.371 145.602 206.76L118.602 191.19C118.227 191.005 117.894 190.745 117.626 190.424C117.357 190.104 117.158 189.731 117.042 189.33C116.842 190.27 117.352 191.25 118.602 191.97L145.602 207.55C146.807 208.156 148.138 208.472 149.487 208.472C150.836 208.472 152.167 208.156 153.372 207.55L180.212 191.94C181.452 191.22 181.972 190.24 181.772 189.3C181.656 189.701 181.457 190.074 181.189 190.394C180.92 190.715 180.587 190.975 180.212 191.16V191.16Z" fill="white"/>
  <path d="M157.002 210.99L155.732 211.73V210.26L157.002 209.52V210.99Z" fill="white"/>
  <path d="M159.672 209.45L158.402 210.19V208.71L159.672 207.98V209.45Z" fill="white"/>
  <path d="M162.352 207.91L161.072 208.64V207.17L162.352 206.43V207.91Z" fill="white"/>
  <path d="M160.163 212.16L158.883 212.89V211.42L160.163 210.68V212.16Z" fill="white"/>
  <path d="M162.512 210.8L161.242 211.54V210.06L162.512 209.32V210.8Z" fill="white"/>
  <path d="M170.923 202.96L169.643 203.7V202.22L170.923 201.49V202.96Z" fill="white"/>
  <path d="M178.282 198.71L177.002 199.45V197.97L178.282 197.24V198.71Z" fill="white"/>
  <path d="M165.022 206.36L163.742 207.1V205.63L165.022 204.89V206.36Z" fill="white"/>
  <g filter="url(#filter7_d_463_953)">
  <path d="M181.832 179.73V166.79L165.492 168.97L153.252 161.91C152.048 161.298 150.717 160.98 149.367 160.98C148.017 160.98 146.686 161.298 145.482 161.91L143.572 163.12L117.032 166.66V179.83C117.091 180.298 117.269 180.743 117.549 181.123C117.829 181.503 118.202 181.805 118.632 182L145.632 197.58C146.836 198.191 148.167 198.51 149.517 198.51C150.867 198.51 152.198 198.191 153.402 197.58L180.242 181.97C180.67 181.776 181.041 181.476 181.32 181.098C181.598 180.719 181.775 180.276 181.832 179.81V179.81V179.73Z" fill="url(#paint25_linear_463_953)"/>
  </g>
  <path d="M180.212 164.5L153.212 148.93C152.008 148.318 150.677 148 149.327 148C147.977 148 146.646 148.318 145.442 148.93L118.622 164.5C116.472 165.74 116.472 167.75 118.622 168.99L145.622 184.57C146.827 185.176 148.158 185.492 149.507 185.492C150.857 185.492 152.187 185.176 153.392 184.57L180.232 168.96C182.352 167.7 182.352 165.69 180.212 164.5Z" fill="url(#paint26_radial_463_953)"/>
  <path d="M180.212 164.5L153.212 148.93C152.008 148.318 150.677 148 149.327 148C147.977 148 146.646 148.318 145.442 148.93L118.622 164.5C116.472 165.74 116.472 167.75 118.622 168.99L145.622 184.57C146.827 185.176 148.158 185.492 149.507 185.492C150.857 185.492 152.187 185.176 153.392 184.57L180.232 168.96C182.352 167.7 182.352 165.69 180.212 164.5Z" fill="url(#paint27_radial_463_953)"/>
  <path d="M180.212 168.16L153.372 183.76C152.168 184.371 150.837 184.69 149.487 184.69C148.137 184.69 146.806 184.371 145.602 183.76L118.602 168.19C118.227 168.005 117.894 167.745 117.626 167.424C117.357 167.104 117.158 166.731 117.042 166.33C116.842 167.27 117.352 168.25 118.602 168.97L145.602 184.55C146.807 185.156 148.138 185.472 149.487 185.472C150.836 185.472 152.167 185.156 153.372 184.55L180.212 168.94C181.452 168.22 181.972 167.24 181.772 166.3C181.656 166.701 181.457 167.074 181.189 167.394C180.92 167.715 180.587 167.975 180.212 168.16V168.16Z" fill="white"/>
  <path d="M157.002 187.99L155.732 188.73V187.26L157.002 186.52V187.99Z" fill="white"/>
  <path d="M159.672 186.45L158.402 187.19V185.71L159.672 184.98V186.45Z" fill="white"/>
  <path d="M162.352 184.91L161.072 185.64V184.17L162.352 183.43V184.91Z" fill="white"/>
  <path d="M160.163 189.16L158.883 189.89V188.42L160.163 187.68V189.16Z" fill="white"/>
  <path d="M162.512 187.8L161.242 188.54V187.06L162.512 186.32V187.8Z" fill="white"/>
  <path d="M170.923 179.96L169.643 180.7V179.22L170.923 178.49V179.96Z" fill="white"/>
  <path d="M178.282 175.71L177.002 176.45V174.97L178.282 174.24V175.71Z" fill="white"/>
  <path d="M165.022 183.36L163.742 184.1V182.63L165.022 181.89V183.36Z" fill="white"/>
  <g filter="url(#filter8_d_463_953)">
  <path d="M181.832 156.73V143.79L165.492 145.97L153.252 138.91C152.048 138.298 150.717 137.98 149.367 137.98C148.017 137.98 146.686 138.298 145.482 138.91L143.572 140.12L117.032 143.66V156.83C117.091 157.298 117.269 157.743 117.549 158.123C117.829 158.503 118.202 158.805 118.632 159L145.632 174.58C146.836 175.191 148.167 175.51 149.517 175.51C150.867 175.51 152.198 175.191 153.402 174.58L180.242 158.97C180.67 158.776 181.041 158.476 181.32 158.098C181.598 157.719 181.775 157.276 181.832 156.81V156.81V156.73Z" fill="url(#paint28_linear_463_953)"/>
  </g>
  <path d="M180.212 141.5L153.212 125.93C152.008 125.318 150.677 125 149.327 125C147.977 125 146.646 125.318 145.442 125.93L118.622 141.5C116.472 142.74 116.472 144.75 118.622 145.99L145.622 161.57C146.827 162.176 148.158 162.492 149.507 162.492C150.857 162.492 152.187 162.176 153.392 161.57L180.232 145.96C182.352 144.7 182.352 142.69 180.212 141.5Z" fill="url(#paint29_radial_463_953)"/>
  <path d="M180.212 141.5L153.212 125.93C152.008 125.318 150.677 125 149.327 125C147.977 125 146.646 125.318 145.442 125.93L118.622 141.5C116.472 142.74 116.472 144.75 118.622 145.99L145.622 161.57C146.827 162.176 148.158 162.492 149.507 162.492C150.857 162.492 152.187 162.176 153.392 161.57L180.232 145.96C182.352 144.7 182.352 142.69 180.212 141.5Z" fill="url(#paint30_radial_463_953)"/>
  <g filter="url(#filter9_d_463_953)">
  <path d="M149.462 156.5C148.502 156.518 147.555 156.287 146.712 155.83L128.832 145.5C128.466 145.364 128.152 145.12 127.929 144.8C127.707 144.48 127.588 144.099 127.588 143.71C127.588 143.32 127.707 142.94 127.929 142.62C128.152 142.3 128.466 142.056 128.832 141.92L146.612 131.58C147.463 131.14 148.408 130.91 149.367 130.91C150.325 130.91 151.27 131.14 152.122 131.58L169.992 141.9C170.357 142.036 170.671 142.28 170.894 142.6C171.116 142.92 171.235 143.3 171.235 143.69C171.235 144.079 171.116 144.46 170.894 144.78C170.671 145.1 170.357 145.344 169.992 145.48L152.212 155.82C151.369 156.281 150.422 156.515 149.462 156.5ZM149.372 131.62C148.535 131.601 147.708 131.801 146.972 132.2L129.192 142.5C128.931 142.568 128.7 142.721 128.535 142.935C128.371 143.148 128.281 143.41 128.281 143.68C128.281 143.949 128.371 144.211 128.535 144.425C128.7 144.638 128.931 144.791 129.192 144.86L147.062 155.18C147.805 155.559 148.627 155.757 149.462 155.757C150.296 155.757 151.118 155.559 151.862 155.18L169.642 144.85C169.881 144.747 170.089 144.583 170.245 144.374C170.402 144.165 170.5 143.919 170.532 143.66C170.501 143.402 170.402 143.157 170.246 142.95C170.089 142.743 169.881 142.58 169.642 142.48L151.772 132.2C151.035 131.802 150.208 131.602 149.372 131.62Z" fill="#41AFFF"/>
  </g>
  <path d="M180.212 145.16L153.372 160.76C152.168 161.371 150.837 161.69 149.487 161.69C148.137 161.69 146.806 161.371 145.602 160.76L118.602 145.19C118.227 145.005 117.894 144.745 117.626 144.424C117.357 144.104 117.158 143.731 117.042 143.33C116.842 144.27 117.352 145.25 118.602 145.97L145.602 161.55C146.807 162.156 148.138 162.472 149.487 162.472C150.836 162.472 152.167 162.156 153.372 161.55L180.212 145.94C181.452 145.22 181.972 144.24 181.772 143.3C181.656 143.701 181.457 144.074 181.189 144.394C180.92 144.715 180.587 144.975 180.212 145.16V145.16Z" fill="white"/>
  <path d="M157.002 164.99L155.732 165.73V164.26L157.002 163.52V164.99Z" fill="white"/>
  <path d="M159.672 163.45L158.402 164.19V162.71L159.672 161.98V163.45Z" fill="white"/>
  <path d="M162.352 161.91L161.072 162.64V161.17L162.352 160.43V161.91Z" fill="white"/>
  <path d="M160.163 166.16L158.883 166.89V165.42L160.163 164.68V166.16Z" fill="white"/>
  <path d="M162.512 164.8L161.242 165.54V164.06L162.512 163.32V164.8Z" fill="white"/>
  <path d="M170.923 156.96L169.643 157.7V156.22L170.923 155.49V156.96Z" fill="white"/>
  <path d="M178.282 152.71L177.002 153.45V151.97L178.282 151.24V152.71Z" fill="white"/>
  <path d="M165.022 160.36L163.742 161.1V159.63L165.022 158.89V160.36Z" fill="white"/>
  <path d="M138.65 258.559L123.65 249.919C123.452 249.778 123.29 249.592 123.177 249.377C123.064 249.162 123.003 248.923 123 248.679V247.569C123 247.089 123.29 246.869 123.65 247.079L138.65 255.729C138.845 255.871 139.004 256.055 139.115 256.269C139.226 256.482 139.286 256.719 139.29 256.959V258.079C139.29 258.549 139 258.769 138.65 258.559Z" fill="white"/>
  <path style="mix-blend-mode:lighten" opacity="0.5" d="M182 249L182 29H117L117 248.766C117.018 249.025 117.105 249.273 117.253 249.485C117.402 249.696 117.604 249.862 117.839 249.964L147 266.5C147.626 266.818 148.816 266.983 149.516 266.983C150.216 266.983 151.874 266.818 152.5 266.5L181.175 250.289C181.414 250.168 181.616 249.984 181.761 249.758C181.906 249.531 181.988 249.27 182 249Z" fill="url(#paint31_linear_463_953)"/>
  <path d="M42.7379 281.054C41.3412 281.067 39.9643 280.723 38.7379 280.054L11.7379 264.484C11.2296 264.304 10.7895 263.971 10.4783 263.53C10.1671 263.09 10 262.564 10 262.024C10 261.485 10.1671 260.959 10.4783 260.518C10.7895 260.078 11.2296 259.745 11.7379 259.564L38.5779 243.954C39.8179 243.327 41.1882 243 42.5779 243C43.9676 243 45.3379 243.327 46.5779 243.954L73.5779 259.534C74.0863 259.715 74.5263 260.048 74.8376 260.488C75.1488 260.929 75.3159 261.455 75.3159 261.994C75.3159 262.534 75.1488 263.06 74.8376 263.5C74.5263 263.941 74.0863 264.274 73.5779 264.454L46.7479 280.054C45.5184 280.724 44.138 281.068 42.7379 281.054V281.054ZM42.5979 243.534C41.2884 243.509 39.9942 243.819 38.8379 244.434L11.9979 260.034C11.5882 260.184 11.2345 260.457 10.9846 260.814C10.7347 261.172 10.6006 261.598 10.6006 262.034C10.6006 262.471 10.7347 262.897 10.9846 263.254C11.2345 263.612 11.5882 263.884 11.9979 264.034L38.9979 279.614C40.1629 280.206 41.4512 280.515 42.7579 280.515C44.0647 280.515 45.3529 280.206 46.5179 279.614L73.3579 264.014C73.7572 263.838 74.1037 263.561 74.3632 263.211C74.6227 262.86 74.7863 262.448 74.8379 262.014C74.7893 261.58 74.6268 261.167 74.3669 260.815C74.107 260.464 73.7589 260.188 73.3579 260.014V260.014L46.3579 244.434C45.2001 243.823 43.907 243.514 42.5979 243.534V243.534Z" fill="#03A7D3"/>
  <path d="M74.8322 249.73V236.79L58.4922 238.97L46.2522 231.91C45.0484 231.298 43.7173 230.98 42.3672 230.98C41.0171 230.98 39.686 231.298 38.4822 231.91L36.5722 233.12L10.0322 236.66V249.83C10.0911 250.298 10.2691 250.743 10.5492 251.123C10.8293 251.503 11.2022 251.805 11.6322 252L38.6322 267.58C39.836 268.191 41.1671 268.51 42.5172 268.51C43.8673 268.51 45.1984 268.191 46.4022 267.58L73.2422 251.97C73.6702 251.776 74.0411 251.476 74.3196 251.098C74.598 250.719 74.7745 250.276 74.8322 249.81V249.81V249.73Z" fill="url(#paint32_linear_463_953)"/>
  <path d="M73.2123 234.5L46.2123 218.93C45.0085 218.318 43.6774 218 42.3273 218C40.9771 218 39.646 218.318 38.4422 218.93L11.6223 234.5C9.47227 235.74 9.47227 237.75 11.6223 238.99L38.6223 254.57C39.8275 255.176 41.158 255.492 42.5072 255.492C43.8565 255.492 45.1871 255.176 46.3923 254.57L73.2323 238.96C75.3523 237.7 75.3523 235.69 73.2123 234.5Z" fill="url(#paint33_radial_463_953)"/>
  <path d="M73.2123 234.5L46.2123 218.93C45.0085 218.318 43.6774 218 42.3273 218C40.9771 218 39.646 218.318 38.4422 218.93L11.6223 234.5C9.47227 235.74 9.47227 237.75 11.6223 238.99L38.6223 254.57C39.8275 255.176 41.158 255.492 42.5072 255.492C43.8565 255.492 45.1871 255.176 46.3923 254.57L73.2323 238.96C75.3523 237.7 75.3523 235.69 73.2123 234.5Z" fill="url(#paint34_radial_463_953)"/>
  <path d="M73.2122 238.16L46.3722 253.76C45.1684 254.371 43.8373 254.69 42.4872 254.69C41.137 254.69 39.806 254.371 38.6022 253.76L11.6022 238.19C11.2269 238.005 10.8943 237.745 10.6256 237.424C10.357 237.104 10.1582 236.731 10.0422 236.33C9.84217 237.27 10.3522 238.25 11.6022 238.97L38.6022 254.55C39.8074 255.156 41.1379 255.472 42.4872 255.472C43.8365 255.472 45.167 255.156 46.3722 254.55L73.2122 238.94C74.4522 238.22 74.9722 237.24 74.7722 236.3C74.6561 236.701 74.4574 237.074 74.1887 237.394C73.9201 237.715 73.5875 237.975 73.2122 238.16V238.16Z" fill="white"/>
  <path d="M50.0024 257.99L48.7324 258.73V257.26L50.0024 256.52V257.99Z" fill="white"/>
  <path d="M52.6723 256.45L51.4023 257.19V255.71L52.6723 254.98V256.45Z" fill="white"/>
  <path d="M55.3523 254.91L54.0723 255.64V254.17L55.3523 253.43V254.91Z" fill="white"/>
  <path d="M53.1628 259.16L51.8828 259.89V258.42L53.1628 257.68V259.16Z" fill="white"/>
  <path d="M55.5122 257.8L54.2422 258.54V257.06L55.5122 256.32V257.8Z" fill="white"/>
  <path d="M63.9226 249.96L62.6426 250.7V249.22L63.9226 248.49V249.96Z" fill="white"/>
  <path d="M71.282 245.71L70.002 246.45V244.97L71.282 244.24V245.71Z" fill="white"/>
  <path d="M58.0222 253.36L56.7422 254.1V252.63L58.0222 251.89V253.36Z" fill="white"/>
  <g filter="url(#filter10_d_463_953)">
  <path d="M74.8322 226.73V213.79L58.4922 215.97L46.2522 208.91C45.0484 208.298 43.7173 207.98 42.3672 207.98C41.0171 207.98 39.686 208.298 38.4822 208.91L36.5722 210.12L10.0322 213.66V226.83C10.0911 227.298 10.2691 227.743 10.5492 228.123C10.8293 228.503 11.2022 228.805 11.6322 229L38.6322 244.58C39.836 245.191 41.1671 245.51 42.5172 245.51C43.8673 245.51 45.1984 245.191 46.4022 244.58L73.2422 228.97C73.6702 228.776 74.0411 228.476 74.3196 228.098C74.598 227.719 74.7745 227.276 74.8322 226.81V226.81V226.73Z" fill="url(#paint35_linear_463_953)"/>
  </g>
  <path d="M73.2123 211.5L46.2123 195.93C45.0085 195.318 43.6774 195 42.3273 195C40.9771 195 39.646 195.318 38.4422 195.93L11.6223 211.5C9.47227 212.74 9.47227 214.75 11.6223 215.99L38.6223 231.57C39.8275 232.176 41.158 232.492 42.5072 232.492C43.8565 232.492 45.1871 232.176 46.3923 231.57L73.2323 215.96C75.3523 214.7 75.3523 212.69 73.2123 211.5Z" fill="url(#paint36_radial_463_953)"/>
  <path d="M73.2123 211.5L46.2123 195.93C45.0085 195.318 43.6774 195 42.3273 195C40.9771 195 39.646 195.318 38.4422 195.93L11.6223 211.5C9.47227 212.74 9.47227 214.75 11.6223 215.99L38.6223 231.57C39.8275 232.176 41.158 232.492 42.5072 232.492C43.8565 232.492 45.1871 232.176 46.3923 231.57L73.2323 215.96C75.3523 214.7 75.3523 212.69 73.2123 211.5Z" fill="url(#paint37_radial_463_953)"/>
  <path d="M73.2122 215.16L46.3722 230.76C45.1684 231.371 43.8373 231.69 42.4872 231.69C41.137 231.69 39.806 231.371 38.6022 230.76L11.6022 215.19C11.2269 215.005 10.8943 214.745 10.6256 214.424C10.357 214.104 10.1582 213.731 10.0422 213.33C9.84217 214.27 10.3522 215.25 11.6022 215.97L38.6022 231.55C39.8074 232.156 41.1379 232.472 42.4872 232.472C43.8365 232.472 45.167 232.156 46.3722 231.55L73.2122 215.94C74.4522 215.22 74.9722 214.24 74.7722 213.3C74.6561 213.701 74.4574 214.074 74.1887 214.394C73.9201 214.715 73.5875 214.975 73.2122 215.16V215.16Z" fill="white"/>
  <path d="M50.0024 234.99L48.7324 235.73V234.26L50.0024 233.52V234.99Z" fill="white"/>
  <path d="M52.6723 233.45L51.4023 234.19V232.71L52.6723 231.98V233.45Z" fill="white"/>
  <path d="M55.3523 231.91L54.0723 232.64V231.17L55.3523 230.43V231.91Z" fill="white"/>
  <path d="M53.1628 236.16L51.8828 236.89V235.42L53.1628 234.68V236.16Z" fill="white"/>
  <path d="M55.5122 234.8L54.2422 235.54V234.06L55.5122 233.32V234.8Z" fill="white"/>
  <path d="M63.9226 226.96L62.6426 227.7V226.22L63.9226 225.49V226.96Z" fill="white"/>
  <path d="M71.282 222.71L70.002 223.45V221.97L71.282 221.24V222.71Z" fill="white"/>
  <path d="M58.0222 230.36L56.7422 231.1V229.63L58.0222 228.89V230.36Z" fill="white"/>
  <g filter="url(#filter11_d_463_953)">
  <path d="M74.8322 203.73V190.79L58.4922 192.97L46.2522 185.91C45.0484 185.298 43.7173 184.98 42.3672 184.98C41.0171 184.98 39.686 185.298 38.4822 185.91L36.5722 187.12L10.0322 190.66V203.83C10.0911 204.298 10.2691 204.743 10.5492 205.123C10.8293 205.503 11.2022 205.805 11.6322 206L38.6322 221.58C39.836 222.191 41.1671 222.51 42.5172 222.51C43.8673 222.51 45.1984 222.191 46.4022 221.58L73.2422 205.97C73.6702 205.776 74.0411 205.476 74.3196 205.098C74.598 204.719 74.7745 204.276 74.8322 203.81V203.81V203.73Z" fill="url(#paint38_linear_463_953)"/>
  </g>
  <path d="M73.2123 188.5L46.2123 172.93C45.0085 172.318 43.6774 172 42.3273 172C40.9771 172 39.646 172.318 38.4422 172.93L11.6223 188.5C9.47227 189.74 9.47227 191.75 11.6223 192.99L38.6223 208.57C39.8275 209.176 41.158 209.492 42.5072 209.492C43.8565 209.492 45.1871 209.176 46.3923 208.57L73.2323 192.96C75.3523 191.7 75.3523 189.69 73.2123 188.5Z" fill="url(#paint39_radial_463_953)"/>
  <path d="M73.2123 188.5L46.2123 172.93C45.0085 172.318 43.6774 172 42.3273 172C40.9771 172 39.646 172.318 38.4422 172.93L11.6223 188.5C9.47227 189.74 9.47227 191.75 11.6223 192.99L38.6223 208.57C39.8275 209.176 41.158 209.492 42.5072 209.492C43.8565 209.492 45.1871 209.176 46.3923 208.57L73.2323 192.96C75.3523 191.7 75.3523 189.69 73.2123 188.5Z" fill="url(#paint40_radial_463_953)"/>
  <path d="M73.2122 192.16L46.3722 207.76C45.1684 208.371 43.8373 208.69 42.4872 208.69C41.137 208.69 39.806 208.371 38.6022 207.76L11.6022 192.19C11.2269 192.005 10.8943 191.745 10.6256 191.424C10.357 191.104 10.1582 190.731 10.0422 190.33C9.84217 191.27 10.3522 192.25 11.6022 192.97L38.6022 208.55C39.8074 209.156 41.1379 209.472 42.4872 209.472C43.8365 209.472 45.167 209.156 46.3722 208.55L73.2122 192.94C74.4522 192.22 74.9722 191.24 74.7722 190.3C74.6561 190.701 74.4574 191.074 74.1887 191.394C73.9201 191.715 73.5875 191.975 73.2122 192.16V192.16Z" fill="white"/>
  <path d="M50.0024 211.99L48.7324 212.73V211.26L50.0024 210.52V211.99Z" fill="white"/>
  <path d="M52.6723 210.45L51.4023 211.19V209.71L52.6723 208.98V210.45Z" fill="white"/>
  <path d="M55.3523 208.91L54.0723 209.64V208.17L55.3523 207.43V208.91Z" fill="white"/>
  <path d="M53.1628 213.16L51.8828 213.89V212.42L53.1628 211.68V213.16Z" fill="white"/>
  <path d="M55.5122 211.8L54.2422 212.54V211.06L55.5122 210.32V211.8Z" fill="white"/>
  <path d="M63.9226 203.96L62.6426 204.7V203.22L63.9226 202.49V203.96Z" fill="white"/>
  <path d="M71.282 199.71L70.002 200.45V198.97L71.282 198.24V199.71Z" fill="white"/>
  <path d="M58.0222 207.36L56.7422 208.1V206.63L58.0222 205.89V207.36Z" fill="white"/>
  <g filter="url(#filter12_d_463_953)">
  <path d="M74.8322 180.73V167.79L58.4922 169.97L46.2522 162.91C45.0484 162.298 43.7173 161.98 42.3672 161.98C41.0171 161.98 39.686 162.298 38.4822 162.91L36.5722 164.12L10.0322 167.66V180.83C10.0911 181.298 10.2691 181.743 10.5492 182.123C10.8293 182.503 11.2022 182.805 11.6322 183L38.6322 198.58C39.836 199.191 41.1671 199.51 42.5172 199.51C43.8673 199.51 45.1984 199.191 46.4022 198.58L73.2422 182.97C73.6702 182.776 74.0411 182.476 74.3196 182.098C74.598 181.719 74.7745 181.276 74.8322 180.81V180.81V180.73Z" fill="url(#paint41_linear_463_953)"/>
  </g>
  <path d="M73.2123 165.5L46.2123 149.93C45.0085 149.318 43.6774 149 42.3273 149C40.9771 149 39.646 149.318 38.4422 149.93L11.6223 165.5C9.47227 166.74 9.47227 168.75 11.6223 169.99L38.6223 185.57C39.8275 186.176 41.158 186.492 42.5072 186.492C43.8565 186.492 45.1871 186.176 46.3923 185.57L73.2323 169.96C75.3523 168.7 75.3523 166.69 73.2123 165.5Z" fill="url(#paint42_radial_463_953)"/>
  <path d="M73.2123 165.5L46.2123 149.93C45.0085 149.318 43.6774 149 42.3273 149C40.9771 149 39.646 149.318 38.4422 149.93L11.6223 165.5C9.47227 166.74 9.47227 168.75 11.6223 169.99L38.6223 185.57C39.8275 186.176 41.158 186.492 42.5072 186.492C43.8565 186.492 45.1871 186.176 46.3923 185.57L73.2323 169.96C75.3523 168.7 75.3523 166.69 73.2123 165.5Z" fill="url(#paint43_radial_463_953)"/>
  <path d="M73.2122 169.16L46.3722 184.76C45.1684 185.371 43.8373 185.69 42.4872 185.69C41.137 185.69 39.806 185.371 38.6022 184.76L11.6022 169.19C11.2269 169.005 10.8943 168.745 10.6256 168.424C10.357 168.104 10.1582 167.731 10.0422 167.33C9.84217 168.27 10.3522 169.25 11.6022 169.97L38.6022 185.55C39.8074 186.156 41.1379 186.472 42.4872 186.472C43.8365 186.472 45.167 186.156 46.3722 185.55L73.2122 169.94C74.4522 169.22 74.9722 168.24 74.7722 167.3C74.6561 167.701 74.4574 168.074 74.1887 168.394C73.9201 168.715 73.5875 168.975 73.2122 169.16V169.16Z" fill="white"/>
  <path d="M50.0024 188.99L48.7324 189.73V188.26L50.0024 187.52V188.99Z" fill="white"/>
  <path d="M52.6723 187.45L51.4023 188.19V186.71L52.6723 185.98V187.45Z" fill="white"/>
  <path d="M55.3523 185.91L54.0723 186.64V185.17L55.3523 184.43V185.91Z" fill="white"/>
  <path d="M53.1628 190.16L51.8828 190.89V189.42L53.1628 188.68V190.16Z" fill="white"/>
  <path d="M55.5122 188.8L54.2422 189.54V188.06L55.5122 187.32V188.8Z" fill="white"/>
  <path d="M63.9226 180.96L62.6426 181.7V180.22L63.9226 179.49V180.96Z" fill="white"/>
  <path d="M71.282 176.71L70.002 177.45V175.97L71.282 175.24V176.71Z" fill="white"/>
  <path d="M58.0222 184.36L56.7422 185.1V183.63L58.0222 182.89V184.36Z" fill="white"/>
  <g filter="url(#filter13_d_463_953)">
  <path d="M74.8322 157.73V144.79L58.4922 146.97L46.2522 139.91C45.0484 139.298 43.7173 138.98 42.3672 138.98C41.0171 138.98 39.686 139.298 38.4822 139.91L36.5722 141.12L10.0322 144.66V157.83C10.0911 158.298 10.2691 158.743 10.5492 159.123C10.8293 159.503 11.2022 159.805 11.6322 160L38.6322 175.58C39.836 176.191 41.1671 176.51 42.5172 176.51C43.8673 176.51 45.1984 176.191 46.4022 175.58L73.2422 159.97C73.6702 159.776 74.0411 159.476 74.3196 159.098C74.598 158.719 74.7745 158.276 74.8322 157.81V157.81V157.73Z" fill="url(#paint44_linear_463_953)"/>
  </g>
  <path d="M73.2123 142.5L46.2123 126.93C45.0085 126.318 43.6774 126 42.3273 126C40.9771 126 39.646 126.318 38.4422 126.93L11.6223 142.5C9.47227 143.74 9.47227 145.75 11.6223 146.99L38.6223 162.57C39.8275 163.176 41.158 163.492 42.5072 163.492C43.8565 163.492 45.1871 163.176 46.3923 162.57L73.2323 146.96C75.3523 145.7 75.3523 143.69 73.2123 142.5Z" fill="url(#paint45_radial_463_953)"/>
  <path d="M73.2123 142.5L46.2123 126.93C45.0085 126.318 43.6774 126 42.3273 126C40.9771 126 39.646 126.318 38.4422 126.93L11.6223 142.5C9.47227 143.74 9.47227 145.75 11.6223 146.99L38.6223 162.57C39.8275 163.176 41.158 163.492 42.5072 163.492C43.8565 163.492 45.1871 163.176 46.3923 162.57L73.2323 146.96C75.3523 145.7 75.3523 143.69 73.2123 142.5Z" fill="url(#paint46_radial_463_953)"/>
  <g filter="url(#filter14_d_463_953)">
  <path d="M42.4615 157.5C41.5024 157.518 40.5549 157.287 39.7115 156.83L21.8315 146.5C21.4664 146.364 21.1516 146.12 20.9293 145.8C20.707 145.48 20.5879 145.099 20.5879 144.71C20.5879 144.32 20.707 143.94 20.9293 143.62C21.1516 143.3 21.4664 143.056 21.8315 142.92L39.6115 132.58C40.4632 132.14 41.4079 131.91 42.3665 131.91C43.3252 131.91 44.2699 132.14 45.1216 132.58L62.9915 142.9C63.3567 143.036 63.6715 143.28 63.8938 143.6C64.1161 143.92 64.2352 144.3 64.2352 144.69C64.2352 145.079 64.1161 145.46 63.8938 145.78C63.6715 146.1 63.3567 146.344 62.9915 146.48L45.2115 156.82C44.3691 157.281 43.4216 157.515 42.4615 157.5ZM42.3716 132.62C41.5348 132.601 40.7076 132.801 39.9716 133.2L22.1915 143.5C21.9308 143.568 21.7 143.721 21.5354 143.935C21.3707 144.148 21.2814 144.41 21.2814 144.68C21.2814 144.949 21.3707 145.211 21.5354 145.425C21.7 145.638 21.9308 145.791 22.1915 145.86L40.0616 156.18C40.8047 156.559 41.6272 156.757 42.4615 156.757C43.2959 156.757 44.1184 156.559 44.8615 156.18L62.6415 145.85C62.881 145.747 63.0893 145.583 63.2455 145.374C63.4017 145.165 63.5003 144.919 63.5316 144.66C63.5006 144.402 63.402 144.157 63.2456 143.95C63.0893 143.743 62.8809 143.58 62.6415 143.48L44.7715 133.2C44.0351 132.802 43.2082 132.602 42.3716 132.62Z" fill="#41AFFF"/>
  </g>
  <path d="M73.2122 146.16L46.3722 161.76C45.1684 162.371 43.8373 162.69 42.4872 162.69C41.137 162.69 39.806 162.371 38.6022 161.76L11.6022 146.19C11.2269 146.005 10.8943 145.745 10.6256 145.424C10.357 145.104 10.1582 144.731 10.0422 144.33C9.84217 145.27 10.3522 146.25 11.6022 146.97L38.6022 162.55C39.8074 163.156 41.1379 163.472 42.4872 163.472C43.8365 163.472 45.167 163.156 46.3722 162.55L73.2122 146.94C74.4522 146.22 74.9722 145.24 74.7722 144.3C74.6561 144.701 74.4574 145.074 74.1887 145.394C73.9201 145.715 73.5875 145.975 73.2122 146.16V146.16Z" fill="white"/>
  <path d="M50.0024 165.99L48.7324 166.73V165.26L50.0024 164.52V165.99Z" fill="white"/>
  <path d="M52.6723 164.45L51.4023 165.19V163.71L52.6723 162.98V164.45Z" fill="white"/>
  <path d="M55.3523 162.91L54.0723 163.64V162.17L55.3523 161.43V162.91Z" fill="white"/>
  <path d="M53.1628 167.16L51.8828 167.89V166.42L53.1628 165.68V167.16Z" fill="white"/>
  <path d="M55.5122 165.8L54.2422 166.54V165.06L55.5122 164.32V165.8Z" fill="white"/>
  <path d="M63.9226 157.96L62.6426 158.7V157.22L63.9226 156.49V157.96Z" fill="white"/>
  <path d="M71.282 153.71L70.002 154.45V152.97L71.282 152.24V153.71Z" fill="white"/>
  <path d="M58.0222 161.36L56.7422 162.1V160.63L58.0222 159.89V161.36Z" fill="white"/>
  <path d="M31.65 259.559L16.65 250.919C16.452 250.778 16.29 250.592 16.177 250.377C16.0641 250.162 16.0035 249.923 16 249.679V248.569C16 248.089 16.29 247.869 16.65 248.079L31.65 256.729C31.8449 256.871 32.0041 257.055 32.1152 257.269C32.2263 257.482 32.2861 257.719 32.29 257.959V259.079C32.29 259.549 32 259.769 31.65 259.559Z" fill="white"/>
  <path style="mix-blend-mode:lighten" opacity="0.5" d="M75 250L75.0005 30H10.0005L10 249.766C10.0177 250.025 10.1054 250.273 10.2534 250.485C10.4015 250.696 10.6043 250.862 10.8395 250.964L40 267.5C40.6258 267.818 41.8161 267.983 42.5162 267.983C43.2163 267.983 44.8742 267.818 45.5 267.5L74.1754 251.289C74.4138 251.168 74.616 250.984 74.7609 250.758C74.9059 250.531 74.9884 250.27 75 250Z" fill="url(#paint47_linear_463_953)"/>
  <path d="M95.7379 310.054C94.3412 310.067 92.9643 309.723 91.7379 309.054L64.7379 293.484C64.2296 293.304 63.7895 292.971 63.4783 292.53C63.1671 292.09 63 291.564 63 291.024C63 290.485 63.1671 289.959 63.4783 289.518C63.7895 289.078 64.2296 288.745 64.7379 288.564L91.5779 272.954C92.8179 272.327 94.1882 272 95.5779 272C96.9676 272 98.3379 272.327 99.5779 272.954L126.578 288.534C127.086 288.715 127.526 289.048 127.838 289.488C128.149 289.929 128.316 290.455 128.316 290.994C128.316 291.534 128.149 292.06 127.838 292.5C127.526 292.941 127.086 293.274 126.578 293.454L99.7479 309.054C98.5184 309.724 97.138 310.068 95.7379 310.054V310.054ZM95.5979 272.534C94.2884 272.509 92.9942 272.819 91.8379 273.434L64.9979 289.034C64.5882 289.184 64.2345 289.457 63.9846 289.814C63.7347 290.172 63.6006 290.598 63.6006 291.034C63.6006 291.471 63.7347 291.897 63.9846 292.254C64.2345 292.612 64.5882 292.884 64.9979 293.034L91.9979 308.614C93.1629 309.206 94.4512 309.515 95.7579 309.515C97.0647 309.515 98.3529 309.206 99.5179 308.614L126.358 293.014C126.757 292.838 127.104 292.561 127.363 292.211C127.623 291.86 127.786 291.448 127.838 291.014C127.789 290.58 127.627 290.167 127.367 289.815C127.107 289.464 126.759 289.188 126.358 289.014V289.014L99.3579 273.434C98.2001 272.823 96.907 272.514 95.5979 272.534V272.534Z" fill="#03A7D3"/>
  <path d="M127.832 278.73V265.79L111.492 267.97L99.2522 260.91C98.0484 260.298 96.7173 259.98 95.3672 259.98C94.0171 259.98 92.686 260.298 91.4822 260.91L89.5722 262.12L63.0322 265.66V278.83C63.0911 279.298 63.2691 279.743 63.5492 280.123C63.8293 280.503 64.2022 280.805 64.6322 281L91.6322 296.58C92.836 297.191 94.1671 297.51 95.5172 297.51C96.8673 297.51 98.1984 297.191 99.4022 296.58L126.242 280.97C126.67 280.776 127.041 280.476 127.32 280.098C127.598 279.719 127.775 279.276 127.832 278.81V278.81V278.73Z" fill="url(#paint48_linear_463_953)"/>
  <path d="M126.212 263.5L99.2123 247.93C98.0085 247.318 96.6774 247 95.3273 247C93.9771 247 92.646 247.318 91.4422 247.93L64.6223 263.5C62.4723 264.74 62.4723 266.75 64.6223 267.99L91.6223 283.57C92.8275 284.176 94.158 284.492 95.5072 284.492C96.8565 284.492 98.1871 284.176 99.3923 283.57L126.232 267.96C128.352 266.7 128.352 264.69 126.212 263.5Z" fill="url(#paint49_radial_463_953)"/>
  <path d="M126.212 263.5L99.2123 247.93C98.0085 247.318 96.6774 247 95.3273 247C93.9771 247 92.646 247.318 91.4422 247.93L64.6223 263.5C62.4723 264.74 62.4723 266.75 64.6223 267.99L91.6223 283.57C92.8275 284.176 94.158 284.492 95.5072 284.492C96.8565 284.492 98.1871 284.176 99.3923 283.57L126.232 267.96C128.352 266.7 128.352 264.69 126.212 263.5Z" fill="url(#paint50_radial_463_953)"/>
  <path d="M126.212 267.16L99.3722 282.76C98.1684 283.371 96.8373 283.69 95.4872 283.69C94.137 283.69 92.806 283.371 91.6022 282.76L64.6022 267.19C64.2269 267.005 63.8943 266.745 63.6256 266.424C63.357 266.104 63.1582 265.731 63.0422 265.33C62.8422 266.27 63.3522 267.25 64.6022 267.97L91.6022 283.55C92.8074 284.156 94.1379 284.472 95.4872 284.472C96.8365 284.472 98.167 284.156 99.3722 283.55L126.212 267.94C127.452 267.22 127.972 266.24 127.772 265.3C127.656 265.701 127.457 266.074 127.189 266.394C126.92 266.715 126.587 266.975 126.212 267.16V267.16Z" fill="white"/>
  <path d="M103.002 286.99L101.732 287.73V286.26L103.002 285.52V286.99Z" fill="white"/>
  <path d="M105.672 285.45L104.402 286.19V284.71L105.672 283.98V285.45Z" fill="white"/>
  <path d="M108.352 283.91L107.072 284.64V283.17L108.352 282.43V283.91Z" fill="white"/>
  <path d="M106.163 288.16L104.883 288.89V287.42L106.163 286.68V288.16Z" fill="white"/>
  <path d="M108.512 286.8L107.242 287.54V286.06L108.512 285.32V286.8Z" fill="white"/>
  <path d="M116.923 278.96L115.643 279.7V278.22L116.923 277.49V278.96Z" fill="white"/>
  <path d="M124.282 274.71L123.002 275.45V273.97L124.282 273.24V274.71Z" fill="white"/>
  <path d="M111.022 282.36L109.742 283.1V281.63L111.022 280.89V282.36Z" fill="white"/>
  <g filter="url(#filter15_d_463_953)">
  <path d="M127.832 255.73V242.79L111.492 244.97L99.2522 237.91C98.0484 237.298 96.7173 236.98 95.3672 236.98C94.0171 236.98 92.686 237.298 91.4822 237.91L89.5722 239.12L63.0322 242.66V255.83C63.0911 256.298 63.2691 256.743 63.5492 257.123C63.8293 257.503 64.2022 257.805 64.6322 258L91.6322 273.58C92.836 274.191 94.1671 274.51 95.5172 274.51C96.8673 274.51 98.1984 274.191 99.4022 273.58L126.242 257.97C126.67 257.776 127.041 257.476 127.32 257.098C127.598 256.719 127.775 256.276 127.832 255.81V255.81V255.73Z" fill="url(#paint51_linear_463_953)"/>
  </g>
  <path d="M126.212 240.5L99.2123 224.93C98.0085 224.318 96.6774 224 95.3273 224C93.9771 224 92.646 224.318 91.4422 224.93L64.6223 240.5C62.4723 241.74 62.4723 243.75 64.6223 244.99L91.6223 260.57C92.8275 261.176 94.158 261.492 95.5072 261.492C96.8565 261.492 98.1871 261.176 99.3923 260.57L126.232 244.96C128.352 243.7 128.352 241.69 126.212 240.5Z" fill="url(#paint52_radial_463_953)"/>
  <path d="M126.212 240.5L99.2123 224.93C98.0085 224.318 96.6774 224 95.3273 224C93.9771 224 92.646 224.318 91.4422 224.93L64.6223 240.5C62.4723 241.74 62.4723 243.75 64.6223 244.99L91.6223 260.57C92.8275 261.176 94.158 261.492 95.5072 261.492C96.8565 261.492 98.1871 261.176 99.3923 260.57L126.232 244.96C128.352 243.7 128.352 241.69 126.212 240.5Z" fill="url(#paint53_radial_463_953)"/>
  <path d="M126.212 244.16L99.3722 259.76C98.1684 260.371 96.8373 260.69 95.4872 260.69C94.137 260.69 92.806 260.371 91.6022 259.76L64.6022 244.19C64.2269 244.005 63.8943 243.745 63.6256 243.424C63.357 243.104 63.1582 242.731 63.0422 242.33C62.8422 243.27 63.3522 244.25 64.6022 244.97L91.6022 260.55C92.8074 261.156 94.1379 261.472 95.4872 261.472C96.8365 261.472 98.167 261.156 99.3722 260.55L126.212 244.94C127.452 244.22 127.972 243.24 127.772 242.3C127.656 242.701 127.457 243.074 127.189 243.394C126.92 243.715 126.587 243.975 126.212 244.16V244.16Z" fill="white"/>
  <path d="M103.002 263.99L101.732 264.73V263.26L103.002 262.52V263.99Z" fill="white"/>
  <path d="M105.672 262.45L104.402 263.19V261.71L105.672 260.98V262.45Z" fill="white"/>
  <path d="M108.352 260.91L107.072 261.64V260.17L108.352 259.43V260.91Z" fill="white"/>
  <path d="M106.163 265.16L104.883 265.89V264.42L106.163 263.68V265.16Z" fill="white"/>
  <path d="M108.512 263.8L107.242 264.54V263.06L108.512 262.32V263.8Z" fill="white"/>
  <path d="M116.923 255.96L115.643 256.7V255.22L116.923 254.49V255.96Z" fill="white"/>
  <path d="M124.282 251.71L123.002 252.45V250.97L124.282 250.24V251.71Z" fill="white"/>
  <path d="M111.022 259.36L109.742 260.1V258.63L111.022 257.89V259.36Z" fill="white"/>
  <g filter="url(#filter16_d_463_953)">
  <path d="M127.832 232.73V219.79L111.492 221.97L99.2522 214.91C98.0484 214.298 96.7173 213.98 95.3672 213.98C94.0171 213.98 92.686 214.298 91.4822 214.91L89.5722 216.12L63.0322 219.66V232.83C63.0911 233.298 63.2691 233.743 63.5492 234.123C63.8293 234.503 64.2022 234.805 64.6322 235L91.6322 250.58C92.836 251.191 94.1671 251.51 95.5172 251.51C96.8673 251.51 98.1984 251.191 99.4022 250.58L126.242 234.97C126.67 234.776 127.041 234.476 127.32 234.098C127.598 233.719 127.775 233.276 127.832 232.81V232.81V232.73Z" fill="url(#paint54_linear_463_953)"/>
  </g>
  <path d="M126.212 217.5L99.2123 201.93C98.0085 201.318 96.6774 201 95.3273 201C93.9771 201 92.646 201.318 91.4422 201.93L64.6223 217.5C62.4723 218.74 62.4723 220.75 64.6223 221.99L91.6223 237.57C92.8275 238.176 94.158 238.492 95.5072 238.492C96.8565 238.492 98.1871 238.176 99.3923 237.57L126.232 221.96C128.352 220.7 128.352 218.69 126.212 217.5Z" fill="url(#paint55_radial_463_953)"/>
  <path d="M126.212 217.5L99.2123 201.93C98.0085 201.318 96.6774 201 95.3273 201C93.9771 201 92.646 201.318 91.4422 201.93L64.6223 217.5C62.4723 218.74 62.4723 220.75 64.6223 221.99L91.6223 237.57C92.8275 238.176 94.158 238.492 95.5072 238.492C96.8565 238.492 98.1871 238.176 99.3923 237.57L126.232 221.96C128.352 220.7 128.352 218.69 126.212 217.5Z" fill="url(#paint56_radial_463_953)"/>
  <path d="M126.212 221.16L99.3722 236.76C98.1684 237.371 96.8373 237.69 95.4872 237.69C94.137 237.69 92.806 237.371 91.6022 236.76L64.6022 221.19C64.2269 221.005 63.8943 220.745 63.6256 220.424C63.357 220.104 63.1582 219.731 63.0422 219.33C62.8422 220.27 63.3522 221.25 64.6022 221.97L91.6022 237.55C92.8074 238.156 94.1379 238.472 95.4872 238.472C96.8365 238.472 98.167 238.156 99.3722 237.55L126.212 221.94C127.452 221.22 127.972 220.24 127.772 219.3C127.656 219.701 127.457 220.074 127.189 220.394C126.92 220.715 126.587 220.975 126.212 221.16V221.16Z" fill="white"/>
  <path d="M103.002 240.99L101.732 241.73V240.26L103.002 239.52V240.99Z" fill="white"/>
  <path d="M105.672 239.45L104.402 240.19V238.71L105.672 237.98V239.45Z" fill="white"/>
  <path d="M108.352 237.91L107.072 238.64V237.17L108.352 236.43V237.91Z" fill="white"/>
  <path d="M106.163 242.16L104.883 242.89V241.42L106.163 240.68V242.16Z" fill="white"/>
  <path d="M108.512 240.8L107.242 241.54V240.06L108.512 239.32V240.8Z" fill="white"/>
  <path d="M116.923 232.96L115.643 233.7V232.22L116.923 231.49V232.96Z" fill="white"/>
  <path d="M124.282 228.71L123.002 229.45V227.97L124.282 227.24V228.71Z" fill="white"/>
  <path d="M111.022 236.36L109.742 237.1V235.63L111.022 234.89V236.36Z" fill="white"/>
  <g filter="url(#filter17_d_463_953)">
  <path d="M127.832 209.73V196.79L111.492 198.97L99.2522 191.91C98.0484 191.298 96.7173 190.98 95.3672 190.98C94.0171 190.98 92.686 191.298 91.4822 191.91L89.5722 193.12L63.0322 196.66V209.83C63.0911 210.298 63.2691 210.743 63.5492 211.123C63.8293 211.503 64.2022 211.805 64.6322 212L91.6322 227.58C92.836 228.191 94.1671 228.51 95.5172 228.51C96.8673 228.51 98.1984 228.191 99.4022 227.58L126.242 211.97C126.67 211.776 127.041 211.476 127.32 211.098C127.598 210.719 127.775 210.276 127.832 209.81V209.81V209.73Z" fill="url(#paint57_linear_463_953)"/>
  </g>
  <path d="M126.212 194.5L99.2123 178.93C98.0085 178.318 96.6774 178 95.3273 178C93.9771 178 92.646 178.318 91.4422 178.93L64.6223 194.5C62.4723 195.74 62.4723 197.75 64.6223 198.99L91.6223 214.57C92.8275 215.176 94.158 215.492 95.5072 215.492C96.8565 215.492 98.1871 215.176 99.3923 214.57L126.232 198.96C128.352 197.7 128.352 195.69 126.212 194.5Z" fill="url(#paint58_radial_463_953)"/>
  <path d="M126.212 194.5L99.2123 178.93C98.0085 178.318 96.6774 178 95.3273 178C93.9771 178 92.646 178.318 91.4422 178.93L64.6223 194.5C62.4723 195.74 62.4723 197.75 64.6223 198.99L91.6223 214.57C92.8275 215.176 94.158 215.492 95.5072 215.492C96.8565 215.492 98.1871 215.176 99.3923 214.57L126.232 198.96C128.352 197.7 128.352 195.69 126.212 194.5Z" fill="url(#paint59_radial_463_953)"/>
  <path d="M126.212 198.16L99.3722 213.76C98.1684 214.371 96.8373 214.69 95.4872 214.69C94.137 214.69 92.806 214.371 91.6022 213.76L64.6022 198.19C64.2269 198.005 63.8943 197.745 63.6256 197.424C63.357 197.104 63.1582 196.731 63.0422 196.33C62.8422 197.27 63.3522 198.25 64.6022 198.97L91.6022 214.55C92.8074 215.156 94.1379 215.472 95.4872 215.472C96.8365 215.472 98.167 215.156 99.3722 214.55L126.212 198.94C127.452 198.22 127.972 197.24 127.772 196.3C127.656 196.701 127.457 197.074 127.189 197.394C126.92 197.715 126.587 197.975 126.212 198.16V198.16Z" fill="white"/>
  <path d="M103.002 217.99L101.732 218.73V217.26L103.002 216.52V217.99Z" fill="white"/>
  <path d="M105.672 216.45L104.402 217.19V215.71L105.672 214.98V216.45Z" fill="white"/>
  <path d="M108.352 214.91L107.072 215.64V214.17L108.352 213.43V214.91Z" fill="white"/>
  <path d="M106.163 219.16L104.883 219.89V218.42L106.163 217.68V219.16Z" fill="white"/>
  <path d="M108.512 217.8L107.242 218.54V217.06L108.512 216.32V217.8Z" fill="white"/>
  <path d="M116.923 209.96L115.643 210.7V209.22L116.923 208.49V209.96Z" fill="white"/>
  <path d="M124.282 205.71L123.002 206.45V204.97L124.282 204.24V205.71Z" fill="white"/>
  <path d="M111.022 213.36L109.742 214.1V212.63L111.022 211.89V213.36Z" fill="white"/>
  <g filter="url(#filter18_d_463_953)">
  <path d="M127.832 186.73V173.79L111.492 175.97L99.2522 168.91C98.0484 168.298 96.7173 167.98 95.3672 167.98C94.0171 167.98 92.686 168.298 91.4822 168.91L89.5722 170.12L63.0322 173.66V186.83C63.0911 187.298 63.2691 187.743 63.5492 188.123C63.8293 188.503 64.2022 188.805 64.6322 189L91.6322 204.58C92.836 205.191 94.1671 205.51 95.5172 205.51C96.8673 205.51 98.1984 205.191 99.4022 204.58L126.242 188.97C126.67 188.776 127.041 188.476 127.32 188.098C127.598 187.719 127.775 187.276 127.832 186.81V186.81V186.73Z" fill="url(#paint60_linear_463_953)"/>
  </g>
  <path d="M126.212 171.5L99.2123 155.93C98.0085 155.318 96.6774 155 95.3273 155C93.9771 155 92.646 155.318 91.4422 155.93L64.6223 171.5C62.4723 172.74 62.4723 174.75 64.6223 175.99L91.6223 191.57C92.8275 192.176 94.158 192.492 95.5072 192.492C96.8565 192.492 98.1871 192.176 99.3923 191.57L126.232 175.96C128.352 174.7 128.352 172.69 126.212 171.5Z" fill="url(#paint61_radial_463_953)"/>
  <path d="M126.212 171.5L99.2123 155.93C98.0085 155.318 96.6774 155 95.3273 155C93.9771 155 92.646 155.318 91.4422 155.93L64.6223 171.5C62.4723 172.74 62.4723 174.75 64.6223 175.99L91.6223 191.57C92.8275 192.176 94.158 192.492 95.5072 192.492C96.8565 192.492 98.1871 192.176 99.3923 191.57L126.232 175.96C128.352 174.7 128.352 172.69 126.212 171.5Z" fill="url(#paint62_radial_463_953)"/>
  <g filter="url(#filter19_d_463_953)">
  <path d="M95.4615 186.5C94.5024 186.518 93.5549 186.287 92.7115 185.83L74.8315 175.5C74.4664 175.364 74.1516 175.12 73.9293 174.8C73.707 174.48 73.5879 174.099 73.5879 173.71C73.5879 173.32 73.707 172.94 73.9293 172.62C74.1516 172.3 74.4664 172.056 74.8315 171.92L92.6115 161.58C93.4632 161.14 94.4079 160.91 95.3665 160.91C96.3252 160.91 97.2699 161.14 98.1216 161.58L115.992 171.9C116.357 172.036 116.671 172.28 116.894 172.6C117.116 172.92 117.235 173.3 117.235 173.69C117.235 174.079 117.116 174.46 116.894 174.78C116.671 175.1 116.357 175.344 115.992 175.48L98.2115 185.82C97.3691 186.281 96.4216 186.515 95.4615 186.5ZM95.3716 161.62C94.5348 161.601 93.7076 161.801 92.9716 162.2L75.1915 172.5C74.9308 172.568 74.7 172.721 74.5354 172.935C74.3707 173.148 74.2814 173.41 74.2814 173.68C74.2814 173.949 74.3707 174.211 74.5354 174.425C74.7 174.638 74.9308 174.791 75.1915 174.86L93.0616 185.18C93.8047 185.559 94.6272 185.757 95.4615 185.757C96.2959 185.757 97.1184 185.559 97.8615 185.18L115.642 174.85C115.881 174.747 116.089 174.583 116.245 174.374C116.402 174.165 116.5 173.919 116.532 173.66C116.501 173.402 116.402 173.157 116.246 172.95C116.089 172.743 115.881 172.58 115.642 172.48L97.7715 162.2C97.0351 161.802 96.2082 161.602 95.3716 161.62Z" fill="#41AFFF"/>
  </g>
  <path d="M126.212 175.16L99.3722 190.76C98.1684 191.371 96.8373 191.69 95.4872 191.69C94.137 191.69 92.806 191.371 91.6022 190.76L64.6022 175.19C64.2269 175.005 63.8943 174.745 63.6256 174.424C63.357 174.104 63.1582 173.731 63.0422 173.33C62.8422 174.27 63.3522 175.25 64.6022 175.97L91.6022 191.55C92.8074 192.156 94.1379 192.472 95.4872 192.472C96.8365 192.472 98.167 192.156 99.3722 191.55L126.212 175.94C127.452 175.22 127.972 174.24 127.772 173.3C127.656 173.701 127.457 174.074 127.189 174.394C126.92 174.715 126.587 174.975 126.212 175.16V175.16Z" fill="white"/>
  <path d="M103.002 194.99L101.732 195.73V194.26L103.002 193.52V194.99Z" fill="white"/>
  <path d="M105.672 193.45L104.402 194.19V192.71L105.672 191.98V193.45Z" fill="white"/>
  <path d="M108.352 191.91L107.072 192.64V191.17L108.352 190.43V191.91Z" fill="white"/>
  <path d="M106.163 196.16L104.883 196.89V195.42L106.163 194.68V196.16Z" fill="white"/>
  <path d="M108.512 194.8L107.242 195.54V194.06L108.512 193.32V194.8Z" fill="white"/>
  <path d="M116.923 186.96L115.643 187.7V186.22L116.923 185.49V186.96Z" fill="white"/>
  <path d="M124.282 182.71L123.002 183.45V181.97L124.282 181.24V182.71Z" fill="white"/>
  <path d="M111.022 190.36L109.742 191.1V189.63L111.022 188.89V190.36Z" fill="white"/>
  <path d="M84.65 288.559L69.65 279.919C69.452 279.778 69.29 279.592 69.177 279.377C69.0641 279.162 69.0035 278.923 69 278.679V277.569C69 277.089 69.29 276.869 69.65 277.079L84.65 285.729C84.8449 285.871 85.0041 286.055 85.1152 286.269C85.2263 286.482 85.2861 286.719 85.29 286.959V288.079C85.29 288.549 85 288.769 84.65 288.559Z" fill="white"/>
  <path style="mix-blend-mode:lighten" opacity="0.5" d="M128 279L128 59H63.0005L63 278.766C63.0177 279.025 63.1054 279.273 63.2534 279.485C63.4015 279.696 63.6043 279.862 63.8395 279.964L93 296.5C93.6258 296.818 94.8161 296.983 95.5162 296.983C96.2163 296.983 97.8742 296.818 98.5 296.5L127.175 280.289C127.414 280.168 127.616 279.984 127.761 279.758C127.906 279.531 127.988 279.27 128 279Z" fill="url(#paint63_linear_463_953)"/>
  <defs>
  <filter id="filter0_d_463_953" x="60.0322" y="177.98" width="72.7998" height="47.5299" filterUnits="userSpaceOnUse" color-interpolation-filters="sRGB">
  <feFlood flood-opacity="0" result="BackgroundImageFix"/>
  <feColorMatrix in="SourceAlpha" type="matrix" values="0 0 0 0 0 0 0 0 0 0 0 0 0 0 0 0 0 0 127 0" result="hardAlpha"/>
  <feOffset dy="6"/>
  <feGaussianBlur stdDeviation="2"/>
  <feComposite in2="hardAlpha" operator="out"/>
  <feColorMatrix type="matrix" values="0 0 0 0 0 0 0 0 0 0.219485 0 0 0 0 0.2625 0 0 0 0.25 0"/>
  <feBlend mode="normal" in2="BackgroundImageFix" result="effect1_dropShadow_463_953"/>
  <feBlend mode="normal" in="SourceGraphic" in2="effect1_dropShadow_463_953" result="shape"/>
  </filter>
  <filter id="filter1_d_463_953" x="60.0322" y="154.98" width="72.7998" height="47.5299" filterUnits="userSpaceOnUse" color-interpolation-filters="sRGB">
  <feFlood flood-opacity="0" result="BackgroundImageFix"/>
  <feColorMatrix in="SourceAlpha" type="matrix" values="0 0 0 0 0 0 0 0 0 0 0 0 0 0 0 0 0 0 127 0" result="hardAlpha"/>
  <feOffset dy="6"/>
  <feGaussianBlur stdDeviation="2"/>
  <feComposite in2="hardAlpha" operator="out"/>
  <feColorMatrix type="matrix" values="0 0 0 0 0 0 0 0 0 0.219485 0 0 0 0 0.2625 0 0 0 0.25 0"/>
  <feBlend mode="normal" in2="BackgroundImageFix" result="effect1_dropShadow_463_953"/>
  <feBlend mode="normal" in="SourceGraphic" in2="effect1_dropShadow_463_953" result="shape"/>
  </filter>
  <filter id="filter2_d_463_953" x="60.0322" y="131.98" width="72.7998" height="47.5299" filterUnits="userSpaceOnUse" color-interpolation-filters="sRGB">
  <feFlood flood-opacity="0" result="BackgroundImageFix"/>
  <feColorMatrix in="SourceAlpha" type="matrix" values="0 0 0 0 0 0 0 0 0 0 0 0 0 0 0 0 0 0 127 0" result="hardAlpha"/>
  <feOffset dy="6"/>
  <feGaussianBlur stdDeviation="2"/>
  <feComposite in2="hardAlpha" operator="out"/>
  <feColorMatrix type="matrix" values="0 0 0 0 0 0 0 0 0 0.219485 0 0 0 0 0.2625 0 0 0 0.25 0"/>
  <feBlend mode="normal" in2="BackgroundImageFix" result="effect1_dropShadow_463_953"/>
  <feBlend mode="normal" in="SourceGraphic" in2="effect1_dropShadow_463_953" result="shape"/>
  </filter>
  <filter id="filter3_d_463_953" x="60.0322" y="108.98" width="72.7998" height="47.5299" filterUnits="userSpaceOnUse" color-interpolation-filters="sRGB">
  <feFlood flood-opacity="0" result="BackgroundImageFix"/>
  <feColorMatrix in="SourceAlpha" type="matrix" values="0 0 0 0 0 0 0 0 0 0 0 0 0 0 0 0 0 0 127 0" result="hardAlpha"/>
  <feOffset dy="6"/>
  <feGaussianBlur stdDeviation="2"/>
  <feComposite in2="hardAlpha" operator="out"/>
  <feColorMatrix type="matrix" values="0 0 0 0 0 0 0 0 0 0.219485 0 0 0 0 0.2625 0 0 0 0.25 0"/>
  <feBlend mode="normal" in2="BackgroundImageFix" result="effect1_dropShadow_463_953"/>
  <feBlend mode="normal" in="SourceGraphic" in2="effect1_dropShadow_463_953" result="shape"/>
  </filter>
  <filter id="filter4_d_463_953" x="54.5879" y="81.9099" width="83.6475" height="65.5909" filterUnits="userSpaceOnUse" color-interpolation-filters="sRGB">
  <feFlood flood-opacity="0" result="BackgroundImageFix"/>
  <feColorMatrix in="SourceAlpha" type="matrix" values="0 0 0 0 0 0 0 0 0 0 0 0 0 0 0 0 0 0 127 0" result="hardAlpha"/>
  <feOffset/>
  <feGaussianBlur stdDeviation="10"/>
  <feComposite in2="hardAlpha" operator="out"/>
  <feColorMatrix type="matrix" values="0 0 0 0 0.254167 0 0 0 0 0.68675 0 0 0 0 1 0 0 0 1 0"/>
  <feBlend mode="normal" in2="BackgroundImageFix" result="effect1_dropShadow_463_953"/>
  <feBlend mode="normal" in="SourceGraphic" in2="effect1_dropShadow_463_953" result="shape"/>
  </filter>
  <filter id="filter5_d_463_953" x="113.032" y="206.98" width="72.7998" height="47.5299" filterUnits="userSpaceOnUse" color-interpolation-filters="sRGB">
  <feFlood flood-opacity="0" result="BackgroundImageFix"/>
  <feColorMatrix in="SourceAlpha" type="matrix" values="0 0 0 0 0 0 0 0 0 0 0 0 0 0 0 0 0 0 127 0" result="hardAlpha"/>
  <feOffset dy="6"/>
  <feGaussianBlur stdDeviation="2"/>
  <feComposite in2="hardAlpha" operator="out"/>
  <feColorMatrix type="matrix" values="0 0 0 0 0 0 0 0 0 0.219485 0 0 0 0 0.2625 0 0 0 0.25 0"/>
  <feBlend mode="normal" in2="BackgroundImageFix" result="effect1_dropShadow_463_953"/>
  <feBlend mode="normal" in="SourceGraphic" in2="effect1_dropShadow_463_953" result="shape"/>
  </filter>
  <filter id="filter6_d_463_953" x="113.032" y="183.98" width="72.7998" height="47.5299" filterUnits="userSpaceOnUse" color-interpolation-filters="sRGB">
  <feFlood flood-opacity="0" result="BackgroundImageFix"/>
  <feColorMatrix in="SourceAlpha" type="matrix" values="0 0 0 0 0 0 0 0 0 0 0 0 0 0 0 0 0 0 127 0" result="hardAlpha"/>
  <feOffset dy="6"/>
  <feGaussianBlur stdDeviation="2"/>
  <feComposite in2="hardAlpha" operator="out"/>
  <feColorMatrix type="matrix" values="0 0 0 0 0 0 0 0 0 0.219485 0 0 0 0 0.2625 0 0 0 0.25 0"/>
  <feBlend mode="normal" in2="BackgroundImageFix" result="effect1_dropShadow_463_953"/>
  <feBlend mode="normal" in="SourceGraphic" in2="effect1_dropShadow_463_953" result="shape"/>
  </filter>
  <filter id="filter7_d_463_953" x="113.032" y="160.98" width="72.7998" height="47.5299" filterUnits="userSpaceOnUse" color-interpolation-filters="sRGB">
  <feFlood flood-opacity="0" result="BackgroundImageFix"/>
  <feColorMatrix in="SourceAlpha" type="matrix" values="0 0 0 0 0 0 0 0 0 0 0 0 0 0 0 0 0 0 127 0" result="hardAlpha"/>
  <feOffset dy="6"/>
  <feGaussianBlur stdDeviation="2"/>
  <feComposite in2="hardAlpha" operator="out"/>
  <feColorMatrix type="matrix" values="0 0 0 0 0 0 0 0 0 0.219485 0 0 0 0 0.2625 0 0 0 0.25 0"/>
  <feBlend mode="normal" in2="BackgroundImageFix" result="effect1_dropShadow_463_953"/>
  <feBlend mode="normal" in="SourceGraphic" in2="effect1_dropShadow_463_953" result="shape"/>
  </filter>
  <filter id="filter8_d_463_953" x="113.032" y="137.98" width="72.7998" height="47.5299" filterUnits="userSpaceOnUse" color-interpolation-filters="sRGB">
  <feFlood flood-opacity="0" result="BackgroundImageFix"/>
  <feColorMatrix in="SourceAlpha" type="matrix" values="0 0 0 0 0 0 0 0 0 0 0 0 0 0 0 0 0 0 127 0" result="hardAlpha"/>
  <feOffset dy="6"/>
  <feGaussianBlur stdDeviation="2"/>
  <feComposite in2="hardAlpha" operator="out"/>
  <feColorMatrix type="matrix" values="0 0 0 0 0 0 0 0 0 0.219485 0 0 0 0 0.2625 0 0 0 0.25 0"/>
  <feBlend mode="normal" in2="BackgroundImageFix" result="effect1_dropShadow_463_953"/>
  <feBlend mode="normal" in="SourceGraphic" in2="effect1_dropShadow_463_953" result="shape"/>
  </filter>
  <filter id="filter9_d_463_953" x="107.588" y="110.91" width="83.6475" height="65.5909" filterUnits="userSpaceOnUse" color-interpolation-filters="sRGB">
  <feFlood flood-opacity="0" result="BackgroundImageFix"/>
  <feColorMatrix in="SourceAlpha" type="matrix" values="0 0 0 0 0 0 0 0 0 0 0 0 0 0 0 0 0 0 127 0" result="hardAlpha"/>
  <feOffset/>
  <feGaussianBlur stdDeviation="10"/>
  <feComposite in2="hardAlpha" operator="out"/>
  <feColorMatrix type="matrix" values="0 0 0 0 0.254167 0 0 0 0 0.68675 0 0 0 0 1 0 0 0 1 0"/>
  <feBlend mode="normal" in2="BackgroundImageFix" result="effect1_dropShadow_463_953"/>
  <feBlend mode="normal" in="SourceGraphic" in2="effect1_dropShadow_463_953" result="shape"/>
  </filter>
  <filter id="filter10_d_463_953" x="6.03223" y="207.98" width="72.7998" height="47.5299" filterUnits="userSpaceOnUse" color-interpolation-filters="sRGB">
  <feFlood flood-opacity="0" result="BackgroundImageFix"/>
  <feColorMatrix in="SourceAlpha" type="matrix" values="0 0 0 0 0 0 0 0 0 0 0 0 0 0 0 0 0 0 127 0" result="hardAlpha"/>
  <feOffset dy="6"/>
  <feGaussianBlur stdDeviation="2"/>
  <feComposite in2="hardAlpha" operator="out"/>
  <feColorMatrix type="matrix" values="0 0 0 0 0 0 0 0 0 0.219485 0 0 0 0 0.2625 0 0 0 0.25 0"/>
  <feBlend mode="normal" in2="BackgroundImageFix" result="effect1_dropShadow_463_953"/>
  <feBlend mode="normal" in="SourceGraphic" in2="effect1_dropShadow_463_953" result="shape"/>
  </filter>
  <filter id="filter11_d_463_953" x="6.03223" y="184.98" width="72.7998" height="47.5299" filterUnits="userSpaceOnUse" color-interpolation-filters="sRGB">
  <feFlood flood-opacity="0" result="BackgroundImageFix"/>
  <feColorMatrix in="SourceAlpha" type="matrix" values="0 0 0 0 0 0 0 0 0 0 0 0 0 0 0 0 0 0 127 0" result="hardAlpha"/>
  <feOffset dy="6"/>
  <feGaussianBlur stdDeviation="2"/>
  <feComposite in2="hardAlpha" operator="out"/>
  <feColorMatrix type="matrix" values="0 0 0 0 0 0 0 0 0 0.219485 0 0 0 0 0.2625 0 0 0 0.25 0"/>
  <feBlend mode="normal" in2="BackgroundImageFix" result="effect1_dropShadow_463_953"/>
  <feBlend mode="normal" in="SourceGraphic" in2="effect1_dropShadow_463_953" result="shape"/>
  </filter>
  <filter id="filter12_d_463_953" x="6.03223" y="161.98" width="72.7998" height="47.5299" filterUnits="userSpaceOnUse" color-interpolation-filters="sRGB">
  <feFlood flood-opacity="0" result="BackgroundImageFix"/>
  <feColorMatrix in="SourceAlpha" type="matrix" values="0 0 0 0 0 0 0 0 0 0 0 0 0 0 0 0 0 0 127 0" result="hardAlpha"/>
  <feOffset dy="6"/>
  <feGaussianBlur stdDeviation="2"/>
  <feComposite in2="hardAlpha" operator="out"/>
  <feColorMatrix type="matrix" values="0 0 0 0 0 0 0 0 0 0.219485 0 0 0 0 0.2625 0 0 0 0.25 0"/>
  <feBlend mode="normal" in2="BackgroundImageFix" result="effect1_dropShadow_463_953"/>
  <feBlend mode="normal" in="SourceGraphic" in2="effect1_dropShadow_463_953" result="shape"/>
  </filter>
  <filter id="filter13_d_463_953" x="6.03223" y="138.98" width="72.7998" height="47.5299" filterUnits="userSpaceOnUse" color-interpolation-filters="sRGB">
  <feFlood flood-opacity="0" result="BackgroundImageFix"/>
  <feColorMatrix in="SourceAlpha" type="matrix" values="0 0 0 0 0 0 0 0 0 0 0 0 0 0 0 0 0 0 127 0" result="hardAlpha"/>
  <feOffset dy="6"/>
  <feGaussianBlur stdDeviation="2"/>
  <feComposite in2="hardAlpha" operator="out"/>
  <feColorMatrix type="matrix" values="0 0 0 0 0 0 0 0 0 0.219485 0 0 0 0 0.2625 0 0 0 0.25 0"/>
  <feBlend mode="normal" in2="BackgroundImageFix" result="effect1_dropShadow_463_953"/>
  <feBlend mode="normal" in="SourceGraphic" in2="effect1_dropShadow_463_953" result="shape"/>
  </filter>
  <filter id="filter14_d_463_953" x="0.587891" y="111.91" width="83.6475" height="65.5909" filterUnits="userSpaceOnUse" color-interpolation-filters="sRGB">
  <feFlood flood-opacity="0" result="BackgroundImageFix"/>
  <feColorMatrix in="SourceAlpha" type="matrix" values="0 0 0 0 0 0 0 0 0 0 0 0 0 0 0 0 0 0 127 0" result="hardAlpha"/>
  <feOffset/>
  <feGaussianBlur stdDeviation="10"/>
  <feComposite in2="hardAlpha" operator="out"/>
  <feColorMatrix type="matrix" values="0 0 0 0 0.254167 0 0 0 0 0.68675 0 0 0 0 1 0 0 0 1 0"/>
  <feBlend mode="normal" in2="BackgroundImageFix" result="effect1_dropShadow_463_953"/>
  <feBlend mode="normal" in="SourceGraphic" in2="effect1_dropShadow_463_953" result="shape"/>
  </filter>
  <filter id="filter15_d_463_953" x="59.0322" y="236.98" width="72.7998" height="47.5299" filterUnits="userSpaceOnUse" color-interpolation-filters="sRGB">
  <feFlood flood-opacity="0" result="BackgroundImageFix"/>
  <feColorMatrix in="SourceAlpha" type="matrix" values="0 0 0 0 0 0 0 0 0 0 0 0 0 0 0 0 0 0 127 0" result="hardAlpha"/>
  <feOffset dy="6"/>
  <feGaussianBlur stdDeviation="2"/>
  <feComposite in2="hardAlpha" operator="out"/>
  <feColorMatrix type="matrix" values="0 0 0 0 0 0 0 0 0 0.219485 0 0 0 0 0.2625 0 0 0 0.25 0"/>
  <feBlend mode="normal" in2="BackgroundImageFix" result="effect1_dropShadow_463_953"/>
  <feBlend mode="normal" in="SourceGraphic" in2="effect1_dropShadow_463_953" result="shape"/>
  </filter>
  <filter id="filter16_d_463_953" x="59.0322" y="213.98" width="72.7998" height="47.5299" filterUnits="userSpaceOnUse" color-interpolation-filters="sRGB">
  <feFlood flood-opacity="0" result="BackgroundImageFix"/>
  <feColorMatrix in="SourceAlpha" type="matrix" values="0 0 0 0 0 0 0 0 0 0 0 0 0 0 0 0 0 0 127 0" result="hardAlpha"/>
  <feOffset dy="6"/>
  <feGaussianBlur stdDeviation="2"/>
  <feComposite in2="hardAlpha" operator="out"/>
  <feColorMatrix type="matrix" values="0 0 0 0 0 0 0 0 0 0.219485 0 0 0 0 0.2625 0 0 0 0.25 0"/>
  <feBlend mode="normal" in2="BackgroundImageFix" result="effect1_dropShadow_463_953"/>
  <feBlend mode="normal" in="SourceGraphic" in2="effect1_dropShadow_463_953" result="shape"/>
  </filter>
  <filter id="filter17_d_463_953" x="59.0322" y="190.98" width="72.7998" height="47.5299" filterUnits="userSpaceOnUse" color-interpolation-filters="sRGB">
  <feFlood flood-opacity="0" result="BackgroundImageFix"/>
  <feColorMatrix in="SourceAlpha" type="matrix" values="0 0 0 0 0 0 0 0 0 0 0 0 0 0 0 0 0 0 127 0" result="hardAlpha"/>
  <feOffset dy="6"/>
  <feGaussianBlur stdDeviation="2"/>
  <feComposite in2="hardAlpha" operator="out"/>
  <feColorMatrix type="matrix" values="0 0 0 0 0 0 0 0 0 0.219485 0 0 0 0 0.2625 0 0 0 0.25 0"/>
  <feBlend mode="normal" in2="BackgroundImageFix" result="effect1_dropShadow_463_953"/>
  <feBlend mode="normal" in="SourceGraphic" in2="effect1_dropShadow_463_953" result="shape"/>
  </filter>
  <filter id="filter18_d_463_953" x="59.0322" y="167.98" width="72.7998" height="47.5299" filterUnits="userSpaceOnUse" color-interpolation-filters="sRGB">
  <feFlood flood-opacity="0" result="BackgroundImageFix"/>
  <feColorMatrix in="SourceAlpha" type="matrix" values="0 0 0 0 0 0 0 0 0 0 0 0 0 0 0 0 0 0 127 0" result="hardAlpha"/>
  <feOffset dy="6"/>
  <feGaussianBlur stdDeviation="2"/>
  <feComposite in2="hardAlpha" operator="out"/>
  <feColorMatrix type="matrix" values="0 0 0 0 0 0 0 0 0 0.219485 0 0 0 0 0.2625 0 0 0 0.25 0"/>
  <feBlend mode="normal" in2="BackgroundImageFix" result="effect1_dropShadow_463_953"/>
  <feBlend mode="normal" in="SourceGraphic" in2="effect1_dropShadow_463_953" result="shape"/>
  </filter>
  <filter id="filter19_d_463_953" x="53.5879" y="140.91" width="83.6475" height="65.5909" filterUnits="userSpaceOnUse" color-interpolation-filters="sRGB">
  <feFlood flood-opacity="0" result="BackgroundImageFix"/>
  <feColorMatrix in="SourceAlpha" type="matrix" values="0 0 0 0 0 0 0 0 0 0 0 0 0 0 0 0 0 0 127 0" result="hardAlpha"/>
  <feOffset/>
  <feGaussianBlur stdDeviation="10"/>
  <feComposite in2="hardAlpha" operator="out"/>
  <feColorMatrix type="matrix" values="0 0 0 0 0.254167 0 0 0 0 0.68675 0 0 0 0 1 0 0 0 1 0"/>
  <feBlend mode="normal" in2="BackgroundImageFix" result="effect1_dropShadow_463_953"/>
  <feBlend mode="normal" in="SourceGraphic" in2="effect1_dropShadow_463_953" result="shape"/>
  </filter>
  <linearGradient id="paint0_linear_463_953" x1="60.1122" y1="219.74" x2="105.812" y2="219.74" gradientUnits="userSpaceOnUse">
  <stop stop-color="#C5C4F7"/>
  <stop offset="1" stop-color="#7C83E5"/>
  </linearGradient>
  <radialGradient id="paint1_radial_463_953" cx="0" cy="0" r="1" gradientUnits="userSpaceOnUse" gradientTransform="translate(52.0123 185.47) scale(102.06 102.06)">
  <stop stop-color="#01C8EF"/>
  <stop offset="0.14" stop-color="#03BAE4"/>
  <stop offset="0.4" stop-color="#0895C8"/>
  <stop offset="0.76" stop-color="#115A9A"/>
  <stop offset="1" stop-color="#172F78"/>
  </radialGradient>
  <radialGradient id="paint2_radial_463_953" cx="0" cy="0" r="1" gradientUnits="userSpaceOnUse" gradientTransform="translate(61.0223 191.62) scale(70.17 70.17)">
  <stop stop-color="#E9E9FD"/>
  <stop offset="1" stop-color="#C0BFF6"/>
  </radialGradient>
  <linearGradient id="paint3_linear_463_953" x1="60.1122" y1="196.74" x2="105.812" y2="196.74" gradientUnits="userSpaceOnUse">
  <stop stop-color="#C5C4F7"/>
  <stop offset="1" stop-color="#7C83E5"/>
  </linearGradient>
  <radialGradient id="paint4_radial_463_953" cx="0" cy="0" r="1" gradientUnits="userSpaceOnUse" gradientTransform="translate(52.0123 162.47) scale(102.06 102.06)">
  <stop stop-color="#01C8EF"/>
  <stop offset="0.14" stop-color="#03BAE4"/>
  <stop offset="0.4" stop-color="#0895C8"/>
  <stop offset="0.76" stop-color="#115A9A"/>
  <stop offset="1" stop-color="#172F78"/>
  </radialGradient>
  <radialGradient id="paint5_radial_463_953" cx="0" cy="0" r="1" gradientUnits="userSpaceOnUse" gradientTransform="translate(61.0223 168.62) scale(70.17 70.17)">
  <stop stop-color="#E9E9FD"/>
  <stop offset="1" stop-color="#C0BFF6"/>
  </radialGradient>
  <linearGradient id="paint6_linear_463_953" x1="60.1122" y1="173.74" x2="105.812" y2="173.74" gradientUnits="userSpaceOnUse">
  <stop stop-color="#C5C4F7"/>
  <stop offset="1" stop-color="#7C83E5"/>
  </linearGradient>
  <radialGradient id="paint7_radial_463_953" cx="0" cy="0" r="1" gradientUnits="userSpaceOnUse" gradientTransform="translate(52.0123 139.47) scale(102.06 102.06)">
  <stop stop-color="#01C8EF"/>
  <stop offset="0.14" stop-color="#03BAE4"/>
  <stop offset="0.4" stop-color="#0895C8"/>
  <stop offset="0.76" stop-color="#115A9A"/>
  <stop offset="1" stop-color="#172F78"/>
  </radialGradient>
  <radialGradient id="paint8_radial_463_953" cx="0" cy="0" r="1" gradientUnits="userSpaceOnUse" gradientTransform="translate(61.0223 145.62) scale(70.17 70.17)">
  <stop stop-color="#E9E9FD"/>
  <stop offset="1" stop-color="#C0BFF6"/>
  </radialGradient>
  <linearGradient id="paint9_linear_463_953" x1="60.1122" y1="150.74" x2="105.812" y2="150.74" gradientUnits="userSpaceOnUse">
  <stop stop-color="#C5C4F7"/>
  <stop offset="1" stop-color="#7C83E5"/>
  </linearGradient>
  <radialGradient id="paint10_radial_463_953" cx="0" cy="0" r="1" gradientUnits="userSpaceOnUse" gradientTransform="translate(52.0123 116.47) scale(102.06 102.06)">
  <stop stop-color="#01C8EF"/>
  <stop offset="0.14" stop-color="#03BAE4"/>
  <stop offset="0.4" stop-color="#0895C8"/>
  <stop offset="0.76" stop-color="#115A9A"/>
  <stop offset="1" stop-color="#172F78"/>
  </radialGradient>
  <radialGradient id="paint11_radial_463_953" cx="0" cy="0" r="1" gradientUnits="userSpaceOnUse" gradientTransform="translate(61.0223 122.62) scale(70.17 70.17)">
  <stop stop-color="#E9E9FD"/>
  <stop offset="1" stop-color="#C0BFF6"/>
  </radialGradient>
  <linearGradient id="paint12_linear_463_953" x1="60.1122" y1="127.74" x2="105.812" y2="127.74" gradientUnits="userSpaceOnUse">
  <stop stop-color="#C5C4F7"/>
  <stop offset="1" stop-color="#7C83E5"/>
  </linearGradient>
  <radialGradient id="paint13_radial_463_953" cx="0" cy="0" r="1" gradientUnits="userSpaceOnUse" gradientTransform="translate(52.0123 93.4697) scale(102.06 102.06)">
  <stop stop-color="#01C8EF"/>
  <stop offset="0.14" stop-color="#03BAE4"/>
  <stop offset="0.4" stop-color="#0895C8"/>
  <stop offset="0.76" stop-color="#115A9A"/>
  <stop offset="1" stop-color="#172F78"/>
  </radialGradient>
  <radialGradient id="paint14_radial_463_953" cx="0" cy="0" r="1" gradientUnits="userSpaceOnUse" gradientTransform="translate(61.0223 99.6197) scale(70.17 70.17)">
  <stop stop-color="#0F054C"/>
  <stop offset="1" stop-color="#1F0E31"/>
  </radialGradient>
  <linearGradient id="paint15_linear_463_953" x1="95.6609" y1="239.502" x2="95.6609" y2="70.5" gradientUnits="userSpaceOnUse">
  <stop stop-color="#41AFFF"/>
  <stop offset="1" stop-color="#41AFFF" stop-opacity="0"/>
  </linearGradient>
  <linearGradient id="paint16_linear_463_953" x1="113.112" y1="248.74" x2="158.812" y2="248.74" gradientUnits="userSpaceOnUse">
  <stop stop-color="#C5C4F7"/>
  <stop offset="1" stop-color="#7C83E5"/>
  </linearGradient>
  <radialGradient id="paint17_radial_463_953" cx="0" cy="0" r="1" gradientUnits="userSpaceOnUse" gradientTransform="translate(105.012 214.47) scale(102.06 102.06)">
  <stop stop-color="#01C8EF"/>
  <stop offset="0.14" stop-color="#03BAE4"/>
  <stop offset="0.4" stop-color="#0895C8"/>
  <stop offset="0.76" stop-color="#115A9A"/>
  <stop offset="1" stop-color="#172F78"/>
  </radialGradient>
  <radialGradient id="paint18_radial_463_953" cx="0" cy="0" r="1" gradientUnits="userSpaceOnUse" gradientTransform="translate(114.022 220.62) scale(70.17 70.17)">
  <stop stop-color="#E9E9FD"/>
  <stop offset="1" stop-color="#C0BFF6"/>
  </radialGradient>
  <linearGradient id="paint19_linear_463_953" x1="113.112" y1="225.74" x2="158.812" y2="225.74" gradientUnits="userSpaceOnUse">
  <stop stop-color="#C5C4F7"/>
  <stop offset="1" stop-color="#7C83E5"/>
  </linearGradient>
  <radialGradient id="paint20_radial_463_953" cx="0" cy="0" r="1" gradientUnits="userSpaceOnUse" gradientTransform="translate(105.012 191.47) scale(102.06 102.06)">
  <stop stop-color="#01C8EF"/>
  <stop offset="0.14" stop-color="#03BAE4"/>
  <stop offset="0.4" stop-color="#0895C8"/>
  <stop offset="0.76" stop-color="#115A9A"/>
  <stop offset="1" stop-color="#172F78"/>
  </radialGradient>
  <radialGradient id="paint21_radial_463_953" cx="0" cy="0" r="1" gradientUnits="userSpaceOnUse" gradientTransform="translate(114.022 197.62) scale(70.17 70.17)">
  <stop stop-color="#E9E9FD"/>
  <stop offset="1" stop-color="#C0BFF6"/>
  </radialGradient>
  <linearGradient id="paint22_linear_463_953" x1="113.112" y1="202.74" x2="158.812" y2="202.74" gradientUnits="userSpaceOnUse">
  <stop stop-color="#C5C4F7"/>
  <stop offset="1" stop-color="#7C83E5"/>
  </linearGradient>
  <radialGradient id="paint23_radial_463_953" cx="0" cy="0" r="1" gradientUnits="userSpaceOnUse" gradientTransform="translate(105.012 168.47) scale(102.06 102.06)">
  <stop stop-color="#01C8EF"/>
  <stop offset="0.14" stop-color="#03BAE4"/>
  <stop offset="0.4" stop-color="#0895C8"/>
  <stop offset="0.76" stop-color="#115A9A"/>
  <stop offset="1" stop-color="#172F78"/>
  </radialGradient>
  <radialGradient id="paint24_radial_463_953" cx="0" cy="0" r="1" gradientUnits="userSpaceOnUse" gradientTransform="translate(114.022 174.62) scale(70.17 70.17)">
  <stop stop-color="#E9E9FD"/>
  <stop offset="1" stop-color="#C0BFF6"/>
  </radialGradient>
  <linearGradient id="paint25_linear_463_953" x1="113.112" y1="179.74" x2="158.812" y2="179.74" gradientUnits="userSpaceOnUse">
  <stop stop-color="#C5C4F7"/>
  <stop offset="1" stop-color="#7C83E5"/>
  </linearGradient>
  <radialGradient id="paint26_radial_463_953" cx="0" cy="0" r="1" gradientUnits="userSpaceOnUse" gradientTransform="translate(105.012 145.47) scale(102.06 102.06)">
  <stop stop-color="#01C8EF"/>
  <stop offset="0.14" stop-color="#03BAE4"/>
  <stop offset="0.4" stop-color="#0895C8"/>
  <stop offset="0.76" stop-color="#115A9A"/>
  <stop offset="1" stop-color="#172F78"/>
  </radialGradient>
  <radialGradient id="paint27_radial_463_953" cx="0" cy="0" r="1" gradientUnits="userSpaceOnUse" gradientTransform="translate(114.022 151.62) scale(70.17 70.17)">
  <stop stop-color="#E9E9FD"/>
  <stop offset="1" stop-color="#C0BFF6"/>
  </radialGradient>
  <linearGradient id="paint28_linear_463_953" x1="113.112" y1="156.74" x2="158.812" y2="156.74" gradientUnits="userSpaceOnUse">
  <stop stop-color="#C5C4F7"/>
  <stop offset="1" stop-color="#7C83E5"/>
  </linearGradient>
  <radialGradient id="paint29_radial_463_953" cx="0" cy="0" r="1" gradientUnits="userSpaceOnUse" gradientTransform="translate(105.012 122.47) scale(102.06 102.06)">
  <stop stop-color="#01C8EF"/>
  <stop offset="0.14" stop-color="#03BAE4"/>
  <stop offset="0.4" stop-color="#0895C8"/>
  <stop offset="0.76" stop-color="#115A9A"/>
  <stop offset="1" stop-color="#172F78"/>
  </radialGradient>
  <radialGradient id="paint30_radial_463_953" cx="0" cy="0" r="1" gradientUnits="userSpaceOnUse" gradientTransform="translate(114.022 128.62) scale(70.17 70.17)">
  <stop stop-color="#0F054C"/>
  <stop offset="1" stop-color="#1F0E31"/>
  </radialGradient>
  <linearGradient id="paint31_linear_463_953" x1="148.661" y1="268.502" x2="148.661" y2="99.5" gradientUnits="userSpaceOnUse">
  <stop stop-color="#41AFFF"/>
  <stop offset="1" stop-color="#41AFFF" stop-opacity="0"/>
  </linearGradient>
  <linearGradient id="paint32_linear_463_953" x1="6.11223" y1="249.74" x2="51.8122" y2="249.74" gradientUnits="userSpaceOnUse">
  <stop stop-color="#C5C4F7"/>
  <stop offset="1" stop-color="#7C83E5"/>
  </linearGradient>
  <radialGradient id="paint33_radial_463_953" cx="0" cy="0" r="1" gradientUnits="userSpaceOnUse" gradientTransform="translate(-1.98773 215.47) scale(102.06 102.06)">
  <stop stop-color="#01C8EF"/>
  <stop offset="0.14" stop-color="#03BAE4"/>
  <stop offset="0.4" stop-color="#0895C8"/>
  <stop offset="0.76" stop-color="#115A9A"/>
  <stop offset="1" stop-color="#172F78"/>
  </radialGradient>
  <radialGradient id="paint34_radial_463_953" cx="0" cy="0" r="1" gradientUnits="userSpaceOnUse" gradientTransform="translate(7.02227 221.62) scale(70.17 70.17)">
  <stop stop-color="#E9E9FD"/>
  <stop offset="1" stop-color="#C0BFF6"/>
  </radialGradient>
  <linearGradient id="paint35_linear_463_953" x1="6.11223" y1="226.74" x2="51.8122" y2="226.74" gradientUnits="userSpaceOnUse">
  <stop stop-color="#C5C4F7"/>
  <stop offset="1" stop-color="#7C83E5"/>
  </linearGradient>
  <radialGradient id="paint36_radial_463_953" cx="0" cy="0" r="1" gradientUnits="userSpaceOnUse" gradientTransform="translate(-1.98773 192.47) scale(102.06 102.06)">
  <stop stop-color="#01C8EF"/>
  <stop offset="0.14" stop-color="#03BAE4"/>
  <stop offset="0.4" stop-color="#0895C8"/>
  <stop offset="0.76" stop-color="#115A9A"/>
  <stop offset="1" stop-color="#172F78"/>
  </radialGradient>
  <radialGradient id="paint37_radial_463_953" cx="0" cy="0" r="1" gradientUnits="userSpaceOnUse" gradientTransform="translate(7.02227 198.62) scale(70.17 70.17)">
  <stop stop-color="#E9E9FD"/>
  <stop offset="1" stop-color="#C0BFF6"/>
  </radialGradient>
  <linearGradient id="paint38_linear_463_953" x1="6.11223" y1="203.74" x2="51.8122" y2="203.74" gradientUnits="userSpaceOnUse">
  <stop stop-color="#C5C4F7"/>
  <stop offset="1" stop-color="#7C83E5"/>
  </linearGradient>
  <radialGradient id="paint39_radial_463_953" cx="0" cy="0" r="1" gradientUnits="userSpaceOnUse" gradientTransform="translate(-1.98773 169.47) scale(102.06 102.06)">
  <stop stop-color="#01C8EF"/>
  <stop offset="0.14" stop-color="#03BAE4"/>
  <stop offset="0.4" stop-color="#0895C8"/>
  <stop offset="0.76" stop-color="#115A9A"/>
  <stop offset="1" stop-color="#172F78"/>
  </radialGradient>
  <radialGradient id="paint40_radial_463_953" cx="0" cy="0" r="1" gradientUnits="userSpaceOnUse" gradientTransform="translate(7.02227 175.62) scale(70.17 70.17)">
  <stop stop-color="#E9E9FD"/>
  <stop offset="1" stop-color="#C0BFF6"/>
  </radialGradient>
  <linearGradient id="paint41_linear_463_953" x1="6.11223" y1="180.74" x2="51.8122" y2="180.74" gradientUnits="userSpaceOnUse">
  <stop stop-color="#C5C4F7"/>
  <stop offset="1" stop-color="#7C83E5"/>
  </linearGradient>
  <radialGradient id="paint42_radial_463_953" cx="0" cy="0" r="1" gradientUnits="userSpaceOnUse" gradientTransform="translate(-1.98773 146.47) scale(102.06 102.06)">
  <stop stop-color="#01C8EF"/>
  <stop offset="0.14" stop-color="#03BAE4"/>
  <stop offset="0.4" stop-color="#0895C8"/>
  <stop offset="0.76" stop-color="#115A9A"/>
  <stop offset="1" stop-color="#172F78"/>
  </radialGradient>
  <radialGradient id="paint43_radial_463_953" cx="0" cy="0" r="1" gradientUnits="userSpaceOnUse" gradientTransform="translate(7.02227 152.62) scale(70.17 70.17)">
  <stop stop-color="#E9E9FD"/>
  <stop offset="1" stop-color="#C0BFF6"/>
  </radialGradient>
  <linearGradient id="paint44_linear_463_953" x1="6.11223" y1="157.74" x2="51.8122" y2="157.74" gradientUnits="userSpaceOnUse">
  <stop stop-color="#C5C4F7"/>
  <stop offset="1" stop-color="#7C83E5"/>
  </linearGradient>
  <radialGradient id="paint45_radial_463_953" cx="0" cy="0" r="1" gradientUnits="userSpaceOnUse" gradientTransform="translate(-1.98773 123.47) scale(102.06 102.06)">
  <stop stop-color="#01C8EF"/>
  <stop offset="0.14" stop-color="#03BAE4"/>
  <stop offset="0.4" stop-color="#0895C8"/>
  <stop offset="0.76" stop-color="#115A9A"/>
  <stop offset="1" stop-color="#172F78"/>
  </radialGradient>
  <radialGradient id="paint46_radial_463_953" cx="0" cy="0" r="1" gradientUnits="userSpaceOnUse" gradientTransform="translate(7.02227 129.62) scale(70.17 70.17)">
  <stop stop-color="#0F054C"/>
  <stop offset="1" stop-color="#1F0E31"/>
  </radialGradient>
  <linearGradient id="paint47_linear_463_953" x1="41.6609" y1="269.502" x2="41.6609" y2="100.5" gradientUnits="userSpaceOnUse">
  <stop stop-color="#41AFFF"/>
  <stop offset="1" stop-color="#41AFFF" stop-opacity="0"/>
  </linearGradient>
  <linearGradient id="paint48_linear_463_953" x1="59.1122" y1="278.74" x2="104.812" y2="278.74" gradientUnits="userSpaceOnUse">
  <stop stop-color="#C5C4F7"/>
  <stop offset="1" stop-color="#7C83E5"/>
  </linearGradient>
  <radialGradient id="paint49_radial_463_953" cx="0" cy="0" r="1" gradientUnits="userSpaceOnUse" gradientTransform="translate(51.0123 244.47) scale(102.06 102.06)">
  <stop stop-color="#01C8EF"/>
  <stop offset="0.14" stop-color="#03BAE4"/>
  <stop offset="0.4" stop-color="#0895C8"/>
  <stop offset="0.76" stop-color="#115A9A"/>
  <stop offset="1" stop-color="#172F78"/>
  </radialGradient>
  <radialGradient id="paint50_radial_463_953" cx="0" cy="0" r="1" gradientUnits="userSpaceOnUse" gradientTransform="translate(60.0223 250.62) scale(70.17 70.17)">
  <stop stop-color="#E9E9FD"/>
  <stop offset="1" stop-color="#C0BFF6"/>
  </radialGradient>
  <linearGradient id="paint51_linear_463_953" x1="59.1122" y1="255.74" x2="104.812" y2="255.74" gradientUnits="userSpaceOnUse">
  <stop stop-color="#C5C4F7"/>
  <stop offset="1" stop-color="#7C83E5"/>
  </linearGradient>
  <radialGradient id="paint52_radial_463_953" cx="0" cy="0" r="1" gradientUnits="userSpaceOnUse" gradientTransform="translate(51.0123 221.47) scale(102.06 102.06)">
  <stop stop-color="#01C8EF"/>
  <stop offset="0.14" stop-color="#03BAE4"/>
  <stop offset="0.4" stop-color="#0895C8"/>
  <stop offset="0.76" stop-color="#115A9A"/>
  <stop offset="1" stop-color="#172F78"/>
  </radialGradient>
  <radialGradient id="paint53_radial_463_953" cx="0" cy="0" r="1" gradientUnits="userSpaceOnUse" gradientTransform="translate(60.0223 227.62) scale(70.17 70.17)">
  <stop stop-color="#E9E9FD"/>
  <stop offset="1" stop-color="#C0BFF6"/>
  </radialGradient>
  <linearGradient id="paint54_linear_463_953" x1="59.1122" y1="232.74" x2="104.812" y2="232.74" gradientUnits="userSpaceOnUse">
  <stop stop-color="#C5C4F7"/>
  <stop offset="1" stop-color="#7C83E5"/>
  </linearGradient>
  <radialGradient id="paint55_radial_463_953" cx="0" cy="0" r="1" gradientUnits="userSpaceOnUse" gradientTransform="translate(51.0123 198.47) scale(102.06 102.06)">
  <stop stop-color="#01C8EF"/>
  <stop offset="0.14" stop-color="#03BAE4"/>
  <stop offset="0.4" stop-color="#0895C8"/>
  <stop offset="0.76" stop-color="#115A9A"/>
  <stop offset="1" stop-color="#172F78"/>
  </radialGradient>
  <radialGradient id="paint56_radial_463_953" cx="0" cy="0" r="1" gradientUnits="userSpaceOnUse" gradientTransform="translate(60.0223 204.62) scale(70.17 70.17)">
  <stop stop-color="#E9E9FD"/>
  <stop offset="1" stop-color="#C0BFF6"/>
  </radialGradient>
  <linearGradient id="paint57_linear_463_953" x1="59.1122" y1="209.74" x2="104.812" y2="209.74" gradientUnits="userSpaceOnUse">
  <stop stop-color="#C5C4F7"/>
  <stop offset="1" stop-color="#7C83E5"/>
  </linearGradient>
  <radialGradient id="paint58_radial_463_953" cx="0" cy="0" r="1" gradientUnits="userSpaceOnUse" gradientTransform="translate(51.0123 175.47) scale(102.06 102.06)">
  <stop stop-color="#01C8EF"/>
  <stop offset="0.14" stop-color="#03BAE4"/>
  <stop offset="0.4" stop-color="#0895C8"/>
  <stop offset="0.76" stop-color="#115A9A"/>
  <stop offset="1" stop-color="#172F78"/>
  </radialGradient>
  <radialGradient id="paint59_radial_463_953" cx="0" cy="0" r="1" gradientUnits="userSpaceOnUse" gradientTransform="translate(60.0223 181.62) scale(70.17 70.17)">
  <stop stop-color="#E9E9FD"/>
  <stop offset="1" stop-color="#C0BFF6"/>
  </radialGradient>
  <linearGradient id="paint60_linear_463_953" x1="59.1122" y1="186.74" x2="104.812" y2="186.74" gradientUnits="userSpaceOnUse">
  <stop stop-color="#C5C4F7"/>
  <stop offset="1" stop-color="#7C83E5"/>
  </linearGradient>
  <radialGradient id="paint61_radial_463_953" cx="0" cy="0" r="1" gradientUnits="userSpaceOnUse" gradientTransform="translate(51.0123 152.47) scale(102.06 102.06)">
  <stop stop-color="#01C8EF"/>
  <stop offset="0.14" stop-color="#03BAE4"/>
  <stop offset="0.4" stop-color="#0895C8"/>
  <stop offset="0.76" stop-color="#115A9A"/>
  <stop offset="1" stop-color="#172F78"/>
  </radialGradient>
  <radialGradient id="paint62_radial_463_953" cx="0" cy="0" r="1" gradientUnits="userSpaceOnUse" gradientTransform="translate(60.0223 158.62) scale(70.17 70.17)">
  <stop stop-color="#0F054C"/>
  <stop offset="1" stop-color="#1F0E31"/>
  </radialGradient>
  <linearGradient id="paint63_linear_463_953" x1="94.6609" y1="298.502" x2="94.6609" y2="129.5" gradientUnits="userSpaceOnUse">
  <stop stop-color="#41AFFF"/>
  <stop offset="1" stop-color="#41AFFF" stop-opacity="0"/>
  </linearGradient>
  </defs>
  </svg>