<svg width="22" height="22" viewBox="0 0 22 22" fill="none" xmlns="http://www.w3.org/2000/svg">
  <path d="M1.3999 0.492676C0.847618 0.492676 0.399902 0.940391 0.399902 1.49268C0.399902 2.04496 0.847618 2.49268 1.3999 2.49268V0.492676ZM3.69244 1.49268L4.65767 1.23126C4.53961 0.795358 4.14405 0.492676 3.69244 0.492676V1.49268ZM7.41781 15.2479L6.45259 15.5093C6.58285 15.9903 7.04737 16.302 7.54185 16.2402L7.41781 15.2479ZM18.8805 13.8151L19.0045 14.8073C19.4292 14.7543 19.773 14.4368 19.8598 14.0177L18.8805 13.8151ZM20.5999 5.50462L21.5792 5.70722C21.6401 5.41271 21.5652 5.10641 21.3753 4.87319C21.1854 4.63998 20.9007 4.50462 20.5999 4.50462V5.50462ZM4.77901 5.50462L3.81378 5.76603L4.77901 5.50462ZM1.3999 2.49268H3.69244V0.492676H1.3999V2.49268ZM7.54185 16.2402L19.0045 14.8073L18.7565 12.8228L7.29378 14.2556L7.54185 16.2402ZM19.8598 14.0177L21.5792 5.70722L19.6206 5.30201L17.9012 13.6125L19.8598 14.0177ZM2.72721 1.75409L3.81378 5.76603L5.74423 5.2432L4.65767 1.23126L2.72721 1.75409ZM3.81378 5.76603L6.45259 15.5093L8.38304 14.9865L5.74423 5.2432L3.81378 5.76603ZM20.5999 4.50462H4.77901V6.50462H20.5999V4.50462ZM9.9999 18.9999C9.9999 19.2761 9.77604 19.4999 9.4999 19.4999V21.4999C10.8806 21.4999 11.9999 20.3807 11.9999 18.9999H9.9999ZM9.4999 19.4999C9.22376 19.4999 8.9999 19.2761 8.9999 18.9999H6.9999C6.9999 20.3807 8.11919 21.4999 9.4999 21.4999V19.4999ZM8.9999 18.9999C8.9999 18.7238 9.22376 18.4999 9.4999 18.4999V16.4999C8.11919 16.4999 6.9999 17.6192 6.9999 18.9999H8.9999ZM9.4999 18.4999C9.77604 18.4999 9.9999 18.7238 9.9999 18.9999H11.9999C11.9999 17.6192 10.8806 16.4999 9.4999 16.4999V18.4999ZM17.9999 18.9999C17.9999 19.2761 17.776 19.4999 17.4999 19.4999V21.4999C18.8806 21.4999 19.9999 20.3807 19.9999 18.9999H17.9999ZM17.4999 19.4999C17.2238 19.4999 16.9999 19.2761 16.9999 18.9999H14.9999C14.9999 20.3807 16.1192 21.4999 17.4999 21.4999V19.4999ZM16.9999 18.9999C16.9999 18.7238 17.2238 18.4999 17.4999 18.4999V16.4999C16.1192 16.4999 14.9999 17.6192 14.9999 18.9999H16.9999ZM17.4999 18.4999C17.776 18.4999 17.9999 18.7238 17.9999 18.9999H19.9999C19.9999 17.6192 18.8806 16.4999 17.4999 16.4999V18.4999Z" fill="white"/>
  </svg>
  