<svg width="40" height="40" viewBox="0 0 40 40" fill="none" xmlns="http://www.w3.org/2000/svg">
  <path d="M31.8 30.78C31.28 29.18 29.78 28 28 28H26V22C26 21.4696 25.7893 20.9609 25.4142 20.5858C25.0391 20.2107 24.5304 20 24 20H12V16H16C16.5304 16 17.0391 15.7893 17.4142 15.4142C17.7893 15.0391 18 14.5304 18 14V10H22C23.0609 10 24.0783 9.57857 24.8284 8.82843C25.5786 8.07828 26 7.06087 26 6V5.18C28.393 6.14473 30.5165 7.67495 32.1889 9.63967C33.8612 11.6044 35.0326 13.9451 35.6027 16.4614C36.1728 18.9777 36.1247 21.5947 35.4624 24.0884C34.8001 26.5821 33.5435 28.8781 31.8 30.78ZM18 35.86C10.1 34.88 4 28.16 4 20C4 18.76 4.16 17.56 4.42 16.42L14 26V28C14 29.0609 14.4214 30.0783 15.1716 30.8284C15.9217 31.5786 16.9391 32 18 32M20 0C17.3736 0 14.7728 0.517315 12.3463 1.52241C9.91982 2.5275 7.71504 4.00069 5.85786 5.85786C2.10714 9.60859 0 14.6957 0 20C0 25.3043 2.10714 30.3914 5.85786 34.1421C7.71504 35.9993 9.91982 37.4725 12.3463 38.4776C14.7728 39.4827 17.3736 40 20 40C25.3043 40 30.3914 37.8929 34.1421 34.1421C37.8929 30.3914 40 25.3043 40 20C40 17.3736 39.4827 14.7728 38.4776 12.3463C37.4725 9.91982 35.9993 7.71504 34.1421 5.85786C32.285 4.00069 30.0802 2.5275 27.6537 1.52241C25.2272 0.517315 22.6264 0 20 0Z" fill="#F7F2EC"/>
</svg>
