<svg width="34" height="48" viewBox="0 0 34 48" fill="none" xmlns="http://www.w3.org/2000/svg">
  <path d="M9.79997 31.992C6.35363 30.3573 3.56619 27.5984 1.89603 24.1691C0.225865 20.7398 -0.227586 16.8442 0.610246 13.1229C1.44808 9.4017 3.52731 6.07635 6.50602 3.69373C9.48473 1.3111 13.1856 0.0130615 17 0.0130615C20.8144 0.0130615 24.5152 1.3111 27.4939 3.69373C30.4726 6.07635 32.5519 9.4017 33.3897 13.1229C34.2275 16.8442 33.7741 20.7398 32.1039 24.1691C30.4337 27.5984 27.6463 30.3573 24.2 31.992V38.4H9.79997V31.992ZM9.79997 40.8H24.2V44.4C24.2 46.392 22.592 48 20.6 48H13.4C12.4452 48 11.5295 47.6207 10.8544 46.9456C10.1793 46.2704 9.79997 45.3548 9.79997 44.4V40.8ZM14.6 28.56V33.6H19.4V28.56C22.3137 27.9652 24.9027 26.3098 26.6652 23.9146C28.4277 21.5194 29.2381 18.5551 28.9392 15.5963C28.6403 12.6376 27.2535 9.89526 25.0475 7.90095C22.8416 5.90664 19.9738 4.80244 17 4.80244C14.0262 4.80244 11.1583 5.90664 8.9524 7.90095C6.74647 9.89526 5.35963 12.6376 5.06073 15.5963C4.76184 18.5551 5.5722 21.5194 7.3347 23.9146C9.09719 26.3098 11.6863 27.9652 14.6 28.56Z" fill="#F7F2EC"/>
  </svg>
  