<svg width="33" height="41" viewBox="0 0 33 41" fill="none" xmlns="http://www.w3.org/2000/svg">
  <path d="M4.5 35.1L8.45 33.5C8.11667 32.5333 7.80867 31.55 7.526 30.55C7.24333 29.55 7.018 28.55 6.85 27.55L4.5 29.15V35.1ZM12.5 33H20.5C21.1 31.6667 21.5833 30.042 21.95 28.126C22.3167 26.21 22.5 24.2513 22.5 22.25C22.5 18.95 21.95 15.8253 20.85 12.876C19.75 9.92666 18.3 7.65133 16.5 6.05C14.7 7.65 13.25 9.92533 12.15 12.876C11.05 15.8267 10.5 18.9513 10.5 22.25C10.5 24.25 10.6833 26.2087 11.05 28.126C11.4167 30.0433 11.9 31.668 12.5 33ZM16.5 23C15.4 23 14.4587 22.6087 13.676 21.826C12.8933 21.0433 12.5013 20.1013 12.5 19C12.4987 17.8987 12.8907 16.9573 13.676 16.176C14.4613 15.3947 15.4027 15.0027 16.5 15C17.5973 14.9973 18.5393 15.3893 19.326 16.176C20.1127 16.9627 20.504 17.904 20.5 19C20.496 20.096 20.1047 21.038 19.326 21.826C18.5473 22.614 17.6053 23.0053 16.5 23ZM28.5 35.1V29.15L26.15 27.55C25.9833 28.55 25.7587 29.55 25.476 30.55C25.1933 31.55 24.8847 32.5333 24.55 33.5L28.5 35.1ZM16.5 0.949997C19.8 3.35 22.292 6.4 23.976 10.1C25.66 13.8 26.5013 18.1 26.5 23L30.7 25.8C31.2667 26.1667 31.7087 26.65 32.026 27.25C32.3433 27.85 32.5013 28.4833 32.5 29.15V41L22.55 37H10.45L0.5 41V29.15C0.5 28.4833 0.658666 27.85 0.976 27.25C1.29333 26.65 1.73467 26.1667 2.3 25.8L6.5 23C6.5 18.1 7.342 13.8 9.026 10.1C10.71 6.4 13.2013 3.35 16.5 0.949997Z" fill="#F7F2EC"/>
  </svg>
  