<svg width="37" height="44" viewBox="0 0 37 44" fill="none" xmlns="http://www.w3.org/2000/svg">
  <path d="M36.5 20C36.5 31.1 28.82 41.48 18.5 44C8.18 41.48 0.5 31.1 0.5 20V8L18.5 0L36.5 8V20ZM18.5 40C26 38 32.5 29.08 32.5 20.44V10.6L18.5 4.36L4.5 10.6V20.44C4.5 29.08 11 38 18.5 40ZM24.1 20V17C24.1 14.2 21.3 12 18.5 12C15.7 12 12.9 14.2 12.9 17V20C11.7 20 10.5 21.2 10.5 22.4V29.4C10.5 30.8 11.7 32 12.9 32H23.9C25.3 32 26.5 30.8 26.5 29.6V22.6C26.5 21.2 25.3 20 24.1 20ZM21.5 20H15.5V17C15.5 15.4 16.9 14.4 18.5 14.4C20.1 14.4 21.5 15.4 21.5 17V20Z" fill="#F7F2EC"/>
</svg>
