<svg width="112" height="32" viewBox="0 0 112 32" fill="none" xmlns="http://www.w3.org/2000/svg">
  <g clip-path="url(#clip0_531_10)">
  <path d="M47.9999 16C48.0235 15.1564 47.8502 14.3189 47.4939 13.5538C47.1376 12.7888 46.608 12.1173 45.947 11.5925C44.498 10.4453 42.6263 9.84152 40.7546 9.90189H33.7508V12.9208H40.7546C41.7206 12.9208 42.6263 13.2226 43.4112 13.8264C43.7483 14.1165 44.0156 14.4789 44.1933 14.8866C44.371 15.2942 44.4545 15.7367 44.4376 16.1811C44.4589 16.6173 44.3771 17.0524 44.1988 17.4511C44.0204 17.8497 43.7506 18.2007 43.4112 18.4755C42.6538 19.0631 41.7123 19.3627 40.7546 19.3208H37.3131V14.6717H33.6904V22.4H40.7546C42.6263 22.4 44.498 21.7962 45.947 20.5887C46.6084 20.0242 47.1357 19.3195 47.4908 18.5258C47.8459 17.7321 48.0198 16.8693 47.9999 16ZM51.9244 16C51.8928 16.8651 52.0553 17.7263 52.4001 18.5204C52.7449 19.3144 53.2631 20.0212 53.9168 20.5887C55.3659 21.7962 57.2376 22.4 59.1093 22.4H65.2678V19.3208H59.1697C58.2036 19.3208 57.298 19.0189 56.5131 18.4151C56.1854 18.1435 55.9231 17.8017 55.7454 17.415C55.5677 17.0283 55.4793 16.6066 55.4867 16.1811C55.4653 15.7362 55.5467 15.2922 55.7247 14.8839C55.9027 14.4755 56.1725 14.1136 56.5131 13.8264C57.298 13.2226 58.2036 12.9208 59.1697 12.9811H65.3282V9.96227H59.1697C57.298 9.84152 55.4263 10.4453 53.9772 11.5925C53.3232 12.1234 52.7986 12.7961 52.4429 13.5597C52.0873 14.3233 51.91 15.1578 51.9244 16ZM76.8602 12.9811L79.7584 9.96227H67.1999V22.3396H79.1546V19.3208H70.7017V17.5094H79.1546V14.6113H70.7017V12.9208H76.8602V12.9811ZM95.5168 9.90189H91.9546V17.1472L84.2263 10.4453C84.0466 10.2613 83.8299 10.1177 83.5904 10.0241C83.351 9.93036 83.0944 9.88872 82.8376 9.90189C82.613 9.8873 82.3881 9.9231 82.1791 10.0067C81.9702 10.0903 81.7826 10.2195 81.63 10.3849C81.3885 10.6264 81.2678 10.9887 81.2678 11.4113V22.2793H84.8904V15.0943L92.5583 21.8566C92.7647 22.0594 93.0106 22.2175 93.2806 22.3214C93.5506 22.4253 93.8391 22.4726 94.1282 22.4604C95.0942 22.4604 95.5168 21.917 95.5168 20.8302V9.96227V9.90189ZM111.094 9.90189H97.2074V12.9208H102.4V22.4H105.962V12.9811H111.094V9.96227V9.90189Z" fill="white"/>
  <path d="M50.7168 12.9208H49.147L47.9395 9.90192H51.9244L50.7168 12.9208Z" fill="#27C4B8"/>
  <path d="M14.2489 6.40003L16.6036 5.01135V1.81135L14.1885 0.422668V6.40003H14.2489Z" fill="#A4A7A9"/>
  <path d="M5.55441 20.4078V11.3512L13.4035 6.82285V0.422852L0.48271 7.90964C0.35095 7.97808 0.241301 8.08247 0.166491 8.21072C0.0916813 8.33896 0.0547792 8.4858 0.0600687 8.63417V23.5474L5.61479 20.3474L5.55441 20.4078Z" fill="#27C4B8"/>
  <path d="M21.7361 21.0717L13.8266 25.6L5.97757 21.0717L0.422852 24.2717L13.4644 31.7585C13.5837 31.8274 13.719 31.8637 13.8568 31.8637C13.9946 31.8637 14.1299 31.8274 14.2493 31.7585L27.2908 24.2717L21.6757 21.0717H21.7361Z" fill="#6D6E71"/>
  <path d="M27.2901 7.90966L22.0977 4.95117V8.21155L16.543 11.3512L22.0977 14.5512V20.3474L27.6524 23.5474V8.63419C27.6636 8.4919 27.6358 8.34925 27.572 8.22158C27.5081 8.09392 27.4107 7.98608 27.2901 7.90966Z" fill="#A4A7A9"/>
  <path d="M11.0488 14.4906V20.8302L16.4828 17.7509V11.4113L11.0488 14.4906Z" fill="#6D6E71"/>
  </g>
  <defs>
  <clipPath id="clip0_531_10">
  <rect width="111.094" height="32" fill="white"/>
  </clipPath>
  </defs>
</svg>